<mxfile host="app.diagrams.net" modified="2023-05-06T01:21:12.484Z" agent="Mozilla/5.0 (Macintosh; Intel Mac OS X 10_15_7) AppleWebKit/605.1.15 (KHTML, like Gecko) Version/16.4 Safari/605.1.15" etag="GDt_YCBchXUWiOsg6Xle" version="21.2.8" type="github">
  <diagram name="第 1 页" id="efJjUx1TZ3qMGzTkjLRd">
    <mxGraphModel dx="3180" dy="2250" grid="1" gridSize="10" guides="1" tooltips="1" connect="1" arrows="1" fold="1" page="1" pageScale="1" pageWidth="827" pageHeight="1169" math="0" shadow="0">
      <root>
        <mxCell id="0" />
        <mxCell id="1" parent="0" />
        <mxCell id="Kl0J1u9g9vZQOBzPppIB-465" value="" style="rounded=0;whiteSpace=wrap;html=1;dashed=1;dashPattern=8 8;strokeWidth=3;" parent="1" vertex="1">
          <mxGeometry x="1650" y="60" width="1510" height="1160" as="geometry" />
        </mxCell>
        <mxCell id="Kl0J1u9g9vZQOBzPppIB-454" value="" style="rounded=0;whiteSpace=wrap;html=1;dashed=1;strokeWidth=3;" parent="1" vertex="1">
          <mxGeometry x="1840" y="105" width="700" height="1045" as="geometry" />
        </mxCell>
        <mxCell id="Kl0J1u9g9vZQOBzPppIB-22" value="&lt;div style=&quot;text-align: center;&quot;&gt;&lt;b style=&quot;border-color: var(--border-color); font-size: 42px; -webkit-text-stroke-color: currentcolor !important;&quot;&gt;&lt;font face=&quot;Times New Roman&quot;&gt;RIS&lt;sub style=&quot;border-color: var(--border-color); -webkit-text-stroke-color: currentcolor !important;&quot;&gt;1&lt;/sub&gt;&lt;/font&gt;&lt;/b&gt;&lt;br&gt;&lt;/div&gt;" style="text;whiteSpace=wrap;html=1;" parent="1" vertex="1">
          <mxGeometry x="272.5" y="380" width="95" height="60" as="geometry" />
        </mxCell>
        <mxCell id="Kl0J1u9g9vZQOBzPppIB-38" value="" style="shape=image;verticalLabelPosition=bottom;labelBackgroundColor=default;verticalAlign=top;aspect=fixed;imageAspect=0;image=data:image/png,iVBORw0KGgoAAAANSUhEUgAAAMgAAADICAYAAACtWK6eAAANsklEQVR4nO3dTXLbNgPGceijyaq2coI6J7B8gsgniBy7M92FPkHUE1g+gZ0TRN5lpo4/ThD5BJZPYOUEr+Su4kbW+0dNddJMw4gUKQDU85vBAOoiUEU8AkCaVMWIyHcpICIJFBCRBAqISAIFRCSBAiKSQAERSaCAiCRQQEQSKCAiCRQQkQQKiEgCBUQkgQIikkABEUmggIgkUEBEEiggIgkUEJEECohIAgXkG1EUNe7u7t5Mp9M2L5sUa1CtVns///zzSa/XG/E6VxF9/vnnn68fHh4i81WflUrlYm1t7W1Z+gyRAvKVvb291mQyOafZoPyXUb1e3/7jjz8GtHPx66+/Nr98+fKRZoPyX0a1Wm3n9PS0b3IyT598Iex/+PDhgvZKU0Bi8aC5pvkjuYUk7jNpoM646NPQ51YefYZMAYnt7OzcUm2Y+fTPz8+3qRdCnzaQTco8hvT5nHoh9PmRqmXmk0ufIatQVt7u7m6btfg5zbkt+u2apU+WPTuLLHvi2eOa5tzYk+yfnZ31zIpSQMC36jHVG8rcGDiHDJyuyejVq1ddTgQc0Jybiz7xllmkQ72SFBAQkL4x5gUljYUGDn1eUL2kpHFJn23qTDIG5Io+W2ZFKSBgsPZN+oAsNHBc9KmApKeAwMVgddGnApKeAgIXg9VFnwpIegoIXAxWF30qIOkpIHAxWF30qYCkp4DAxWB10acCkp4CAheD1UWfCkh6CghcDFYXfSog6SkgcDFYXfSpgKSngMDFYHXRpwKSngICF4PVRZ8KSHoKCFwMVhd9KiDplT4gv/3228Zff/31YjqdNm3hP9nSoEh6I4q9LXdI6f/0009X79+/H5oSK2VA4lC8fPj3/dZSjGG1Wj0mLJdlDEupAmKDcX9/fzCdTiMjS8es0nvy5MlhmYJSmoCwvj6YTqddI84RlO7Z2dkhzeBVKEGLbyN9R1NLKb8M6vX6/iK3Jfsg6IAwa0TMGkc0GxTxz4jZ5Hdmk54JVLABicNhZw7xHCHZDzUkQQZE4QhPqCEJLiAKR7hCDElQAYk35B9pas8RphEb9+2QNu5BBWQn3ZMIxU+D8/PzLeogBBMQllZdllYHNCVwLLUOWWp1TQCCCIi9Qv758+dbmlIOo6dPn26FcMU9iICwtOoZY15TpDxOWGpFxnPeB0SzR3kxizz3fRbxPiDsPTrsPY5oSsmwF7FX2Y9pesv7gLC8srPHhpEy8v6MVoXiLS2vys/3ZZbXAWF5FbG8ekdTSopl1j7LrJ7xlNcBYXll16dvKFJeb1lmdai95HtA+ib9gw0kLFcEpGU85XtA/kfVoEh5jQjIM2ov+R6QKZWUHAHxdhx6+8YsBWQ1KCAZKSCrYaUDwiB/yam8Fqdrm7xMq2VkFfRNSoypAWOqT7gueVmYwgIS39x0TnPDiBRnWK/Xd4q6CatCyd3e3l5rMpl8pCmyFLVabfv09LRvcpZ7QKIoaozH41uaDYrIsozW19ef93q9Ee3c5B6QV7rzTxxhX3J4lvOdirkHhE35NVWTIrJsAzbtW9S5KSIgUyoRJwhIrmM613/MUkDEpRACMqDapIgs2w0BaVLnJveAsEnvsEk/oimyVGzSc7+FN/eARI+neYfGmHXKKruqVCp9yoAyssVezLLXiAweHh42+CJp0mwZzbh5GHOad6Pn+2leK76K3jerF5JPlUrleG1tjeM0/4Gytxbf399HBKbDy1X7zPIw5mp6y34B0c5VIQGx4pAc03xBKbtPlcdfVeqZBUTMvnd3d3aJ2uGlgjKfK8LRKSIcVmEBmbFBmUwmbZqpMVAOqHx3wtTeSTNj/IidUT5//twzq/HlYvhyOaRKrVarXRQVjJkKxVucEZtSeYsDu7/orJGE//9jqjeUUuPMk7fj0Ns3ZjFAfA3ImG+vdhF/HPctzgpGzKTvaJaWApKRrwEpeub4FiGx+5IjmqWkgGTkY0AIR+7n2ufBZ3FB9ZJyQxnyPgbUhuA0qJqUDWPML5TgKCAZMSimVD5x9oiaiDNcVKaXcDJgdkKE0HR4uU4JAp+pt+PQ2zdm+RYQ3x+TORMRppBOFysgGfkUEJY0hyytuiYgdkbhWlTPeH6lXgHJyKeAcK3jWdLyxlcRs8l4PO4bj0OigGTkUUBOOIiRCVTkeUj4bL0dh96+McuXgFSr1Z0PHz5c0AxWfHV+QHOd4hUFJCNfAuLzAUyD6yldNu4HNL3i8+fr7RuzPAlI7jfhuMRnOjSeXS/h8/V2HHr7xiwO5pTKtUsOYJu6FJhF7OnfI5re4PP1dhx6+8YsHwIS4undJPFe5JamNxSQjBSQYvC5Dqg2KV5Y6YBwMOzDq5s0m0ztDeo0WsYx3nsZA9Izxrym+KJvUuCYjKgGjCf7HKxL2oUpLCDxVdxzmhsmbKXag1jsQ7w8m5VRsA+vtuFoUEJ2w7fVMTNIz5RIfHy6pjx3LI4IyXYRIck9INHjVdtbmg1KqG5qtVpnGTdEuRRv2HumHEEJ5uHVHabvI5qhCvrPSrIowTH7G7N97vfq5B4QNoDXVE1KiFYuHDOEJCIk72iGzG7at6hzU0RAplQhuuLDbZkVRki6hOSAZrA4hrmO6Vz/MSvUgIRyM1TROH5D49mfoqQRQkAGVJuUkJzwwUZG7CwSMYu8oxmiG45jkzo3uQeEDzi4DR+nCLeKOEUYKr7kplTBCWKTHkV/n+YdGg/vO/iOT3zrbBj5BwHpm/BO/erh1QW5IiAtI/9gFdBlFXBAMxTBPry6Z/zfj1wSkDa1xAILyA3hiIoIh1VYQGZ2d3fbfNhNW3jZoKTxglI0zSDfcBCQK0oa9vdWBrYUfSt0heIt1sJTqqIpIN/gcz+mekNZCj5/b8eht2/M4kAtIyAjDtAzaonxuV9TNSlLwefv7Tj09o1ZHKhlBKQUTy3JS/wHjLc0l0YByWhZAcEJByky4mL/oYBktcSA2F8r2i77n7f/SPR4DeuWZoOyNApIRssMCAZcaNrO+0JTSJg9zpk92jSXSgHJaMkBsX+qcHF2drZDc+UQjiPC0aG5dApIRssOSGylZpKIZdXd3Z0NR2QcUUAychQQa8Rscsxscki7tLiI+/rh4aFrjNkwDikgGTkMyIwNygWlz0AamnJo8P/TZsZoGWM2jAcUkIw8CIgsgQKSkQKyGhSQjBSQ1aCAZKSArAYFJCMFZDWsdEDsjVOTyeQlzdQ409I1UnqcVeuaDGq12mVRN0rNFBYQG4wvX74c0WwZkeL06/X670UFpZCAxOH4SLNBESmaHl4t8gOjdT28WuT72Mv4/1wszjxdUzUpIss24IzYFnVuigjIlErECQKS65jO9R+zFBBxKYSADKg2KSLLdkNAmtS5yT0gbNK7bNIPaIosFZv03H+ROPeARI+neYcmjOfySnmE8/Dq+FdUP9IUWYpaQU+lKSQgVnw1/YLmLxSRonziKnq7iKvoVmEBmdnd3W0/PDy0TLZrIy8oUn5XlLQG1Wq1X/QTMSsUb3FGbEolJceZJ2/HobdvzFJAVoMCkpECshoUkIwIyIhKp4vL7RMB2TCe8j0gfaONetldEZCW8ZTvAekZY15TpLzeEpAOtZe8DsirsH/UXuZQqVT2z87OesZTXgfExa8dyXI9ffr0+fv374fGU14HxGKZNaDapEj53LC8alJ7y/uAsMzSLbwlxfIq91tk8+Z9QLTMKq/19fVnef/1bd68D4jFMqtndDarbE5YXkXGc0EEJJ5FBjTXKRK+MZvzps+b85kgAmKxF+myFzmgKYFj73HI3qNrAhBMQCyWWnYW2aRIuLw/c/W1oAIS34TVN1pqhWpcr9dbRd3cVISgAmKx1IpYar2jKYFhabXP0qpnAhJcQCyFJDwhhsMKMiCWQhKOUMNhBRsQKw7JMU3tSfw0JhydUMNhBR0QK96494zObvnmhg15FNKG/L8EH5AZZpMus0mH5jpF3LGzxjGzRteUQGkCYsVX3LtGf5biyglXyLshXCGfV6kCMhNFUePu7i5iRomMll5Fu2HG6D158uSiTMGYKWVAvmZnlfv7+xZhafJyVtYpkt6YMrCFUAwIRb+Mofha6QMyj51sD4e4Ol/gYQMu+oz3aQc001ioz9ApIHAxWF30qYCkp4DAxWB10acCkp4CAheD1UWfCkh6CghcDFYXfSog6SkgcDFYXfSpgKSngMDFYHXRpwKSngICF4PVRZ8KSHoKCFwMVhd9KiDpKSBwMVhd9KmApKeAwMVgddGnApKeAgIXg9VFnwpIegoIMg7WtwycDnUm9HlB9ZKSxiV9tqkzUUDSU0DAYD2mekOZW2XBh59lGawu+sRbAtKhXkkKCOLfcj+nObd6vb61yO2kWfqsVqs7i/wueHx78jXNuS3aZ+gUkBizyNAY8wtlHrksO+hzQLVJmccn+twwC6LPvpl/OZlLnyFTQGIpvl3HzB6tRWaPmbjPvvnxDVwu+lx4liwDBeQre3t7rclkckHze4Mnt4E6M8eAddJnrVZrn56e9s2KU0C+ET3ez25/1arNy02K9fd912traz2MeJ2r6LHPiD4j477PC/o8LqLPECkgIgkUEJEECohIAgVEJIECIpJAARFJoICIJFBARBIoICIJFBCRBAqISAIFRCSBAiKSQAERSaCAiCRQQEQSKCAiCRQQkQQKiEgCBUQkwf8BlS+wMgdKZlwAAAAASUVORK5CYII=;" parent="1" vertex="1">
          <mxGeometry x="650" y="480" width="270" height="270" as="geometry" />
        </mxCell>
        <mxCell id="Kl0J1u9g9vZQOBzPppIB-69" value="&lt;div style=&quot;text-align: center;&quot;&gt;&lt;b&gt;&lt;font style=&quot;font-size: 40px;&quot; face=&quot;Times New Roman&quot;&gt;Edge Cloud Processor&amp;nbsp;&lt;/font&gt;&lt;/b&gt;&lt;/div&gt;" style="text;whiteSpace=wrap;html=1;" parent="1" vertex="1">
          <mxGeometry x="647" y="390" width="276" height="80" as="geometry" />
        </mxCell>
        <mxCell id="Kl0J1u9g9vZQOBzPppIB-71" value="" style="curved=1;endArrow=classic;html=1;rounded=0;exitX=1;exitY=1;exitDx=0;exitDy=0;entryX=1;entryY=0.25;entryDx=0;entryDy=0;strokeWidth=3;" parent="1" target="Kl0J1u9g9vZQOBzPppIB-38" edge="1">
          <mxGeometry width="50" height="50" relative="1" as="geometry">
            <mxPoint x="1042" y="360" as="sourcePoint" />
            <mxPoint x="980" y="615" as="targetPoint" />
            <Array as="points">
              <mxPoint x="940" y="430" />
              <mxPoint x="1120" y="460" />
            </Array>
          </mxGeometry>
        </mxCell>
        <mxCell id="Kl0J1u9g9vZQOBzPppIB-73" value="" style="curved=1;endArrow=classic;html=1;rounded=0;entryX=0;entryY=0.75;entryDx=0;entryDy=0;strokeWidth=3;" parent="1" target="Kl0J1u9g9vZQOBzPppIB-38" edge="1">
          <mxGeometry width="50" height="50" relative="1" as="geometry">
            <mxPoint x="500" y="760" as="sourcePoint" />
            <mxPoint x="690" y="770" as="targetPoint" />
            <Array as="points">
              <mxPoint x="470" y="710" />
              <mxPoint x="630" y="690" />
            </Array>
          </mxGeometry>
        </mxCell>
        <mxCell id="Kl0J1u9g9vZQOBzPppIB-75" value="" style="curved=1;endArrow=classic;html=1;rounded=0;exitX=1;exitY=1;exitDx=0;exitDy=0;entryX=0;entryY=0.25;entryDx=0;entryDy=0;strokeWidth=3;" parent="1" target="Kl0J1u9g9vZQOBzPppIB-38" edge="1">
          <mxGeometry width="50" height="50" relative="1" as="geometry">
            <mxPoint x="638" y="360" as="sourcePoint" />
            <mxPoint x="700" y="548" as="targetPoint" />
            <Array as="points">
              <mxPoint x="550" y="400" />
              <mxPoint x="560" y="460" />
            </Array>
          </mxGeometry>
        </mxCell>
        <mxCell id="Kl0J1u9g9vZQOBzPppIB-86" value="" style="group" parent="1" vertex="1" connectable="0">
          <mxGeometry x="300" y="490" width="40" height="220" as="geometry" />
        </mxCell>
        <mxCell id="Kl0J1u9g9vZQOBzPppIB-80" value="" style="shape=waypoint;sketch=0;fillStyle=solid;size=6;pointerEvents=1;points=[];fillColor=none;resizable=0;rotatable=0;perimeter=centerPerimeter;snapToPoint=1;shadow=1;glass=0;strokeWidth=1;fontFamily=Times New Roman;fontSize=18;container=0;" parent="Kl0J1u9g9vZQOBzPppIB-86" vertex="1">
          <mxGeometry width="40" height="40" as="geometry" />
        </mxCell>
        <mxCell id="Kl0J1u9g9vZQOBzPppIB-81" value="" style="shape=waypoint;sketch=0;fillStyle=solid;size=6;pointerEvents=1;points=[];fillColor=none;resizable=0;rotatable=0;perimeter=centerPerimeter;snapToPoint=1;shadow=1;glass=0;strokeWidth=1;fontFamily=Times New Roman;fontSize=18;container=0;" parent="Kl0J1u9g9vZQOBzPppIB-86" vertex="1">
          <mxGeometry y="40" width="40" height="40" as="geometry" />
        </mxCell>
        <mxCell id="Kl0J1u9g9vZQOBzPppIB-82" value="" style="shape=waypoint;sketch=0;fillStyle=solid;size=6;pointerEvents=1;points=[];fillColor=none;resizable=0;rotatable=0;perimeter=centerPerimeter;snapToPoint=1;shadow=1;glass=0;strokeWidth=1;fontFamily=Times New Roman;fontSize=18;container=0;" parent="Kl0J1u9g9vZQOBzPppIB-86" vertex="1">
          <mxGeometry y="70" width="40" height="40" as="geometry" />
        </mxCell>
        <mxCell id="Kl0J1u9g9vZQOBzPppIB-83" value="" style="shape=waypoint;sketch=0;fillStyle=solid;size=6;pointerEvents=1;points=[];fillColor=none;resizable=0;rotatable=0;perimeter=centerPerimeter;snapToPoint=1;shadow=1;glass=0;strokeWidth=1;fontFamily=Times New Roman;fontSize=18;container=0;" parent="Kl0J1u9g9vZQOBzPppIB-86" vertex="1">
          <mxGeometry y="110" width="40" height="40" as="geometry" />
        </mxCell>
        <mxCell id="Kl0J1u9g9vZQOBzPppIB-84" value="" style="shape=waypoint;sketch=0;fillStyle=solid;size=6;pointerEvents=1;points=[];fillColor=none;resizable=0;rotatable=0;perimeter=centerPerimeter;snapToPoint=1;shadow=1;glass=0;strokeWidth=1;fontFamily=Times New Roman;fontSize=18;container=0;" parent="Kl0J1u9g9vZQOBzPppIB-86" vertex="1">
          <mxGeometry y="150" width="40" height="40" as="geometry" />
        </mxCell>
        <mxCell id="Kl0J1u9g9vZQOBzPppIB-85" value="" style="shape=waypoint;sketch=0;fillStyle=solid;size=6;pointerEvents=1;points=[];fillColor=none;resizable=0;rotatable=0;perimeter=centerPerimeter;snapToPoint=1;shadow=1;glass=0;strokeWidth=1;fontFamily=Times New Roman;fontSize=18;container=0;" parent="Kl0J1u9g9vZQOBzPppIB-86" vertex="1">
          <mxGeometry y="180" width="40" height="40" as="geometry" />
        </mxCell>
        <mxCell id="Kl0J1u9g9vZQOBzPppIB-189" value="" style="group" parent="1" vertex="1" connectable="0">
          <mxGeometry x="1900" y="685" width="520" height="446" as="geometry" />
        </mxCell>
        <mxCell id="Kl0J1u9g9vZQOBzPppIB-105" value="" style="rounded=0;whiteSpace=wrap;html=1;shadow=1;glass=0;sketch=0;strokeWidth=1;fontFamily=Times New Roman;fontSize=16;fontColor=#000000;movable=1;resizable=1;rotatable=1;deletable=1;editable=1;connectable=1;container=0;" parent="Kl0J1u9g9vZQOBzPppIB-189" vertex="1">
          <mxGeometry y="6" width="520" height="439" as="geometry" />
        </mxCell>
        <mxCell id="Kl0J1u9g9vZQOBzPppIB-173" value="" style="endArrow=classic;html=1;rounded=0;strokeWidth=3;fontFamily=Times New Roman;fontSize=27;fontColor=#000000;entryX=0;entryY=0.5;entryDx=0;entryDy=0;movable=1;resizable=1;rotatable=1;deletable=1;editable=1;connectable=1;" parent="Kl0J1u9g9vZQOBzPppIB-189" target="Kl0J1u9g9vZQOBzPppIB-113" edge="1">
          <mxGeometry width="50" height="50" relative="1" as="geometry">
            <mxPoint x="90" y="145" as="sourcePoint" />
            <mxPoint x="173.63587550311195" y="112.16578069479942" as="targetPoint" />
          </mxGeometry>
        </mxCell>
        <mxCell id="Kl0J1u9g9vZQOBzPppIB-174" value="" style="endArrow=classic;html=1;rounded=0;strokeWidth=3;fontFamily=Times New Roman;fontSize=27;fontColor=#000000;entryX=0;entryY=0.5;entryDx=0;entryDy=0;movable=1;resizable=1;rotatable=1;deletable=1;editable=1;connectable=1;" parent="Kl0J1u9g9vZQOBzPppIB-189" target="Kl0J1u9g9vZQOBzPppIB-111" edge="1">
          <mxGeometry width="50" height="50" relative="1" as="geometry">
            <mxPoint x="90" y="145" as="sourcePoint" />
            <mxPoint x="173.63587550311195" y="112.16578069479942" as="targetPoint" />
          </mxGeometry>
        </mxCell>
        <mxCell id="Kl0J1u9g9vZQOBzPppIB-175" value="" style="endArrow=classic;html=1;rounded=0;strokeWidth=3;fontFamily=Times New Roman;fontSize=27;fontColor=#000000;entryX=0;entryY=0.5;entryDx=0;entryDy=0;movable=1;resizable=1;rotatable=1;deletable=1;editable=1;connectable=1;" parent="Kl0J1u9g9vZQOBzPppIB-189" target="Kl0J1u9g9vZQOBzPppIB-112" edge="1">
          <mxGeometry width="50" height="50" relative="1" as="geometry">
            <mxPoint x="90" y="145" as="sourcePoint" />
            <mxPoint x="170" y="98.5" as="targetPoint" />
          </mxGeometry>
        </mxCell>
        <mxCell id="Kl0J1u9g9vZQOBzPppIB-177" value="" style="endArrow=none;dashed=1;html=1;dashPattern=1 3;strokeWidth=2;rounded=0;fontFamily=Times New Roman;fontSize=27;fontColor=#000000;movable=1;resizable=1;rotatable=1;deletable=1;editable=1;connectable=1;" parent="Kl0J1u9g9vZQOBzPppIB-189" edge="1">
          <mxGeometry width="50" height="50" relative="1" as="geometry">
            <mxPoint x="24.5" y="444" as="sourcePoint" />
            <mxPoint x="104.5" y="444" as="targetPoint" />
          </mxGeometry>
        </mxCell>
        <mxCell id="Kl0J1u9g9vZQOBzPppIB-178" value="" style="endArrow=none;dashed=1;html=1;dashPattern=1 3;strokeWidth=2;rounded=0;fontFamily=Times New Roman;fontSize=27;fontColor=#000000;movable=1;resizable=1;rotatable=1;deletable=1;editable=1;connectable=1;" parent="Kl0J1u9g9vZQOBzPppIB-189" edge="1">
          <mxGeometry width="50" height="50" relative="1" as="geometry">
            <mxPoint x="100" y="446" as="sourcePoint" />
            <mxPoint x="100" y="45" as="targetPoint" />
          </mxGeometry>
        </mxCell>
        <mxCell id="Kl0J1u9g9vZQOBzPppIB-179" value="" style="endArrow=none;dashed=1;html=1;dashPattern=1 3;strokeWidth=2;rounded=0;fontFamily=Times New Roman;fontSize=22;fontColor=#000000;movable=1;resizable=1;rotatable=1;deletable=1;editable=1;connectable=1;" parent="Kl0J1u9g9vZQOBzPppIB-189" edge="1">
          <mxGeometry width="50" height="50" relative="1" as="geometry">
            <mxPoint x="26" y="45" as="sourcePoint" />
            <mxPoint x="106" y="45" as="targetPoint" />
          </mxGeometry>
        </mxCell>
        <mxCell id="Kl0J1u9g9vZQOBzPppIB-180" value="&lt;font style=&quot;font-size: 30px;&quot;&gt;Input&lt;/font&gt;" style="text;html=1;align=center;verticalAlign=middle;resizable=1;points=[];autosize=1;strokeColor=none;fillColor=none;fontSize=20;fontFamily=Times New Roman;fontColor=#000000;shadow=1;glass=0;sketch=0;strokeWidth=1;movable=1;rotatable=1;deletable=1;editable=1;connectable=1;container=0;" parent="Kl0J1u9g9vZQOBzPppIB-189" vertex="1">
          <mxGeometry x="15" width="90" height="50" as="geometry" />
        </mxCell>
        <mxCell id="Kl0J1u9g9vZQOBzPppIB-181" value="" style="endArrow=none;dashed=1;html=1;dashPattern=1 3;strokeWidth=2;rounded=0;fontFamily=Times New Roman;fontSize=27;fontColor=#000000;movable=1;resizable=1;rotatable=1;deletable=1;editable=1;connectable=1;" parent="Kl0J1u9g9vZQOBzPppIB-189" edge="1">
          <mxGeometry width="50" height="50" relative="1" as="geometry">
            <mxPoint x="140" y="445" as="sourcePoint" />
            <mxPoint x="140" y="45" as="targetPoint" />
          </mxGeometry>
        </mxCell>
        <mxCell id="Kl0J1u9g9vZQOBzPppIB-182" value="" style="endArrow=none;dashed=1;html=1;dashPattern=1 3;strokeWidth=2;rounded=0;fontFamily=Times New Roman;fontSize=27;fontColor=#000000;movable=1;resizable=1;rotatable=1;deletable=1;editable=1;connectable=1;" parent="Kl0J1u9g9vZQOBzPppIB-189" edge="1">
          <mxGeometry width="50" height="50" relative="1" as="geometry">
            <mxPoint x="104.5" y="445" as="sourcePoint" />
            <mxPoint x="345.5" y="445" as="targetPoint" />
          </mxGeometry>
        </mxCell>
        <mxCell id="Kl0J1u9g9vZQOBzPppIB-183" value="" style="endArrow=none;dashed=1;html=1;dashPattern=1 3;strokeWidth=2;rounded=0;fontFamily=Times New Roman;fontSize=27;fontColor=#000000;movable=1;resizable=1;rotatable=1;deletable=1;editable=1;connectable=1;" parent="Kl0J1u9g9vZQOBzPppIB-189" edge="1">
          <mxGeometry width="50" height="50" relative="1" as="geometry">
            <mxPoint x="139" y="45" as="sourcePoint" />
            <mxPoint x="380" y="45" as="targetPoint" />
          </mxGeometry>
        </mxCell>
        <mxCell id="Kl0J1u9g9vZQOBzPppIB-184" value="&lt;font style=&quot;font-size: 30px;&quot;&gt;Hidden&lt;/font&gt;" style="text;html=1;align=center;verticalAlign=middle;resizable=1;points=[];autosize=1;strokeColor=none;fillColor=none;fontSize=20;fontFamily=Times New Roman;fontColor=#000000;shadow=1;glass=0;sketch=0;strokeWidth=1;movable=1;rotatable=1;deletable=1;editable=1;connectable=1;container=0;" parent="Kl0J1u9g9vZQOBzPppIB-189" vertex="1">
          <mxGeometry x="202" width="110" height="50" as="geometry" />
        </mxCell>
        <mxCell id="Kl0J1u9g9vZQOBzPppIB-185" value="" style="endArrow=none;dashed=1;html=1;dashPattern=1 3;strokeWidth=2;rounded=0;fontFamily=Times New Roman;fontSize=27;fontColor=#000000;movable=1;resizable=1;rotatable=1;deletable=1;editable=1;connectable=1;" parent="Kl0J1u9g9vZQOBzPppIB-189" edge="1">
          <mxGeometry width="50" height="50" relative="1" as="geometry">
            <mxPoint x="500" y="445" as="sourcePoint" />
            <mxPoint x="500" y="45" as="targetPoint" />
          </mxGeometry>
        </mxCell>
        <mxCell id="Kl0J1u9g9vZQOBzPppIB-186" value="" style="endArrow=none;dashed=1;html=1;dashPattern=1 3;strokeWidth=2;rounded=0;fontFamily=Times New Roman;fontSize=27;fontColor=#000000;movable=1;resizable=1;rotatable=1;deletable=1;editable=1;connectable=1;" parent="Kl0J1u9g9vZQOBzPppIB-189" edge="1">
          <mxGeometry width="50" height="50" relative="1" as="geometry">
            <mxPoint x="384.5" y="445" as="sourcePoint" />
            <mxPoint x="464.5" y="445" as="targetPoint" />
          </mxGeometry>
        </mxCell>
        <mxCell id="Kl0J1u9g9vZQOBzPppIB-187" value="" style="endArrow=none;dashed=1;html=1;dashPattern=1 3;strokeWidth=2;rounded=0;fontFamily=Times New Roman;fontSize=27;fontColor=#000000;movable=1;resizable=1;rotatable=1;deletable=1;editable=1;connectable=1;" parent="Kl0J1u9g9vZQOBzPppIB-189" edge="1">
          <mxGeometry width="50" height="50" relative="1" as="geometry">
            <mxPoint x="427" y="45" as="sourcePoint" />
            <mxPoint x="507" y="45" as="targetPoint" />
          </mxGeometry>
        </mxCell>
        <mxCell id="Kl0J1u9g9vZQOBzPppIB-188" value="&lt;font style=&quot;font-size: 30px;&quot;&gt;Output&lt;/font&gt;" style="text;html=1;align=center;verticalAlign=middle;resizable=1;points=[];autosize=1;strokeColor=none;fillColor=none;fontSize=20;fontFamily=Times New Roman;fontColor=#000000;shadow=1;glass=0;sketch=0;strokeWidth=1;movable=1;rotatable=1;deletable=1;editable=1;connectable=1;container=0;" parent="Kl0J1u9g9vZQOBzPppIB-189" vertex="1">
          <mxGeometry x="405" width="110" height="50" as="geometry" />
        </mxCell>
        <mxCell id="Kl0J1u9g9vZQOBzPppIB-107" value="" style="ellipse;whiteSpace=wrap;html=1;aspect=fixed;shadow=1;glass=0;sketch=0;strokeWidth=1;fontFamily=Times New Roman;fontSize=27;fillColor=#d5e8d4;strokeColor=#82b366;gradientColor=#97d077;movable=1;resizable=1;rotatable=1;deletable=1;editable=1;connectable=1;container=0;" parent="Kl0J1u9g9vZQOBzPppIB-189" vertex="1">
          <mxGeometry x="30" y="115" width="55" height="55" as="geometry" />
        </mxCell>
        <mxCell id="Kl0J1u9g9vZQOBzPppIB-108" value="" style="ellipse;whiteSpace=wrap;html=1;aspect=fixed;shadow=1;glass=0;sketch=0;strokeWidth=1;fontFamily=Times New Roman;fontSize=27;fillColor=#d5e8d4;strokeColor=#82b366;gradientColor=#97d077;movable=1;resizable=1;rotatable=1;deletable=1;editable=1;connectable=1;container=0;" parent="Kl0J1u9g9vZQOBzPppIB-189" vertex="1">
          <mxGeometry x="30" y="200" width="55" height="55" as="geometry" />
        </mxCell>
        <mxCell id="Kl0J1u9g9vZQOBzPppIB-109" value="" style="ellipse;whiteSpace=wrap;html=1;aspect=fixed;shadow=1;glass=0;sketch=0;strokeWidth=1;fontFamily=Times New Roman;fontSize=27;fillColor=#d5e8d4;strokeColor=#82b366;gradientColor=#97d077;movable=1;resizable=1;rotatable=1;deletable=1;editable=1;connectable=1;container=0;" parent="Kl0J1u9g9vZQOBzPppIB-189" vertex="1">
          <mxGeometry x="30" y="310" width="55" height="55" as="geometry" />
        </mxCell>
        <mxCell id="Kl0J1u9g9vZQOBzPppIB-110" value="" style="ellipse;whiteSpace=wrap;html=1;aspect=fixed;shadow=1;glass=0;sketch=0;strokeWidth=1;fontFamily=Times New Roman;fontSize=27;fillColor=#fff2cc;strokeColor=#d6b656;gradientColor=#ffd966;movable=1;resizable=1;rotatable=1;deletable=1;editable=1;connectable=1;container=0;" parent="Kl0J1u9g9vZQOBzPppIB-189" vertex="1">
          <mxGeometry x="160" y="61" width="55" height="55" as="geometry" />
        </mxCell>
        <mxCell id="Kl0J1u9g9vZQOBzPppIB-111" value="" style="ellipse;whiteSpace=wrap;html=1;aspect=fixed;shadow=1;glass=0;sketch=0;strokeWidth=1;fontFamily=Times New Roman;fontSize=27;fillColor=#fff2cc;strokeColor=#d6b656;gradientColor=#ffd966;movable=1;resizable=1;rotatable=1;deletable=1;editable=1;connectable=1;container=0;" parent="Kl0J1u9g9vZQOBzPppIB-189" vertex="1">
          <mxGeometry x="160" y="146" width="55" height="55" as="geometry" />
        </mxCell>
        <mxCell id="Kl0J1u9g9vZQOBzPppIB-112" value="" style="ellipse;whiteSpace=wrap;html=1;aspect=fixed;shadow=1;glass=0;sketch=0;strokeWidth=1;fontFamily=Times New Roman;fontSize=27;fillColor=#fff2cc;strokeColor=#d6b656;gradientColor=#ffd966;movable=1;resizable=1;rotatable=1;deletable=1;editable=1;connectable=1;container=0;" parent="Kl0J1u9g9vZQOBzPppIB-189" vertex="1">
          <mxGeometry x="160" y="281" width="55" height="55" as="geometry" />
        </mxCell>
        <mxCell id="Kl0J1u9g9vZQOBzPppIB-113" value="" style="ellipse;whiteSpace=wrap;html=1;aspect=fixed;shadow=1;glass=0;sketch=0;strokeWidth=1;fontFamily=Times New Roman;fontSize=27;fillColor=#fff2cc;strokeColor=#d6b656;gradientColor=#ffd966;movable=1;resizable=1;rotatable=1;deletable=1;editable=1;connectable=1;container=0;" parent="Kl0J1u9g9vZQOBzPppIB-189" vertex="1">
          <mxGeometry x="160" y="370" width="55" height="55" as="geometry" />
        </mxCell>
        <mxCell id="Kl0J1u9g9vZQOBzPppIB-114" value="" style="ellipse;whiteSpace=wrap;html=1;aspect=fixed;shadow=1;glass=0;sketch=0;strokeWidth=1;fontFamily=Times New Roman;fontSize=27;fillColor=#fff2cc;strokeColor=#d6b656;gradientColor=#ffd966;movable=1;resizable=1;rotatable=1;deletable=1;editable=1;connectable=1;container=0;" parent="Kl0J1u9g9vZQOBzPppIB-189" vertex="1">
          <mxGeometry x="300" y="61" width="55" height="55" as="geometry" />
        </mxCell>
        <mxCell id="Kl0J1u9g9vZQOBzPppIB-115" value="" style="ellipse;whiteSpace=wrap;html=1;aspect=fixed;shadow=1;glass=0;sketch=0;strokeWidth=1;fontFamily=Times New Roman;fontSize=27;fillColor=#fff2cc;strokeColor=#d6b656;gradientColor=#ffd966;movable=1;resizable=1;rotatable=1;deletable=1;editable=1;connectable=1;container=0;" parent="Kl0J1u9g9vZQOBzPppIB-189" vertex="1">
          <mxGeometry x="300" y="146" width="55" height="55" as="geometry" />
        </mxCell>
        <mxCell id="Kl0J1u9g9vZQOBzPppIB-116" value="" style="ellipse;whiteSpace=wrap;html=1;aspect=fixed;shadow=1;glass=0;sketch=0;strokeWidth=1;fontFamily=Times New Roman;fontSize=27;fillColor=#fff2cc;strokeColor=#d6b656;gradientColor=#ffd966;movable=1;resizable=1;rotatable=1;deletable=1;editable=1;connectable=1;container=0;" parent="Kl0J1u9g9vZQOBzPppIB-189" vertex="1">
          <mxGeometry x="300" y="281" width="55" height="55" as="geometry" />
        </mxCell>
        <mxCell id="Kl0J1u9g9vZQOBzPppIB-117" value="" style="ellipse;whiteSpace=wrap;html=1;aspect=fixed;shadow=1;glass=0;sketch=0;strokeWidth=1;fontFamily=Times New Roman;fontSize=27;fillColor=#fff2cc;strokeColor=#d6b656;gradientColor=#ffd966;movable=1;resizable=1;rotatable=1;deletable=1;editable=1;connectable=1;container=0;" parent="Kl0J1u9g9vZQOBzPppIB-189" vertex="1">
          <mxGeometry x="300" y="370" width="55" height="55" as="geometry" />
        </mxCell>
        <mxCell id="Kl0J1u9g9vZQOBzPppIB-118" value="" style="ellipse;whiteSpace=wrap;html=1;aspect=fixed;shadow=1;glass=0;sketch=0;strokeWidth=1;fontFamily=Times New Roman;fontSize=27;fillColor=#dae8fc;strokeColor=#6c8ebf;gradientColor=#7ea6e0;movable=1;resizable=1;rotatable=1;deletable=1;editable=1;connectable=1;container=0;" parent="Kl0J1u9g9vZQOBzPppIB-189" vertex="1">
          <mxGeometry x="430" y="115" width="55" height="55" as="geometry" />
        </mxCell>
        <mxCell id="Kl0J1u9g9vZQOBzPppIB-119" value="" style="ellipse;whiteSpace=wrap;html=1;aspect=fixed;shadow=1;glass=0;sketch=0;strokeWidth=1;fontFamily=Times New Roman;fontSize=27;fillColor=#dae8fc;strokeColor=#6c8ebf;gradientColor=#7ea6e0;movable=1;resizable=1;rotatable=1;deletable=1;editable=1;connectable=1;container=0;" parent="Kl0J1u9g9vZQOBzPppIB-189" vertex="1">
          <mxGeometry x="430" y="200" width="55" height="55" as="geometry" />
        </mxCell>
        <mxCell id="Kl0J1u9g9vZQOBzPppIB-120" value="" style="ellipse;whiteSpace=wrap;html=1;aspect=fixed;shadow=1;glass=0;sketch=0;strokeWidth=1;fontFamily=Times New Roman;fontSize=27;fillColor=#dae8fc;strokeColor=#6c8ebf;gradientColor=#7ea6e0;movable=1;resizable=1;rotatable=1;deletable=1;editable=1;connectable=1;container=0;" parent="Kl0J1u9g9vZQOBzPppIB-189" vertex="1">
          <mxGeometry x="430" y="310" width="55" height="55" as="geometry" />
        </mxCell>
        <mxCell id="Kl0J1u9g9vZQOBzPppIB-121" value="" style="endArrow=classic;html=1;rounded=0;strokeWidth=3;fontFamily=Times New Roman;fontSize=27;fontColor=#000000;entryX=0;entryY=0.5;entryDx=0;entryDy=0;movable=1;resizable=1;rotatable=1;deletable=1;editable=1;connectable=1;" parent="Kl0J1u9g9vZQOBzPppIB-189" target="Kl0J1u9g9vZQOBzPppIB-110" edge="1">
          <mxGeometry width="50" height="50" relative="1" as="geometry">
            <mxPoint x="90" y="145" as="sourcePoint" />
            <mxPoint x="140" y="85" as="targetPoint" />
          </mxGeometry>
        </mxCell>
        <mxCell id="Kl0J1u9g9vZQOBzPppIB-122" value="" style="shape=waypoint;sketch=0;fillStyle=solid;size=6;pointerEvents=1;points=[];fillColor=none;resizable=1;rotatable=1;perimeter=centerPerimeter;snapToPoint=1;shadow=1;glass=0;strokeWidth=1;fontFamily=Times New Roman;fontSize=27;fontColor=#000000;movable=1;deletable=1;editable=1;connectable=1;container=0;" parent="Kl0J1u9g9vZQOBzPppIB-189" vertex="1">
          <mxGeometry x="37.5" y="255" width="40" height="40" as="geometry" />
        </mxCell>
        <mxCell id="Kl0J1u9g9vZQOBzPppIB-123" value="" style="shape=waypoint;sketch=0;fillStyle=solid;size=6;pointerEvents=1;points=[];fillColor=none;resizable=1;rotatable=1;perimeter=centerPerimeter;snapToPoint=1;shadow=1;glass=0;strokeWidth=1;fontFamily=Times New Roman;fontSize=27;fontColor=#000000;movable=1;deletable=1;editable=1;connectable=1;container=0;" parent="Kl0J1u9g9vZQOBzPppIB-189" vertex="1">
          <mxGeometry x="37.5" y="265" width="40" height="40" as="geometry" />
        </mxCell>
        <mxCell id="Kl0J1u9g9vZQOBzPppIB-124" value="" style="shape=waypoint;sketch=0;fillStyle=solid;size=6;pointerEvents=1;points=[];fillColor=none;resizable=1;rotatable=1;perimeter=centerPerimeter;snapToPoint=1;shadow=1;glass=0;strokeWidth=1;fontFamily=Times New Roman;fontSize=27;fontColor=#000000;movable=1;deletable=1;editable=1;connectable=1;container=0;" parent="Kl0J1u9g9vZQOBzPppIB-189" vertex="1">
          <mxGeometry x="37.5" y="277" width="40" height="40" as="geometry" />
        </mxCell>
        <mxCell id="Kl0J1u9g9vZQOBzPppIB-125" value="" style="shape=waypoint;sketch=0;fillStyle=solid;size=6;pointerEvents=1;points=[];fillColor=none;resizable=1;rotatable=1;perimeter=centerPerimeter;snapToPoint=1;shadow=1;glass=0;strokeWidth=1;fontFamily=Times New Roman;fontSize=27;fontColor=#000000;movable=1;deletable=1;editable=1;connectable=1;container=0;" parent="Kl0J1u9g9vZQOBzPppIB-189" vertex="1">
          <mxGeometry x="437.5" y="255" width="40" height="40" as="geometry" />
        </mxCell>
        <mxCell id="Kl0J1u9g9vZQOBzPppIB-126" value="" style="shape=waypoint;sketch=0;fillStyle=solid;size=6;pointerEvents=1;points=[];fillColor=none;resizable=1;rotatable=1;perimeter=centerPerimeter;snapToPoint=1;shadow=1;glass=0;strokeWidth=1;fontFamily=Times New Roman;fontSize=27;fontColor=#000000;movable=1;deletable=1;editable=1;connectable=1;container=0;" parent="Kl0J1u9g9vZQOBzPppIB-189" vertex="1">
          <mxGeometry x="437.5" y="266" width="40" height="40" as="geometry" />
        </mxCell>
        <mxCell id="Kl0J1u9g9vZQOBzPppIB-127" value="" style="shape=waypoint;sketch=0;fillStyle=solid;size=6;pointerEvents=1;points=[];fillColor=none;resizable=1;rotatable=1;perimeter=centerPerimeter;snapToPoint=1;shadow=1;glass=0;strokeWidth=1;fontFamily=Times New Roman;fontSize=27;fontColor=#000000;movable=1;deletable=1;editable=1;connectable=1;container=0;" parent="Kl0J1u9g9vZQOBzPppIB-189" vertex="1">
          <mxGeometry x="437.5" y="277" width="40" height="40" as="geometry" />
        </mxCell>
        <mxCell id="Kl0J1u9g9vZQOBzPppIB-128" value="" style="endArrow=classic;html=1;rounded=0;strokeWidth=3;fontFamily=Times New Roman;fontSize=27;fontColor=#000000;entryX=0;entryY=0.5;entryDx=0;entryDy=0;exitX=1;exitY=0.5;exitDx=0;exitDy=0;movable=1;resizable=1;rotatable=1;deletable=1;editable=1;connectable=1;" parent="Kl0J1u9g9vZQOBzPppIB-189" source="Kl0J1u9g9vZQOBzPppIB-108" target="Kl0J1u9g9vZQOBzPppIB-110" edge="1">
          <mxGeometry width="50" height="50" relative="1" as="geometry">
            <mxPoint x="100" y="155" as="sourcePoint" />
            <mxPoint x="170.00000000000728" y="98.5" as="targetPoint" />
          </mxGeometry>
        </mxCell>
        <mxCell id="Kl0J1u9g9vZQOBzPppIB-129" value="" style="endArrow=classic;html=1;rounded=0;strokeWidth=3;fontFamily=Times New Roman;fontSize=27;fontColor=#000000;entryX=0;entryY=0.5;entryDx=0;entryDy=0;exitX=1;exitY=0.5;exitDx=0;exitDy=0;movable=1;resizable=1;rotatable=1;deletable=1;editable=1;connectable=1;" parent="Kl0J1u9g9vZQOBzPppIB-189" source="Kl0J1u9g9vZQOBzPppIB-108" target="Kl0J1u9g9vZQOBzPppIB-111" edge="1">
          <mxGeometry width="50" height="50" relative="1" as="geometry">
            <mxPoint x="110" y="165" as="sourcePoint" />
            <mxPoint x="180.00000000000728" y="108.5" as="targetPoint" />
          </mxGeometry>
        </mxCell>
        <mxCell id="Kl0J1u9g9vZQOBzPppIB-130" value="" style="endArrow=classic;html=1;rounded=0;strokeWidth=3;fontFamily=Times New Roman;fontSize=27;fontColor=#000000;entryX=0;entryY=0.5;entryDx=0;entryDy=0;exitX=1;exitY=0.5;exitDx=0;exitDy=0;movable=1;resizable=1;rotatable=1;deletable=1;editable=1;connectable=1;" parent="Kl0J1u9g9vZQOBzPppIB-189" source="Kl0J1u9g9vZQOBzPppIB-108" target="Kl0J1u9g9vZQOBzPppIB-112" edge="1">
          <mxGeometry width="50" height="50" relative="1" as="geometry">
            <mxPoint x="94.99999999999272" y="237.5" as="sourcePoint" />
            <mxPoint x="170.00000000000728" y="183.5" as="targetPoint" />
          </mxGeometry>
        </mxCell>
        <mxCell id="Kl0J1u9g9vZQOBzPppIB-131" value="" style="endArrow=classic;html=1;rounded=0;strokeWidth=3;fontFamily=Times New Roman;fontSize=27;fontColor=#000000;entryX=0;entryY=0.5;entryDx=0;entryDy=0;exitX=1;exitY=0.5;exitDx=0;exitDy=0;movable=1;resizable=1;rotatable=1;deletable=1;editable=1;connectable=1;" parent="Kl0J1u9g9vZQOBzPppIB-189" source="Kl0J1u9g9vZQOBzPppIB-108" target="Kl0J1u9g9vZQOBzPppIB-113" edge="1">
          <mxGeometry width="50" height="50" relative="1" as="geometry">
            <mxPoint x="104.99999999999272" y="247.5" as="sourcePoint" />
            <mxPoint x="180.00000000000728" y="193.5" as="targetPoint" />
          </mxGeometry>
        </mxCell>
        <mxCell id="Kl0J1u9g9vZQOBzPppIB-132" value="" style="endArrow=classic;html=1;rounded=0;strokeWidth=3;fontFamily=Times New Roman;fontSize=27;fontColor=#000000;entryX=0;entryY=0.5;entryDx=0;entryDy=0;exitX=1;exitY=0.5;exitDx=0;exitDy=0;movable=1;resizable=1;rotatable=1;deletable=1;editable=1;connectable=1;" parent="Kl0J1u9g9vZQOBzPppIB-189" source="Kl0J1u9g9vZQOBzPppIB-109" target="Kl0J1u9g9vZQOBzPppIB-110" edge="1">
          <mxGeometry width="50" height="50" relative="1" as="geometry">
            <mxPoint x="114.99999999999272" y="257.5" as="sourcePoint" />
            <mxPoint x="190.00000000000728" y="203.5" as="targetPoint" />
          </mxGeometry>
        </mxCell>
        <mxCell id="Kl0J1u9g9vZQOBzPppIB-133" value="" style="endArrow=classic;html=1;rounded=0;strokeWidth=3;fontFamily=Times New Roman;fontSize=27;fontColor=#000000;entryX=0;entryY=0.5;entryDx=0;entryDy=0;exitX=1;exitY=0.5;exitDx=0;exitDy=0;movable=1;resizable=1;rotatable=1;deletable=1;editable=1;connectable=1;" parent="Kl0J1u9g9vZQOBzPppIB-189" source="Kl0J1u9g9vZQOBzPppIB-109" target="Kl0J1u9g9vZQOBzPppIB-111" edge="1">
          <mxGeometry width="50" height="50" relative="1" as="geometry">
            <mxPoint x="124.99999999999272" y="267.5" as="sourcePoint" />
            <mxPoint x="200.00000000000728" y="213.5" as="targetPoint" />
          </mxGeometry>
        </mxCell>
        <mxCell id="Kl0J1u9g9vZQOBzPppIB-134" value="" style="endArrow=classic;html=1;rounded=0;strokeWidth=3;fontFamily=Times New Roman;fontSize=27;fontColor=#000000;entryX=0;entryY=0.5;entryDx=0;entryDy=0;exitX=1;exitY=0.5;exitDx=0;exitDy=0;movable=1;resizable=1;rotatable=1;deletable=1;editable=1;connectable=1;" parent="Kl0J1u9g9vZQOBzPppIB-189" source="Kl0J1u9g9vZQOBzPppIB-109" target="Kl0J1u9g9vZQOBzPppIB-112" edge="1">
          <mxGeometry width="50" height="50" relative="1" as="geometry">
            <mxPoint x="134.99999999999272" y="277.5" as="sourcePoint" />
            <mxPoint x="210.00000000000728" y="223.5" as="targetPoint" />
          </mxGeometry>
        </mxCell>
        <mxCell id="Kl0J1u9g9vZQOBzPppIB-135" value="" style="endArrow=classic;html=1;rounded=0;strokeWidth=3;fontFamily=Times New Roman;fontSize=27;fontColor=#000000;entryX=0;entryY=0.5;entryDx=0;entryDy=0;exitX=1;exitY=0.5;exitDx=0;exitDy=0;movable=1;resizable=1;rotatable=1;deletable=1;editable=1;connectable=1;" parent="Kl0J1u9g9vZQOBzPppIB-189" source="Kl0J1u9g9vZQOBzPppIB-109" target="Kl0J1u9g9vZQOBzPppIB-113" edge="1">
          <mxGeometry width="50" height="50" relative="1" as="geometry">
            <mxPoint x="144.99999999999272" y="287.5" as="sourcePoint" />
            <mxPoint x="220.00000000000728" y="233.5" as="targetPoint" />
          </mxGeometry>
        </mxCell>
        <mxCell id="Kl0J1u9g9vZQOBzPppIB-136" value="" style="endArrow=classic;html=1;rounded=0;strokeWidth=3;fontFamily=Times New Roman;fontSize=27;fontColor=#000000;exitX=1;exitY=0.5;exitDx=0;exitDy=0;movable=1;resizable=1;rotatable=1;deletable=1;editable=1;connectable=1;" parent="Kl0J1u9g9vZQOBzPppIB-189" source="Kl0J1u9g9vZQOBzPppIB-110" target="Kl0J1u9g9vZQOBzPppIB-114" edge="1">
          <mxGeometry width="50" height="50" relative="1" as="geometry">
            <mxPoint x="154.99999999999272" y="297.5" as="sourcePoint" />
            <mxPoint x="230.00000000000728" y="243.5" as="targetPoint" />
          </mxGeometry>
        </mxCell>
        <mxCell id="Kl0J1u9g9vZQOBzPppIB-137" value="" style="endArrow=classic;html=1;rounded=0;strokeWidth=3;fontFamily=Times New Roman;fontSize=27;fontColor=#000000;exitX=1;exitY=0.5;exitDx=0;exitDy=0;entryX=0;entryY=0.5;entryDx=0;entryDy=0;movable=1;resizable=1;rotatable=1;deletable=1;editable=1;connectable=1;" parent="Kl0J1u9g9vZQOBzPppIB-189" source="Kl0J1u9g9vZQOBzPppIB-110" target="Kl0J1u9g9vZQOBzPppIB-115" edge="1">
          <mxGeometry width="50" height="50" relative="1" as="geometry">
            <mxPoint x="224.99999999999272" y="98.5" as="sourcePoint" />
            <mxPoint x="310.0000000000073" y="98.5" as="targetPoint" />
          </mxGeometry>
        </mxCell>
        <mxCell id="Kl0J1u9g9vZQOBzPppIB-138" value="" style="endArrow=classic;html=1;rounded=0;strokeWidth=3;fontFamily=Times New Roman;fontSize=27;fontColor=#000000;exitX=1;exitY=0.5;exitDx=0;exitDy=0;entryX=0;entryY=0.5;entryDx=0;entryDy=0;movable=1;resizable=1;rotatable=1;deletable=1;editable=1;connectable=1;" parent="Kl0J1u9g9vZQOBzPppIB-189" source="Kl0J1u9g9vZQOBzPppIB-110" target="Kl0J1u9g9vZQOBzPppIB-116" edge="1">
          <mxGeometry width="50" height="50" relative="1" as="geometry">
            <mxPoint x="234.99999999999272" y="108.5" as="sourcePoint" />
            <mxPoint x="320.0000000000073" y="108.5" as="targetPoint" />
          </mxGeometry>
        </mxCell>
        <mxCell id="Kl0J1u9g9vZQOBzPppIB-139" value="" style="endArrow=classic;html=1;rounded=0;strokeWidth=3;fontFamily=Times New Roman;fontSize=27;fontColor=#000000;exitX=1;exitY=0.5;exitDx=0;exitDy=0;entryX=0;entryY=0.5;entryDx=0;entryDy=0;movable=1;resizable=1;rotatable=1;deletable=1;editable=1;connectable=1;" parent="Kl0J1u9g9vZQOBzPppIB-189" source="Kl0J1u9g9vZQOBzPppIB-110" target="Kl0J1u9g9vZQOBzPppIB-117" edge="1">
          <mxGeometry width="50" height="50" relative="1" as="geometry">
            <mxPoint x="244.99999999999272" y="118.5" as="sourcePoint" />
            <mxPoint x="330.0000000000073" y="118.5" as="targetPoint" />
          </mxGeometry>
        </mxCell>
        <mxCell id="Kl0J1u9g9vZQOBzPppIB-140" value="" style="endArrow=classic;html=1;rounded=0;strokeWidth=3;fontFamily=Times New Roman;fontSize=27;fontColor=#000000;exitX=1;exitY=0.5;exitDx=0;exitDy=0;entryX=0;entryY=0.5;entryDx=0;entryDy=0;movable=1;resizable=1;rotatable=1;deletable=1;editable=1;connectable=1;" parent="Kl0J1u9g9vZQOBzPppIB-189" source="Kl0J1u9g9vZQOBzPppIB-111" target="Kl0J1u9g9vZQOBzPppIB-114" edge="1">
          <mxGeometry width="50" height="50" relative="1" as="geometry">
            <mxPoint x="254.99999999999272" y="128.5" as="sourcePoint" />
            <mxPoint x="340.0000000000073" y="128.5" as="targetPoint" />
          </mxGeometry>
        </mxCell>
        <mxCell id="Kl0J1u9g9vZQOBzPppIB-141" value="" style="endArrow=classic;html=1;rounded=0;strokeWidth=3;fontFamily=Times New Roman;fontSize=27;fontColor=#000000;exitX=1;exitY=0.5;exitDx=0;exitDy=0;entryX=0;entryY=0.5;entryDx=0;entryDy=0;movable=1;resizable=1;rotatable=1;deletable=1;editable=1;connectable=1;" parent="Kl0J1u9g9vZQOBzPppIB-189" source="Kl0J1u9g9vZQOBzPppIB-111" target="Kl0J1u9g9vZQOBzPppIB-116" edge="1">
          <mxGeometry width="50" height="50" relative="1" as="geometry">
            <mxPoint x="264.9999999999927" y="138.5" as="sourcePoint" />
            <mxPoint x="350.0000000000073" y="138.5" as="targetPoint" />
          </mxGeometry>
        </mxCell>
        <mxCell id="Kl0J1u9g9vZQOBzPppIB-142" value="" style="endArrow=classic;html=1;rounded=0;strokeWidth=3;fontFamily=Times New Roman;fontSize=27;fontColor=#000000;exitX=1;exitY=0.5;exitDx=0;exitDy=0;entryX=0;entryY=0.5;entryDx=0;entryDy=0;movable=1;resizable=1;rotatable=1;deletable=1;editable=1;connectable=1;" parent="Kl0J1u9g9vZQOBzPppIB-189" source="Kl0J1u9g9vZQOBzPppIB-111" target="Kl0J1u9g9vZQOBzPppIB-117" edge="1">
          <mxGeometry width="50" height="50" relative="1" as="geometry">
            <mxPoint x="274.9999999999927" y="148.5" as="sourcePoint" />
            <mxPoint x="360.0000000000073" y="148.5" as="targetPoint" />
          </mxGeometry>
        </mxCell>
        <mxCell id="Kl0J1u9g9vZQOBzPppIB-143" value="" style="endArrow=classic;html=1;rounded=0;strokeWidth=3;fontFamily=Times New Roman;fontSize=27;fontColor=#000000;exitX=1;exitY=0.5;exitDx=0;exitDy=0;entryX=0;entryY=0.5;entryDx=0;entryDy=0;movable=1;resizable=1;rotatable=1;deletable=1;editable=1;connectable=1;" parent="Kl0J1u9g9vZQOBzPppIB-189" source="Kl0J1u9g9vZQOBzPppIB-111" target="Kl0J1u9g9vZQOBzPppIB-115" edge="1">
          <mxGeometry width="50" height="50" relative="1" as="geometry">
            <mxPoint x="284.9999999999927" y="158.5" as="sourcePoint" />
            <mxPoint x="370.0000000000073" y="158.5" as="targetPoint" />
          </mxGeometry>
        </mxCell>
        <mxCell id="Kl0J1u9g9vZQOBzPppIB-144" value="" style="endArrow=classic;html=1;rounded=0;strokeWidth=3;fontFamily=Times New Roman;fontSize=27;fontColor=#000000;exitX=1;exitY=0.5;exitDx=0;exitDy=0;entryX=0;entryY=0.5;entryDx=0;entryDy=0;movable=1;resizable=1;rotatable=1;deletable=1;editable=1;connectable=1;" parent="Kl0J1u9g9vZQOBzPppIB-189" source="Kl0J1u9g9vZQOBzPppIB-112" target="Kl0J1u9g9vZQOBzPppIB-114" edge="1">
          <mxGeometry width="50" height="50" relative="1" as="geometry">
            <mxPoint x="224.99999999999272" y="183.5" as="sourcePoint" />
            <mxPoint x="310.0000000000073" y="407.5" as="targetPoint" />
          </mxGeometry>
        </mxCell>
        <mxCell id="Kl0J1u9g9vZQOBzPppIB-145" value="" style="endArrow=classic;html=1;rounded=0;strokeWidth=3;fontFamily=Times New Roman;fontSize=27;fontColor=#000000;exitX=1;exitY=0.5;exitDx=0;exitDy=0;entryX=0;entryY=0.5;entryDx=0;entryDy=0;movable=1;resizable=1;rotatable=1;deletable=1;editable=1;connectable=1;" parent="Kl0J1u9g9vZQOBzPppIB-189" source="Kl0J1u9g9vZQOBzPppIB-112" target="Kl0J1u9g9vZQOBzPppIB-115" edge="1">
          <mxGeometry width="50" height="50" relative="1" as="geometry">
            <mxPoint x="234.99999999999272" y="193.5" as="sourcePoint" />
            <mxPoint x="320.0000000000073" y="417.5" as="targetPoint" />
          </mxGeometry>
        </mxCell>
        <mxCell id="Kl0J1u9g9vZQOBzPppIB-146" value="" style="endArrow=classic;html=1;rounded=0;strokeWidth=3;fontFamily=Times New Roman;fontSize=27;fontColor=#000000;exitX=1;exitY=0.5;exitDx=0;exitDy=0;entryX=0;entryY=0.5;entryDx=0;entryDy=0;movable=1;resizable=1;rotatable=1;deletable=1;editable=1;connectable=1;" parent="Kl0J1u9g9vZQOBzPppIB-189" source="Kl0J1u9g9vZQOBzPppIB-112" target="Kl0J1u9g9vZQOBzPppIB-116" edge="1">
          <mxGeometry width="50" height="50" relative="1" as="geometry">
            <mxPoint x="224.99999999999272" y="318.5" as="sourcePoint" />
            <mxPoint x="310.0000000000073" y="183.5" as="targetPoint" />
          </mxGeometry>
        </mxCell>
        <mxCell id="Kl0J1u9g9vZQOBzPppIB-147" value="" style="endArrow=classic;html=1;rounded=0;strokeWidth=3;fontFamily=Times New Roman;fontSize=27;fontColor=#000000;entryX=0;entryY=0.5;entryDx=0;entryDy=0;exitX=1;exitY=0.5;exitDx=0;exitDy=0;movable=1;resizable=1;rotatable=1;deletable=1;editable=1;connectable=1;" parent="Kl0J1u9g9vZQOBzPppIB-189" source="Kl0J1u9g9vZQOBzPppIB-112" target="Kl0J1u9g9vZQOBzPppIB-117" edge="1">
          <mxGeometry width="50" height="50" relative="1" as="geometry">
            <mxPoint x="210" y="305" as="sourcePoint" />
            <mxPoint x="310.0000000000073" y="318.5" as="targetPoint" />
          </mxGeometry>
        </mxCell>
        <mxCell id="Kl0J1u9g9vZQOBzPppIB-148" value="" style="endArrow=classic;html=1;rounded=0;strokeWidth=3;fontFamily=Times New Roman;fontSize=27;fontColor=#000000;exitX=1;exitY=0.5;exitDx=0;exitDy=0;entryX=0;entryY=0.5;entryDx=0;entryDy=0;movable=1;resizable=1;rotatable=1;deletable=1;editable=1;connectable=1;" parent="Kl0J1u9g9vZQOBzPppIB-189" source="Kl0J1u9g9vZQOBzPppIB-112" target="Kl0J1u9g9vZQOBzPppIB-117" edge="1">
          <mxGeometry width="50" height="50" relative="1" as="geometry">
            <mxPoint x="219.99999999999272" y="337.02" as="sourcePoint" />
            <mxPoint x="305.0000000000073" y="337.02" as="targetPoint" />
          </mxGeometry>
        </mxCell>
        <mxCell id="Kl0J1u9g9vZQOBzPppIB-149" value="" style="endArrow=classic;html=1;rounded=0;strokeWidth=3;fontFamily=Times New Roman;fontSize=27;fontColor=#000000;exitX=1;exitY=0.5;exitDx=0;exitDy=0;entryX=0;entryY=0.5;entryDx=0;entryDy=0;movable=1;resizable=1;rotatable=1;deletable=1;editable=1;connectable=1;" parent="Kl0J1u9g9vZQOBzPppIB-189" source="Kl0J1u9g9vZQOBzPppIB-113" target="Kl0J1u9g9vZQOBzPppIB-114" edge="1">
          <mxGeometry width="50" height="50" relative="1" as="geometry">
            <mxPoint x="244.99999999999272" y="338.5" as="sourcePoint" />
            <mxPoint x="330.0000000000073" y="338.5" as="targetPoint" />
          </mxGeometry>
        </mxCell>
        <mxCell id="Kl0J1u9g9vZQOBzPppIB-150" value="" style="endArrow=classic;html=1;rounded=0;strokeWidth=3;fontFamily=Times New Roman;fontSize=27;fontColor=#000000;exitX=1;exitY=0.5;exitDx=0;exitDy=0;entryX=0;entryY=0.5;entryDx=0;entryDy=0;movable=1;resizable=1;rotatable=1;deletable=1;editable=1;connectable=1;" parent="Kl0J1u9g9vZQOBzPppIB-189" source="Kl0J1u9g9vZQOBzPppIB-113" target="Kl0J1u9g9vZQOBzPppIB-115" edge="1">
          <mxGeometry width="50" height="50" relative="1" as="geometry">
            <mxPoint x="254.99999999999272" y="348.5" as="sourcePoint" />
            <mxPoint x="340.0000000000073" y="348.5" as="targetPoint" />
          </mxGeometry>
        </mxCell>
        <mxCell id="Kl0J1u9g9vZQOBzPppIB-151" value="" style="endArrow=classic;html=1;rounded=0;strokeWidth=3;fontFamily=Times New Roman;fontSize=27;fontColor=#000000;exitX=1;exitY=0.5;exitDx=0;exitDy=0;entryX=0;entryY=0.5;entryDx=0;entryDy=0;movable=1;resizable=1;rotatable=1;deletable=1;editable=1;connectable=1;" parent="Kl0J1u9g9vZQOBzPppIB-189" source="Kl0J1u9g9vZQOBzPppIB-113" target="Kl0J1u9g9vZQOBzPppIB-116" edge="1">
          <mxGeometry width="50" height="50" relative="1" as="geometry">
            <mxPoint x="264.9999999999927" y="358.5" as="sourcePoint" />
            <mxPoint x="350.0000000000073" y="358.5" as="targetPoint" />
          </mxGeometry>
        </mxCell>
        <mxCell id="Kl0J1u9g9vZQOBzPppIB-152" value="" style="endArrow=classic;html=1;rounded=0;strokeWidth=3;fontFamily=Times New Roman;fontSize=27;fontColor=#000000;exitX=1;exitY=0.5;exitDx=0;exitDy=0;entryX=0;entryY=0.5;entryDx=0;entryDy=0;movable=1;resizable=1;rotatable=1;deletable=1;editable=1;connectable=1;" parent="Kl0J1u9g9vZQOBzPppIB-189" source="Kl0J1u9g9vZQOBzPppIB-113" target="Kl0J1u9g9vZQOBzPppIB-117" edge="1">
          <mxGeometry width="50" height="50" relative="1" as="geometry">
            <mxPoint x="274.9999999999927" y="368.5" as="sourcePoint" />
            <mxPoint x="360.0000000000073" y="368.5" as="targetPoint" />
          </mxGeometry>
        </mxCell>
        <mxCell id="Kl0J1u9g9vZQOBzPppIB-153" value="" style="endArrow=classic;html=1;rounded=0;strokeWidth=3;fontFamily=Times New Roman;fontSize=27;fontColor=#000000;exitX=1;exitY=0.5;exitDx=0;exitDy=0;entryX=0;entryY=0.5;entryDx=0;entryDy=0;movable=1;resizable=1;rotatable=1;deletable=1;editable=1;connectable=1;" parent="Kl0J1u9g9vZQOBzPppIB-189" source="Kl0J1u9g9vZQOBzPppIB-114" target="Kl0J1u9g9vZQOBzPppIB-118" edge="1">
          <mxGeometry width="50" height="50" relative="1" as="geometry">
            <mxPoint x="284.9999999999927" y="378.5" as="sourcePoint" />
            <mxPoint x="370.0000000000073" y="378.5" as="targetPoint" />
          </mxGeometry>
        </mxCell>
        <mxCell id="Kl0J1u9g9vZQOBzPppIB-154" value="" style="endArrow=classic;html=1;rounded=0;strokeWidth=3;fontFamily=Times New Roman;fontSize=27;fontColor=#000000;exitX=1;exitY=0.5;exitDx=0;exitDy=0;entryX=0;entryY=0.5;entryDx=0;entryDy=0;movable=1;resizable=1;rotatable=1;deletable=1;editable=1;connectable=1;" parent="Kl0J1u9g9vZQOBzPppIB-189" source="Kl0J1u9g9vZQOBzPppIB-114" target="Kl0J1u9g9vZQOBzPppIB-119" edge="1">
          <mxGeometry width="50" height="50" relative="1" as="geometry">
            <mxPoint x="364.9999999999927" y="98.5" as="sourcePoint" />
            <mxPoint x="439.9999999999841" y="152.5" as="targetPoint" />
          </mxGeometry>
        </mxCell>
        <mxCell id="Kl0J1u9g9vZQOBzPppIB-155" value="" style="endArrow=classic;html=1;rounded=0;strokeWidth=3;fontFamily=Times New Roman;fontSize=27;fontColor=#000000;exitX=1;exitY=0.5;exitDx=0;exitDy=0;entryX=0;entryY=0.5;entryDx=0;entryDy=0;movable=1;resizable=1;rotatable=1;deletable=1;editable=1;connectable=1;" parent="Kl0J1u9g9vZQOBzPppIB-189" source="Kl0J1u9g9vZQOBzPppIB-114" target="Kl0J1u9g9vZQOBzPppIB-120" edge="1">
          <mxGeometry width="50" height="50" relative="1" as="geometry">
            <mxPoint x="374.9999999999927" y="108.5" as="sourcePoint" />
            <mxPoint x="449.9999999999841" y="162.5" as="targetPoint" />
          </mxGeometry>
        </mxCell>
        <mxCell id="Kl0J1u9g9vZQOBzPppIB-156" value="" style="endArrow=classic;html=1;rounded=0;strokeWidth=3;fontFamily=Times New Roman;fontSize=27;fontColor=#000000;exitX=1;exitY=0.5;exitDx=0;exitDy=0;entryX=0;entryY=0.5;entryDx=0;entryDy=0;movable=1;resizable=1;rotatable=1;deletable=1;editable=1;connectable=1;" parent="Kl0J1u9g9vZQOBzPppIB-189" source="Kl0J1u9g9vZQOBzPppIB-115" target="Kl0J1u9g9vZQOBzPppIB-118" edge="1">
          <mxGeometry width="50" height="50" relative="1" as="geometry">
            <mxPoint x="384.9999999999927" y="118.5" as="sourcePoint" />
            <mxPoint x="459.9999999999841" y="172.5" as="targetPoint" />
          </mxGeometry>
        </mxCell>
        <mxCell id="Kl0J1u9g9vZQOBzPppIB-157" value="" style="endArrow=classic;html=1;rounded=0;strokeWidth=3;fontFamily=Times New Roman;fontSize=27;fontColor=#000000;exitX=1;exitY=0.5;exitDx=0;exitDy=0;entryX=0;entryY=0.5;entryDx=0;entryDy=0;movable=1;resizable=1;rotatable=1;deletable=1;editable=1;connectable=1;" parent="Kl0J1u9g9vZQOBzPppIB-189" source="Kl0J1u9g9vZQOBzPppIB-115" target="Kl0J1u9g9vZQOBzPppIB-119" edge="1">
          <mxGeometry width="50" height="50" relative="1" as="geometry">
            <mxPoint x="394.9999999999927" y="128.5" as="sourcePoint" />
            <mxPoint x="469.9999999999841" y="182.5" as="targetPoint" />
          </mxGeometry>
        </mxCell>
        <mxCell id="Kl0J1u9g9vZQOBzPppIB-158" value="" style="endArrow=classic;html=1;rounded=0;strokeWidth=3;fontFamily=Times New Roman;fontSize=27;fontColor=#000000;exitX=1;exitY=0.5;exitDx=0;exitDy=0;entryX=0;entryY=0.5;entryDx=0;entryDy=0;movable=1;resizable=1;rotatable=1;deletable=1;editable=1;connectable=1;" parent="Kl0J1u9g9vZQOBzPppIB-189" source="Kl0J1u9g9vZQOBzPppIB-115" target="Kl0J1u9g9vZQOBzPppIB-120" edge="1">
          <mxGeometry width="50" height="50" relative="1" as="geometry">
            <mxPoint x="404.9999999999927" y="138.5" as="sourcePoint" />
            <mxPoint x="479.9999999999841" y="192.5" as="targetPoint" />
          </mxGeometry>
        </mxCell>
        <mxCell id="Kl0J1u9g9vZQOBzPppIB-159" value="" style="endArrow=classic;html=1;rounded=0;strokeWidth=3;fontFamily=Times New Roman;fontSize=27;fontColor=#000000;exitX=1;exitY=0.5;exitDx=0;exitDy=0;entryX=0;entryY=0.5;entryDx=0;entryDy=0;movable=1;resizable=1;rotatable=1;deletable=1;editable=1;connectable=1;" parent="Kl0J1u9g9vZQOBzPppIB-189" source="Kl0J1u9g9vZQOBzPppIB-116" target="Kl0J1u9g9vZQOBzPppIB-118" edge="1">
          <mxGeometry width="50" height="50" relative="1" as="geometry">
            <mxPoint x="414.9999999999927" y="148.5" as="sourcePoint" />
            <mxPoint x="489.9999999999841" y="202.5" as="targetPoint" />
          </mxGeometry>
        </mxCell>
        <mxCell id="Kl0J1u9g9vZQOBzPppIB-160" value="" style="endArrow=classic;html=1;rounded=0;strokeWidth=3;fontFamily=Times New Roman;fontSize=27;fontColor=#000000;exitX=1;exitY=0.5;exitDx=0;exitDy=0;entryX=0;entryY=0.5;entryDx=0;entryDy=0;movable=1;resizable=1;rotatable=1;deletable=1;editable=1;connectable=1;" parent="Kl0J1u9g9vZQOBzPppIB-189" source="Kl0J1u9g9vZQOBzPppIB-116" target="Kl0J1u9g9vZQOBzPppIB-119" edge="1">
          <mxGeometry width="50" height="50" relative="1" as="geometry">
            <mxPoint x="364.9999999999927" y="318.5" as="sourcePoint" />
            <mxPoint x="439.9999999999841" y="152.5" as="targetPoint" />
          </mxGeometry>
        </mxCell>
        <mxCell id="Kl0J1u9g9vZQOBzPppIB-161" value="" style="endArrow=classic;html=1;rounded=0;strokeWidth=3;fontFamily=Times New Roman;fontSize=27;fontColor=#000000;exitX=1;exitY=0.5;exitDx=0;exitDy=0;entryX=0;entryY=0.5;entryDx=0;entryDy=0;movable=1;resizable=1;rotatable=1;deletable=1;editable=1;connectable=1;" parent="Kl0J1u9g9vZQOBzPppIB-189" source="Kl0J1u9g9vZQOBzPppIB-116" target="Kl0J1u9g9vZQOBzPppIB-120" edge="1">
          <mxGeometry width="50" height="50" relative="1" as="geometry">
            <mxPoint x="374.9999999999927" y="328.5" as="sourcePoint" />
            <mxPoint x="449.9999999999841" y="162.5" as="targetPoint" />
          </mxGeometry>
        </mxCell>
        <mxCell id="Kl0J1u9g9vZQOBzPppIB-162" value="" style="endArrow=classic;html=1;rounded=0;strokeWidth=3;fontFamily=Times New Roman;fontSize=27;fontColor=#000000;exitX=1;exitY=0.5;exitDx=0;exitDy=0;entryX=0;entryY=0.5;entryDx=0;entryDy=0;movable=1;resizable=1;rotatable=1;deletable=1;editable=1;connectable=1;" parent="Kl0J1u9g9vZQOBzPppIB-189" source="Kl0J1u9g9vZQOBzPppIB-117" target="Kl0J1u9g9vZQOBzPppIB-118" edge="1">
          <mxGeometry width="50" height="50" relative="1" as="geometry">
            <mxPoint x="364.9999999999927" y="318.5" as="sourcePoint" />
            <mxPoint x="439.9999999999841" y="347.5" as="targetPoint" />
          </mxGeometry>
        </mxCell>
        <mxCell id="Kl0J1u9g9vZQOBzPppIB-163" value="" style="endArrow=classic;html=1;rounded=0;strokeWidth=3;fontFamily=Times New Roman;fontSize=27;fontColor=#000000;exitX=1;exitY=0.5;exitDx=0;exitDy=0;entryX=0;entryY=0.5;entryDx=0;entryDy=0;movable=1;resizable=1;rotatable=1;deletable=1;editable=1;connectable=1;" parent="Kl0J1u9g9vZQOBzPppIB-189" source="Kl0J1u9g9vZQOBzPppIB-117" target="Kl0J1u9g9vZQOBzPppIB-119" edge="1">
          <mxGeometry width="50" height="50" relative="1" as="geometry">
            <mxPoint x="364.9999999999927" y="407.5" as="sourcePoint" />
            <mxPoint x="439.9999999999841" y="152.5" as="targetPoint" />
          </mxGeometry>
        </mxCell>
        <mxCell id="Kl0J1u9g9vZQOBzPppIB-164" value="" style="endArrow=classic;html=1;rounded=0;strokeWidth=3;fontFamily=Times New Roman;fontSize=27;fontColor=#000000;exitX=1;exitY=0.5;exitDx=0;exitDy=0;entryX=0;entryY=0.5;entryDx=0;entryDy=0;movable=1;resizable=1;rotatable=1;deletable=1;editable=1;connectable=1;" parent="Kl0J1u9g9vZQOBzPppIB-189" source="Kl0J1u9g9vZQOBzPppIB-117" target="Kl0J1u9g9vZQOBzPppIB-120" edge="1">
          <mxGeometry width="50" height="50" relative="1" as="geometry">
            <mxPoint x="364.9999999999927" y="407.5" as="sourcePoint" />
            <mxPoint x="439.9999999999841" y="237.5" as="targetPoint" />
          </mxGeometry>
        </mxCell>
        <mxCell id="Kl0J1u9g9vZQOBzPppIB-165" value="" style="endArrow=none;dashed=1;html=1;dashPattern=1 3;strokeWidth=2;rounded=0;fontFamily=Times New Roman;fontSize=27;fontColor=#000000;movable=1;resizable=1;rotatable=1;deletable=1;editable=1;connectable=1;" parent="Kl0J1u9g9vZQOBzPppIB-189" edge="1">
          <mxGeometry width="50" height="50" relative="1" as="geometry">
            <mxPoint x="380" y="446" as="sourcePoint" />
            <mxPoint x="380" y="46" as="targetPoint" />
          </mxGeometry>
        </mxCell>
        <mxCell id="Kl0J1u9g9vZQOBzPppIB-166" value="" style="endArrow=none;dashed=1;html=1;dashPattern=1 3;strokeWidth=2;rounded=0;fontFamily=Times New Roman;fontSize=27;fontColor=#000000;movable=1;resizable=1;rotatable=1;deletable=1;editable=1;connectable=1;" parent="Kl0J1u9g9vZQOBzPppIB-189" edge="1">
          <mxGeometry width="50" height="50" relative="1" as="geometry">
            <mxPoint x="420" y="438" as="sourcePoint" />
            <mxPoint x="420" y="38" as="targetPoint" />
          </mxGeometry>
        </mxCell>
        <mxCell id="Kl0J1u9g9vZQOBzPppIB-167" value="" style="shape=waypoint;sketch=0;fillStyle=solid;size=6;pointerEvents=1;points=[];fillColor=none;resizable=1;rotatable=1;perimeter=centerPerimeter;snapToPoint=1;shadow=1;glass=0;strokeWidth=1;fontFamily=Times New Roman;fontSize=27;fontColor=#000000;movable=1;deletable=1;editable=1;connectable=1;container=0;" parent="Kl0J1u9g9vZQOBzPppIB-189" vertex="1">
          <mxGeometry x="167.5" y="212" width="40" height="40" as="geometry" />
        </mxCell>
        <mxCell id="Kl0J1u9g9vZQOBzPppIB-168" value="" style="shape=waypoint;sketch=0;fillStyle=solid;size=6;pointerEvents=1;points=[];fillColor=none;resizable=1;rotatable=1;perimeter=centerPerimeter;snapToPoint=1;shadow=1;glass=0;strokeWidth=1;fontFamily=Times New Roman;fontSize=27;fontColor=#000000;movable=1;deletable=1;editable=1;connectable=1;container=0;" parent="Kl0J1u9g9vZQOBzPppIB-189" vertex="1">
          <mxGeometry x="167.5" y="222" width="40" height="40" as="geometry" />
        </mxCell>
        <mxCell id="Kl0J1u9g9vZQOBzPppIB-169" value="" style="shape=waypoint;sketch=0;fillStyle=solid;size=6;pointerEvents=1;points=[];fillColor=none;resizable=1;rotatable=1;perimeter=centerPerimeter;snapToPoint=1;shadow=1;glass=0;strokeWidth=1;fontFamily=Times New Roman;fontSize=27;fontColor=#000000;movable=1;deletable=1;editable=1;connectable=1;container=0;" parent="Kl0J1u9g9vZQOBzPppIB-189" vertex="1">
          <mxGeometry x="167.5" y="234" width="40" height="40" as="geometry" />
        </mxCell>
        <mxCell id="Kl0J1u9g9vZQOBzPppIB-170" value="" style="shape=waypoint;sketch=0;fillStyle=solid;size=6;pointerEvents=1;points=[];fillColor=none;resizable=1;rotatable=1;perimeter=centerPerimeter;snapToPoint=1;shadow=1;glass=0;strokeWidth=1;fontFamily=Times New Roman;fontSize=27;fontColor=#000000;movable=1;deletable=1;editable=1;connectable=1;container=0;" parent="Kl0J1u9g9vZQOBzPppIB-189" vertex="1">
          <mxGeometry x="307.5" y="211" width="40" height="40" as="geometry" />
        </mxCell>
        <mxCell id="Kl0J1u9g9vZQOBzPppIB-171" value="" style="shape=waypoint;sketch=0;fillStyle=solid;size=6;pointerEvents=1;points=[];fillColor=none;resizable=1;rotatable=1;perimeter=centerPerimeter;snapToPoint=1;shadow=1;glass=0;strokeWidth=1;fontFamily=Times New Roman;fontSize=27;fontColor=#000000;movable=1;deletable=1;editable=1;connectable=1;container=0;" parent="Kl0J1u9g9vZQOBzPppIB-189" vertex="1">
          <mxGeometry x="307.5" y="221" width="40" height="40" as="geometry" />
        </mxCell>
        <mxCell id="Kl0J1u9g9vZQOBzPppIB-172" value="" style="shape=waypoint;sketch=0;fillStyle=solid;size=6;pointerEvents=1;points=[];fillColor=none;resizable=1;rotatable=1;perimeter=centerPerimeter;snapToPoint=1;shadow=1;glass=0;strokeWidth=1;fontFamily=Times New Roman;fontSize=27;fontColor=#000000;movable=1;deletable=1;editable=1;connectable=1;container=0;" parent="Kl0J1u9g9vZQOBzPppIB-189" vertex="1">
          <mxGeometry x="307.5" y="233" width="40" height="40" as="geometry" />
        </mxCell>
        <mxCell id="Kl0J1u9g9vZQOBzPppIB-190" value="" style="group" parent="1" vertex="1" connectable="0">
          <mxGeometry x="1910" y="185" width="520" height="446" as="geometry" />
        </mxCell>
        <mxCell id="Kl0J1u9g9vZQOBzPppIB-191" value="" style="rounded=0;whiteSpace=wrap;html=1;shadow=1;glass=0;sketch=0;strokeWidth=1;fontFamily=Times New Roman;fontSize=16;fontColor=#000000;movable=1;resizable=1;rotatable=1;deletable=1;editable=1;connectable=1;container=0;" parent="Kl0J1u9g9vZQOBzPppIB-190" vertex="1">
          <mxGeometry y="6" width="520" height="439" as="geometry" />
        </mxCell>
        <mxCell id="Kl0J1u9g9vZQOBzPppIB-192" value="" style="endArrow=classic;html=1;rounded=0;strokeWidth=3;fontFamily=Times New Roman;fontSize=27;fontColor=#000000;entryX=0;entryY=0.5;entryDx=0;entryDy=0;movable=1;resizable=1;rotatable=1;deletable=1;editable=1;connectable=1;" parent="Kl0J1u9g9vZQOBzPppIB-190" target="Kl0J1u9g9vZQOBzPppIB-214" edge="1">
          <mxGeometry width="50" height="50" relative="1" as="geometry">
            <mxPoint x="90" y="145" as="sourcePoint" />
            <mxPoint x="173.63587550311195" y="112.16578069479942" as="targetPoint" />
          </mxGeometry>
        </mxCell>
        <mxCell id="Kl0J1u9g9vZQOBzPppIB-193" value="" style="endArrow=classic;html=1;rounded=0;strokeWidth=3;fontFamily=Times New Roman;fontSize=27;fontColor=#000000;entryX=0;entryY=0.5;entryDx=0;entryDy=0;movable=1;resizable=1;rotatable=1;deletable=1;editable=1;connectable=1;" parent="Kl0J1u9g9vZQOBzPppIB-190" target="Kl0J1u9g9vZQOBzPppIB-212" edge="1">
          <mxGeometry width="50" height="50" relative="1" as="geometry">
            <mxPoint x="90" y="145" as="sourcePoint" />
            <mxPoint x="173.63587550311195" y="112.16578069479942" as="targetPoint" />
          </mxGeometry>
        </mxCell>
        <mxCell id="Kl0J1u9g9vZQOBzPppIB-194" value="" style="endArrow=classic;html=1;rounded=0;strokeWidth=3;fontFamily=Times New Roman;fontSize=27;fontColor=#000000;entryX=0;entryY=0.5;entryDx=0;entryDy=0;movable=1;resizable=1;rotatable=1;deletable=1;editable=1;connectable=1;" parent="Kl0J1u9g9vZQOBzPppIB-190" target="Kl0J1u9g9vZQOBzPppIB-213" edge="1">
          <mxGeometry width="50" height="50" relative="1" as="geometry">
            <mxPoint x="90" y="145" as="sourcePoint" />
            <mxPoint x="170" y="98.5" as="targetPoint" />
          </mxGeometry>
        </mxCell>
        <mxCell id="Kl0J1u9g9vZQOBzPppIB-195" value="" style="endArrow=none;dashed=1;html=1;dashPattern=1 3;strokeWidth=2;rounded=0;fontFamily=Times New Roman;fontSize=27;fontColor=#000000;movable=1;resizable=1;rotatable=1;deletable=1;editable=1;connectable=1;" parent="Kl0J1u9g9vZQOBzPppIB-190" edge="1">
          <mxGeometry width="50" height="50" relative="1" as="geometry">
            <mxPoint x="20" y="439" as="sourcePoint" />
            <mxPoint x="20" y="39" as="targetPoint" />
          </mxGeometry>
        </mxCell>
        <mxCell id="Kl0J1u9g9vZQOBzPppIB-196" value="" style="endArrow=none;dashed=1;html=1;dashPattern=1 3;strokeWidth=2;rounded=0;fontFamily=Times New Roman;fontSize=27;fontColor=#000000;movable=1;resizable=1;rotatable=1;deletable=1;editable=1;connectable=1;" parent="Kl0J1u9g9vZQOBzPppIB-190" edge="1">
          <mxGeometry width="50" height="50" relative="1" as="geometry">
            <mxPoint x="24.5" y="444" as="sourcePoint" />
            <mxPoint x="104.5" y="444" as="targetPoint" />
          </mxGeometry>
        </mxCell>
        <mxCell id="Kl0J1u9g9vZQOBzPppIB-197" value="" style="endArrow=none;dashed=1;html=1;dashPattern=1 3;strokeWidth=2;rounded=0;fontFamily=Times New Roman;fontSize=27;fontColor=#000000;movable=1;resizable=1;rotatable=1;deletable=1;editable=1;connectable=1;" parent="Kl0J1u9g9vZQOBzPppIB-190" edge="1">
          <mxGeometry width="50" height="50" relative="1" as="geometry">
            <mxPoint x="100" y="446" as="sourcePoint" />
            <mxPoint x="100" y="45" as="targetPoint" />
          </mxGeometry>
        </mxCell>
        <mxCell id="Kl0J1u9g9vZQOBzPppIB-198" value="" style="endArrow=none;dashed=1;html=1;dashPattern=1 3;strokeWidth=2;rounded=0;fontFamily=Times New Roman;fontSize=22;fontColor=#000000;movable=1;resizable=1;rotatable=1;deletable=1;editable=1;connectable=1;" parent="Kl0J1u9g9vZQOBzPppIB-190" edge="1">
          <mxGeometry width="50" height="50" relative="1" as="geometry">
            <mxPoint x="26" y="45" as="sourcePoint" />
            <mxPoint x="106" y="45" as="targetPoint" />
          </mxGeometry>
        </mxCell>
        <mxCell id="Kl0J1u9g9vZQOBzPppIB-199" value="&lt;font style=&quot;font-size: 30px;&quot;&gt;Input&lt;/font&gt;" style="text;html=1;align=center;verticalAlign=middle;resizable=1;points=[];autosize=1;strokeColor=none;fillColor=none;fontSize=20;fontFamily=Times New Roman;fontColor=#000000;shadow=1;glass=0;sketch=0;strokeWidth=1;movable=1;rotatable=1;deletable=1;editable=1;connectable=1;container=0;" parent="Kl0J1u9g9vZQOBzPppIB-190" vertex="1">
          <mxGeometry x="15" width="90" height="50" as="geometry" />
        </mxCell>
        <mxCell id="Kl0J1u9g9vZQOBzPppIB-200" value="" style="endArrow=none;dashed=1;html=1;dashPattern=1 3;strokeWidth=2;rounded=0;fontFamily=Times New Roman;fontSize=27;fontColor=#000000;movable=1;resizable=1;rotatable=1;deletable=1;editable=1;connectable=1;" parent="Kl0J1u9g9vZQOBzPppIB-190" edge="1">
          <mxGeometry width="50" height="50" relative="1" as="geometry">
            <mxPoint x="140" y="445" as="sourcePoint" />
            <mxPoint x="140" y="45" as="targetPoint" />
          </mxGeometry>
        </mxCell>
        <mxCell id="Kl0J1u9g9vZQOBzPppIB-201" value="" style="endArrow=none;dashed=1;html=1;dashPattern=1 3;strokeWidth=2;rounded=0;fontFamily=Times New Roman;fontSize=27;fontColor=#000000;movable=1;resizable=1;rotatable=1;deletable=1;editable=1;connectable=1;" parent="Kl0J1u9g9vZQOBzPppIB-190" edge="1">
          <mxGeometry width="50" height="50" relative="1" as="geometry">
            <mxPoint x="104.5" y="445" as="sourcePoint" />
            <mxPoint x="345.5" y="445" as="targetPoint" />
          </mxGeometry>
        </mxCell>
        <mxCell id="Kl0J1u9g9vZQOBzPppIB-202" value="" style="endArrow=none;dashed=1;html=1;dashPattern=1 3;strokeWidth=2;rounded=0;fontFamily=Times New Roman;fontSize=27;fontColor=#000000;movable=1;resizable=1;rotatable=1;deletable=1;editable=1;connectable=1;" parent="Kl0J1u9g9vZQOBzPppIB-190" edge="1">
          <mxGeometry width="50" height="50" relative="1" as="geometry">
            <mxPoint x="139" y="45" as="sourcePoint" />
            <mxPoint x="380" y="45" as="targetPoint" />
          </mxGeometry>
        </mxCell>
        <mxCell id="Kl0J1u9g9vZQOBzPppIB-203" value="&lt;font style=&quot;font-size: 30px;&quot;&gt;Hidden&lt;/font&gt;" style="text;html=1;align=center;verticalAlign=middle;resizable=1;points=[];autosize=1;strokeColor=none;fillColor=none;fontSize=20;fontFamily=Times New Roman;fontColor=#000000;shadow=1;glass=0;sketch=0;strokeWidth=1;movable=1;rotatable=1;deletable=1;editable=1;connectable=1;container=0;" parent="Kl0J1u9g9vZQOBzPppIB-190" vertex="1">
          <mxGeometry x="205" y="5" width="110" height="40" as="geometry" />
        </mxCell>
        <mxCell id="Kl0J1u9g9vZQOBzPppIB-204" value="" style="endArrow=none;dashed=1;html=1;dashPattern=1 3;strokeWidth=2;rounded=0;fontFamily=Times New Roman;fontSize=27;fontColor=#000000;movable=1;resizable=1;rotatable=1;deletable=1;editable=1;connectable=1;" parent="Kl0J1u9g9vZQOBzPppIB-190" edge="1">
          <mxGeometry width="50" height="50" relative="1" as="geometry">
            <mxPoint x="500" y="445" as="sourcePoint" />
            <mxPoint x="500" y="45" as="targetPoint" />
          </mxGeometry>
        </mxCell>
        <mxCell id="Kl0J1u9g9vZQOBzPppIB-205" value="" style="endArrow=none;dashed=1;html=1;dashPattern=1 3;strokeWidth=2;rounded=0;fontFamily=Times New Roman;fontSize=27;fontColor=#000000;movable=1;resizable=1;rotatable=1;deletable=1;editable=1;connectable=1;" parent="Kl0J1u9g9vZQOBzPppIB-190" edge="1">
          <mxGeometry width="50" height="50" relative="1" as="geometry">
            <mxPoint x="384.5" y="445" as="sourcePoint" />
            <mxPoint x="464.5" y="445" as="targetPoint" />
          </mxGeometry>
        </mxCell>
        <mxCell id="Kl0J1u9g9vZQOBzPppIB-206" value="" style="endArrow=none;dashed=1;html=1;dashPattern=1 3;strokeWidth=2;rounded=0;fontFamily=Times New Roman;fontSize=27;fontColor=#000000;movable=1;resizable=1;rotatable=1;deletable=1;editable=1;connectable=1;" parent="Kl0J1u9g9vZQOBzPppIB-190" edge="1">
          <mxGeometry width="50" height="50" relative="1" as="geometry">
            <mxPoint x="427" y="45" as="sourcePoint" />
            <mxPoint x="507" y="45" as="targetPoint" />
          </mxGeometry>
        </mxCell>
        <mxCell id="Kl0J1u9g9vZQOBzPppIB-207" value="&lt;font style=&quot;font-size: 30px;&quot;&gt;Output&lt;/font&gt;" style="text;html=1;align=center;verticalAlign=middle;resizable=1;points=[];autosize=1;strokeColor=none;fillColor=none;fontSize=20;fontFamily=Times New Roman;fontColor=#000000;shadow=1;glass=0;sketch=0;strokeWidth=1;movable=1;rotatable=1;deletable=1;editable=1;connectable=1;container=0;" parent="Kl0J1u9g9vZQOBzPppIB-190" vertex="1">
          <mxGeometry x="405" width="110" height="50" as="geometry" />
        </mxCell>
        <mxCell id="Kl0J1u9g9vZQOBzPppIB-208" value="" style="ellipse;whiteSpace=wrap;html=1;aspect=fixed;shadow=1;glass=0;sketch=0;strokeWidth=1;fontFamily=Times New Roman;fontSize=27;fillColor=#d5e8d4;strokeColor=#82b366;gradientColor=#97d077;movable=1;resizable=1;rotatable=1;deletable=1;editable=1;connectable=1;container=0;" parent="Kl0J1u9g9vZQOBzPppIB-190" vertex="1">
          <mxGeometry x="30" y="115" width="55" height="55" as="geometry" />
        </mxCell>
        <mxCell id="Kl0J1u9g9vZQOBzPppIB-209" value="" style="ellipse;whiteSpace=wrap;html=1;aspect=fixed;shadow=1;glass=0;sketch=0;strokeWidth=1;fontFamily=Times New Roman;fontSize=27;fillColor=#d5e8d4;strokeColor=#82b366;gradientColor=#97d077;movable=1;resizable=1;rotatable=1;deletable=1;editable=1;connectable=1;container=0;" parent="Kl0J1u9g9vZQOBzPppIB-190" vertex="1">
          <mxGeometry x="30" y="200" width="55" height="55" as="geometry" />
        </mxCell>
        <mxCell id="Kl0J1u9g9vZQOBzPppIB-210" value="" style="ellipse;whiteSpace=wrap;html=1;aspect=fixed;shadow=1;glass=0;sketch=0;strokeWidth=1;fontFamily=Times New Roman;fontSize=27;fillColor=#d5e8d4;strokeColor=#82b366;gradientColor=#97d077;movable=1;resizable=1;rotatable=1;deletable=1;editable=1;connectable=1;container=0;" parent="Kl0J1u9g9vZQOBzPppIB-190" vertex="1">
          <mxGeometry x="30" y="310" width="55" height="55" as="geometry" />
        </mxCell>
        <mxCell id="Kl0J1u9g9vZQOBzPppIB-211" value="" style="ellipse;whiteSpace=wrap;html=1;aspect=fixed;shadow=1;glass=0;sketch=0;strokeWidth=1;fontFamily=Times New Roman;fontSize=27;fillColor=#fff2cc;strokeColor=#d6b656;gradientColor=#ffd966;movable=1;resizable=1;rotatable=1;deletable=1;editable=1;connectable=1;container=0;" parent="Kl0J1u9g9vZQOBzPppIB-190" vertex="1">
          <mxGeometry x="160" y="61" width="55" height="55" as="geometry" />
        </mxCell>
        <mxCell id="Kl0J1u9g9vZQOBzPppIB-212" value="" style="ellipse;whiteSpace=wrap;html=1;aspect=fixed;shadow=1;glass=0;sketch=0;strokeWidth=1;fontFamily=Times New Roman;fontSize=27;fillColor=#fff2cc;strokeColor=#d6b656;gradientColor=#ffd966;movable=1;resizable=1;rotatable=1;deletable=1;editable=1;connectable=1;container=0;" parent="Kl0J1u9g9vZQOBzPppIB-190" vertex="1">
          <mxGeometry x="160" y="146" width="55" height="55" as="geometry" />
        </mxCell>
        <mxCell id="Kl0J1u9g9vZQOBzPppIB-213" value="" style="ellipse;whiteSpace=wrap;html=1;aspect=fixed;shadow=1;glass=0;sketch=0;strokeWidth=1;fontFamily=Times New Roman;fontSize=27;fillColor=#fff2cc;strokeColor=#d6b656;gradientColor=#ffd966;movable=1;resizable=1;rotatable=1;deletable=1;editable=1;connectable=1;container=0;" parent="Kl0J1u9g9vZQOBzPppIB-190" vertex="1">
          <mxGeometry x="160" y="281" width="55" height="55" as="geometry" />
        </mxCell>
        <mxCell id="Kl0J1u9g9vZQOBzPppIB-214" value="" style="ellipse;whiteSpace=wrap;html=1;aspect=fixed;shadow=1;glass=0;sketch=0;strokeWidth=1;fontFamily=Times New Roman;fontSize=27;fillColor=#fff2cc;strokeColor=#d6b656;gradientColor=#ffd966;movable=1;resizable=1;rotatable=1;deletable=1;editable=1;connectable=1;container=0;" parent="Kl0J1u9g9vZQOBzPppIB-190" vertex="1">
          <mxGeometry x="160" y="370" width="55" height="55" as="geometry" />
        </mxCell>
        <mxCell id="Kl0J1u9g9vZQOBzPppIB-215" value="" style="ellipse;whiteSpace=wrap;html=1;aspect=fixed;shadow=1;glass=0;sketch=0;strokeWidth=1;fontFamily=Times New Roman;fontSize=27;fillColor=#fff2cc;strokeColor=#d6b656;gradientColor=#ffd966;movable=1;resizable=1;rotatable=1;deletable=1;editable=1;connectable=1;container=0;" parent="Kl0J1u9g9vZQOBzPppIB-190" vertex="1">
          <mxGeometry x="300" y="61" width="55" height="55" as="geometry" />
        </mxCell>
        <mxCell id="Kl0J1u9g9vZQOBzPppIB-216" value="" style="ellipse;whiteSpace=wrap;html=1;aspect=fixed;shadow=1;glass=0;sketch=0;strokeWidth=1;fontFamily=Times New Roman;fontSize=27;fillColor=#fff2cc;strokeColor=#d6b656;gradientColor=#ffd966;movable=1;resizable=1;rotatable=1;deletable=1;editable=1;connectable=1;container=0;" parent="Kl0J1u9g9vZQOBzPppIB-190" vertex="1">
          <mxGeometry x="300" y="146" width="55" height="55" as="geometry" />
        </mxCell>
        <mxCell id="Kl0J1u9g9vZQOBzPppIB-217" value="" style="ellipse;whiteSpace=wrap;html=1;aspect=fixed;shadow=1;glass=0;sketch=0;strokeWidth=1;fontFamily=Times New Roman;fontSize=27;fillColor=#fff2cc;strokeColor=#d6b656;gradientColor=#ffd966;movable=1;resizable=1;rotatable=1;deletable=1;editable=1;connectable=1;container=0;" parent="Kl0J1u9g9vZQOBzPppIB-190" vertex="1">
          <mxGeometry x="300" y="281" width="55" height="55" as="geometry" />
        </mxCell>
        <mxCell id="Kl0J1u9g9vZQOBzPppIB-218" value="" style="ellipse;whiteSpace=wrap;html=1;aspect=fixed;shadow=1;glass=0;sketch=0;strokeWidth=1;fontFamily=Times New Roman;fontSize=27;fillColor=#fff2cc;strokeColor=#d6b656;gradientColor=#ffd966;movable=1;resizable=1;rotatable=1;deletable=1;editable=1;connectable=1;container=0;" parent="Kl0J1u9g9vZQOBzPppIB-190" vertex="1">
          <mxGeometry x="300" y="370" width="55" height="55" as="geometry" />
        </mxCell>
        <mxCell id="Kl0J1u9g9vZQOBzPppIB-219" value="" style="ellipse;whiteSpace=wrap;html=1;aspect=fixed;shadow=1;glass=0;sketch=0;strokeWidth=1;fontFamily=Times New Roman;fontSize=27;fillColor=#dae8fc;strokeColor=#6c8ebf;gradientColor=#7ea6e0;movable=1;resizable=1;rotatable=1;deletable=1;editable=1;connectable=1;container=0;" parent="Kl0J1u9g9vZQOBzPppIB-190" vertex="1">
          <mxGeometry x="430" y="115" width="55" height="55" as="geometry" />
        </mxCell>
        <mxCell id="Kl0J1u9g9vZQOBzPppIB-220" value="" style="ellipse;whiteSpace=wrap;html=1;aspect=fixed;shadow=1;glass=0;sketch=0;strokeWidth=1;fontFamily=Times New Roman;fontSize=27;fillColor=#dae8fc;strokeColor=#6c8ebf;gradientColor=#7ea6e0;movable=1;resizable=1;rotatable=1;deletable=1;editable=1;connectable=1;container=0;" parent="Kl0J1u9g9vZQOBzPppIB-190" vertex="1">
          <mxGeometry x="430" y="200" width="55" height="55" as="geometry" />
        </mxCell>
        <mxCell id="Kl0J1u9g9vZQOBzPppIB-221" value="" style="ellipse;whiteSpace=wrap;html=1;aspect=fixed;shadow=1;glass=0;sketch=0;strokeWidth=1;fontFamily=Times New Roman;fontSize=27;fillColor=#dae8fc;strokeColor=#6c8ebf;gradientColor=#7ea6e0;movable=1;resizable=1;rotatable=1;deletable=1;editable=1;connectable=1;container=0;" parent="Kl0J1u9g9vZQOBzPppIB-190" vertex="1">
          <mxGeometry x="430" y="310" width="55" height="55" as="geometry" />
        </mxCell>
        <mxCell id="Kl0J1u9g9vZQOBzPppIB-222" value="" style="endArrow=classic;html=1;rounded=0;strokeWidth=3;fontFamily=Times New Roman;fontSize=27;fontColor=#000000;entryX=0;entryY=0.5;entryDx=0;entryDy=0;movable=1;resizable=1;rotatable=1;deletable=1;editable=1;connectable=1;" parent="Kl0J1u9g9vZQOBzPppIB-190" target="Kl0J1u9g9vZQOBzPppIB-211" edge="1">
          <mxGeometry width="50" height="50" relative="1" as="geometry">
            <mxPoint x="90" y="145" as="sourcePoint" />
            <mxPoint x="140" y="85" as="targetPoint" />
          </mxGeometry>
        </mxCell>
        <mxCell id="Kl0J1u9g9vZQOBzPppIB-223" value="" style="shape=waypoint;sketch=0;fillStyle=solid;size=6;pointerEvents=1;points=[];fillColor=none;resizable=1;rotatable=1;perimeter=centerPerimeter;snapToPoint=1;shadow=1;glass=0;strokeWidth=1;fontFamily=Times New Roman;fontSize=27;fontColor=#000000;movable=1;deletable=1;editable=1;connectable=1;container=0;" parent="Kl0J1u9g9vZQOBzPppIB-190" vertex="1">
          <mxGeometry x="37.5" y="255" width="40" height="40" as="geometry" />
        </mxCell>
        <mxCell id="Kl0J1u9g9vZQOBzPppIB-224" value="" style="shape=waypoint;sketch=0;fillStyle=solid;size=6;pointerEvents=1;points=[];fillColor=none;resizable=1;rotatable=1;perimeter=centerPerimeter;snapToPoint=1;shadow=1;glass=0;strokeWidth=1;fontFamily=Times New Roman;fontSize=27;fontColor=#000000;movable=1;deletable=1;editable=1;connectable=1;container=0;" parent="Kl0J1u9g9vZQOBzPppIB-190" vertex="1">
          <mxGeometry x="37.5" y="265" width="40" height="40" as="geometry" />
        </mxCell>
        <mxCell id="Kl0J1u9g9vZQOBzPppIB-225" value="" style="shape=waypoint;sketch=0;fillStyle=solid;size=6;pointerEvents=1;points=[];fillColor=none;resizable=1;rotatable=1;perimeter=centerPerimeter;snapToPoint=1;shadow=1;glass=0;strokeWidth=1;fontFamily=Times New Roman;fontSize=27;fontColor=#000000;movable=1;deletable=1;editable=1;connectable=1;container=0;" parent="Kl0J1u9g9vZQOBzPppIB-190" vertex="1">
          <mxGeometry x="37.5" y="277" width="40" height="40" as="geometry" />
        </mxCell>
        <mxCell id="Kl0J1u9g9vZQOBzPppIB-226" value="" style="shape=waypoint;sketch=0;fillStyle=solid;size=6;pointerEvents=1;points=[];fillColor=none;resizable=1;rotatable=1;perimeter=centerPerimeter;snapToPoint=1;shadow=1;glass=0;strokeWidth=1;fontFamily=Times New Roman;fontSize=27;fontColor=#000000;movable=1;deletable=1;editable=1;connectable=1;container=0;" parent="Kl0J1u9g9vZQOBzPppIB-190" vertex="1">
          <mxGeometry x="437.5" y="255" width="40" height="40" as="geometry" />
        </mxCell>
        <mxCell id="Kl0J1u9g9vZQOBzPppIB-227" value="" style="shape=waypoint;sketch=0;fillStyle=solid;size=6;pointerEvents=1;points=[];fillColor=none;resizable=1;rotatable=1;perimeter=centerPerimeter;snapToPoint=1;shadow=1;glass=0;strokeWidth=1;fontFamily=Times New Roman;fontSize=27;fontColor=#000000;movable=1;deletable=1;editable=1;connectable=1;container=0;" parent="Kl0J1u9g9vZQOBzPppIB-190" vertex="1">
          <mxGeometry x="437.5" y="266" width="40" height="40" as="geometry" />
        </mxCell>
        <mxCell id="Kl0J1u9g9vZQOBzPppIB-228" value="" style="shape=waypoint;sketch=0;fillStyle=solid;size=6;pointerEvents=1;points=[];fillColor=none;resizable=1;rotatable=1;perimeter=centerPerimeter;snapToPoint=1;shadow=1;glass=0;strokeWidth=1;fontFamily=Times New Roman;fontSize=27;fontColor=#000000;movable=1;deletable=1;editable=1;connectable=1;container=0;" parent="Kl0J1u9g9vZQOBzPppIB-190" vertex="1">
          <mxGeometry x="437.5" y="277" width="40" height="40" as="geometry" />
        </mxCell>
        <mxCell id="Kl0J1u9g9vZQOBzPppIB-229" value="" style="endArrow=classic;html=1;rounded=0;strokeWidth=3;fontFamily=Times New Roman;fontSize=27;fontColor=#000000;entryX=0;entryY=0.5;entryDx=0;entryDy=0;exitX=1;exitY=0.5;exitDx=0;exitDy=0;movable=1;resizable=1;rotatable=1;deletable=1;editable=1;connectable=1;" parent="Kl0J1u9g9vZQOBzPppIB-190" source="Kl0J1u9g9vZQOBzPppIB-209" target="Kl0J1u9g9vZQOBzPppIB-211" edge="1">
          <mxGeometry width="50" height="50" relative="1" as="geometry">
            <mxPoint x="100" y="155" as="sourcePoint" />
            <mxPoint x="170.00000000000728" y="98.5" as="targetPoint" />
          </mxGeometry>
        </mxCell>
        <mxCell id="Kl0J1u9g9vZQOBzPppIB-230" value="" style="endArrow=classic;html=1;rounded=0;strokeWidth=3;fontFamily=Times New Roman;fontSize=27;fontColor=#000000;entryX=0;entryY=0.5;entryDx=0;entryDy=0;exitX=1;exitY=0.5;exitDx=0;exitDy=0;movable=1;resizable=1;rotatable=1;deletable=1;editable=1;connectable=1;" parent="Kl0J1u9g9vZQOBzPppIB-190" source="Kl0J1u9g9vZQOBzPppIB-209" target="Kl0J1u9g9vZQOBzPppIB-212" edge="1">
          <mxGeometry width="50" height="50" relative="1" as="geometry">
            <mxPoint x="110" y="165" as="sourcePoint" />
            <mxPoint x="180.00000000000728" y="108.5" as="targetPoint" />
          </mxGeometry>
        </mxCell>
        <mxCell id="Kl0J1u9g9vZQOBzPppIB-231" value="" style="endArrow=classic;html=1;rounded=0;strokeWidth=3;fontFamily=Times New Roman;fontSize=27;fontColor=#000000;entryX=0;entryY=0.5;entryDx=0;entryDy=0;exitX=1;exitY=0.5;exitDx=0;exitDy=0;movable=1;resizable=1;rotatable=1;deletable=1;editable=1;connectable=1;" parent="Kl0J1u9g9vZQOBzPppIB-190" source="Kl0J1u9g9vZQOBzPppIB-209" target="Kl0J1u9g9vZQOBzPppIB-213" edge="1">
          <mxGeometry width="50" height="50" relative="1" as="geometry">
            <mxPoint x="94.99999999999272" y="237.5" as="sourcePoint" />
            <mxPoint x="170.00000000000728" y="183.5" as="targetPoint" />
          </mxGeometry>
        </mxCell>
        <mxCell id="Kl0J1u9g9vZQOBzPppIB-232" value="" style="endArrow=classic;html=1;rounded=0;strokeWidth=3;fontFamily=Times New Roman;fontSize=27;fontColor=#000000;entryX=0;entryY=0.5;entryDx=0;entryDy=0;exitX=1;exitY=0.5;exitDx=0;exitDy=0;movable=1;resizable=1;rotatable=1;deletable=1;editable=1;connectable=1;" parent="Kl0J1u9g9vZQOBzPppIB-190" source="Kl0J1u9g9vZQOBzPppIB-209" target="Kl0J1u9g9vZQOBzPppIB-214" edge="1">
          <mxGeometry width="50" height="50" relative="1" as="geometry">
            <mxPoint x="104.99999999999272" y="247.5" as="sourcePoint" />
            <mxPoint x="180.00000000000728" y="193.5" as="targetPoint" />
          </mxGeometry>
        </mxCell>
        <mxCell id="Kl0J1u9g9vZQOBzPppIB-233" value="" style="endArrow=classic;html=1;rounded=0;strokeWidth=3;fontFamily=Times New Roman;fontSize=27;fontColor=#000000;entryX=0;entryY=0.5;entryDx=0;entryDy=0;exitX=1;exitY=0.5;exitDx=0;exitDy=0;movable=1;resizable=1;rotatable=1;deletable=1;editable=1;connectable=1;" parent="Kl0J1u9g9vZQOBzPppIB-190" source="Kl0J1u9g9vZQOBzPppIB-210" target="Kl0J1u9g9vZQOBzPppIB-211" edge="1">
          <mxGeometry width="50" height="50" relative="1" as="geometry">
            <mxPoint x="114.99999999999272" y="257.5" as="sourcePoint" />
            <mxPoint x="190.00000000000728" y="203.5" as="targetPoint" />
          </mxGeometry>
        </mxCell>
        <mxCell id="Kl0J1u9g9vZQOBzPppIB-234" value="" style="endArrow=classic;html=1;rounded=0;strokeWidth=3;fontFamily=Times New Roman;fontSize=27;fontColor=#000000;entryX=0;entryY=0.5;entryDx=0;entryDy=0;exitX=1;exitY=0.5;exitDx=0;exitDy=0;movable=1;resizable=1;rotatable=1;deletable=1;editable=1;connectable=1;" parent="Kl0J1u9g9vZQOBzPppIB-190" source="Kl0J1u9g9vZQOBzPppIB-210" target="Kl0J1u9g9vZQOBzPppIB-212" edge="1">
          <mxGeometry width="50" height="50" relative="1" as="geometry">
            <mxPoint x="124.99999999999272" y="267.5" as="sourcePoint" />
            <mxPoint x="200.00000000000728" y="213.5" as="targetPoint" />
          </mxGeometry>
        </mxCell>
        <mxCell id="Kl0J1u9g9vZQOBzPppIB-235" value="" style="endArrow=classic;html=1;rounded=0;strokeWidth=3;fontFamily=Times New Roman;fontSize=27;fontColor=#000000;entryX=0;entryY=0.5;entryDx=0;entryDy=0;exitX=1;exitY=0.5;exitDx=0;exitDy=0;movable=1;resizable=1;rotatable=1;deletable=1;editable=1;connectable=1;" parent="Kl0J1u9g9vZQOBzPppIB-190" source="Kl0J1u9g9vZQOBzPppIB-210" target="Kl0J1u9g9vZQOBzPppIB-213" edge="1">
          <mxGeometry width="50" height="50" relative="1" as="geometry">
            <mxPoint x="134.99999999999272" y="277.5" as="sourcePoint" />
            <mxPoint x="210.00000000000728" y="223.5" as="targetPoint" />
          </mxGeometry>
        </mxCell>
        <mxCell id="Kl0J1u9g9vZQOBzPppIB-236" value="" style="endArrow=classic;html=1;rounded=0;strokeWidth=3;fontFamily=Times New Roman;fontSize=27;fontColor=#000000;entryX=0;entryY=0.5;entryDx=0;entryDy=0;exitX=1;exitY=0.5;exitDx=0;exitDy=0;movable=1;resizable=1;rotatable=1;deletable=1;editable=1;connectable=1;" parent="Kl0J1u9g9vZQOBzPppIB-190" source="Kl0J1u9g9vZQOBzPppIB-210" target="Kl0J1u9g9vZQOBzPppIB-214" edge="1">
          <mxGeometry width="50" height="50" relative="1" as="geometry">
            <mxPoint x="144.99999999999272" y="287.5" as="sourcePoint" />
            <mxPoint x="220.00000000000728" y="233.5" as="targetPoint" />
          </mxGeometry>
        </mxCell>
        <mxCell id="Kl0J1u9g9vZQOBzPppIB-237" value="" style="endArrow=classic;html=1;rounded=0;strokeWidth=3;fontFamily=Times New Roman;fontSize=27;fontColor=#000000;exitX=1;exitY=0.5;exitDx=0;exitDy=0;movable=1;resizable=1;rotatable=1;deletable=1;editable=1;connectable=1;" parent="Kl0J1u9g9vZQOBzPppIB-190" source="Kl0J1u9g9vZQOBzPppIB-211" target="Kl0J1u9g9vZQOBzPppIB-215" edge="1">
          <mxGeometry width="50" height="50" relative="1" as="geometry">
            <mxPoint x="154.99999999999272" y="297.5" as="sourcePoint" />
            <mxPoint x="230.00000000000728" y="243.5" as="targetPoint" />
          </mxGeometry>
        </mxCell>
        <mxCell id="Kl0J1u9g9vZQOBzPppIB-238" value="" style="endArrow=classic;html=1;rounded=0;strokeWidth=3;fontFamily=Times New Roman;fontSize=27;fontColor=#000000;exitX=1;exitY=0.5;exitDx=0;exitDy=0;entryX=0;entryY=0.5;entryDx=0;entryDy=0;movable=1;resizable=1;rotatable=1;deletable=1;editable=1;connectable=1;" parent="Kl0J1u9g9vZQOBzPppIB-190" source="Kl0J1u9g9vZQOBzPppIB-211" target="Kl0J1u9g9vZQOBzPppIB-216" edge="1">
          <mxGeometry width="50" height="50" relative="1" as="geometry">
            <mxPoint x="224.99999999999272" y="98.5" as="sourcePoint" />
            <mxPoint x="310.0000000000073" y="98.5" as="targetPoint" />
          </mxGeometry>
        </mxCell>
        <mxCell id="Kl0J1u9g9vZQOBzPppIB-239" value="" style="endArrow=classic;html=1;rounded=0;strokeWidth=3;fontFamily=Times New Roman;fontSize=27;fontColor=#000000;exitX=1;exitY=0.5;exitDx=0;exitDy=0;entryX=0;entryY=0.5;entryDx=0;entryDy=0;movable=1;resizable=1;rotatable=1;deletable=1;editable=1;connectable=1;" parent="Kl0J1u9g9vZQOBzPppIB-190" source="Kl0J1u9g9vZQOBzPppIB-211" target="Kl0J1u9g9vZQOBzPppIB-217" edge="1">
          <mxGeometry width="50" height="50" relative="1" as="geometry">
            <mxPoint x="234.99999999999272" y="108.5" as="sourcePoint" />
            <mxPoint x="320.0000000000073" y="108.5" as="targetPoint" />
          </mxGeometry>
        </mxCell>
        <mxCell id="Kl0J1u9g9vZQOBzPppIB-240" value="" style="endArrow=classic;html=1;rounded=0;strokeWidth=3;fontFamily=Times New Roman;fontSize=27;fontColor=#000000;exitX=1;exitY=0.5;exitDx=0;exitDy=0;entryX=0;entryY=0.5;entryDx=0;entryDy=0;movable=1;resizable=1;rotatable=1;deletable=1;editable=1;connectable=1;" parent="Kl0J1u9g9vZQOBzPppIB-190" source="Kl0J1u9g9vZQOBzPppIB-211" target="Kl0J1u9g9vZQOBzPppIB-218" edge="1">
          <mxGeometry width="50" height="50" relative="1" as="geometry">
            <mxPoint x="244.99999999999272" y="118.5" as="sourcePoint" />
            <mxPoint x="330.0000000000073" y="118.5" as="targetPoint" />
          </mxGeometry>
        </mxCell>
        <mxCell id="Kl0J1u9g9vZQOBzPppIB-241" value="" style="endArrow=classic;html=1;rounded=0;strokeWidth=3;fontFamily=Times New Roman;fontSize=27;fontColor=#000000;exitX=1;exitY=0.5;exitDx=0;exitDy=0;entryX=0;entryY=0.5;entryDx=0;entryDy=0;movable=1;resizable=1;rotatable=1;deletable=1;editable=1;connectable=1;" parent="Kl0J1u9g9vZQOBzPppIB-190" source="Kl0J1u9g9vZQOBzPppIB-212" target="Kl0J1u9g9vZQOBzPppIB-215" edge="1">
          <mxGeometry width="50" height="50" relative="1" as="geometry">
            <mxPoint x="254.99999999999272" y="128.5" as="sourcePoint" />
            <mxPoint x="340.0000000000073" y="128.5" as="targetPoint" />
          </mxGeometry>
        </mxCell>
        <mxCell id="Kl0J1u9g9vZQOBzPppIB-242" value="" style="endArrow=classic;html=1;rounded=0;strokeWidth=3;fontFamily=Times New Roman;fontSize=27;fontColor=#000000;exitX=1;exitY=0.5;exitDx=0;exitDy=0;entryX=0;entryY=0.5;entryDx=0;entryDy=0;movable=1;resizable=1;rotatable=1;deletable=1;editable=1;connectable=1;" parent="Kl0J1u9g9vZQOBzPppIB-190" source="Kl0J1u9g9vZQOBzPppIB-212" target="Kl0J1u9g9vZQOBzPppIB-217" edge="1">
          <mxGeometry width="50" height="50" relative="1" as="geometry">
            <mxPoint x="264.9999999999927" y="138.5" as="sourcePoint" />
            <mxPoint x="350.0000000000073" y="138.5" as="targetPoint" />
          </mxGeometry>
        </mxCell>
        <mxCell id="Kl0J1u9g9vZQOBzPppIB-243" value="" style="endArrow=classic;html=1;rounded=0;strokeWidth=3;fontFamily=Times New Roman;fontSize=27;fontColor=#000000;exitX=1;exitY=0.5;exitDx=0;exitDy=0;entryX=0;entryY=0.5;entryDx=0;entryDy=0;movable=1;resizable=1;rotatable=1;deletable=1;editable=1;connectable=1;" parent="Kl0J1u9g9vZQOBzPppIB-190" source="Kl0J1u9g9vZQOBzPppIB-212" target="Kl0J1u9g9vZQOBzPppIB-218" edge="1">
          <mxGeometry width="50" height="50" relative="1" as="geometry">
            <mxPoint x="274.9999999999927" y="148.5" as="sourcePoint" />
            <mxPoint x="360.0000000000073" y="148.5" as="targetPoint" />
          </mxGeometry>
        </mxCell>
        <mxCell id="Kl0J1u9g9vZQOBzPppIB-244" value="" style="endArrow=classic;html=1;rounded=0;strokeWidth=3;fontFamily=Times New Roman;fontSize=27;fontColor=#000000;exitX=1;exitY=0.5;exitDx=0;exitDy=0;entryX=0;entryY=0.5;entryDx=0;entryDy=0;movable=1;resizable=1;rotatable=1;deletable=1;editable=1;connectable=1;" parent="Kl0J1u9g9vZQOBzPppIB-190" source="Kl0J1u9g9vZQOBzPppIB-212" target="Kl0J1u9g9vZQOBzPppIB-216" edge="1">
          <mxGeometry width="50" height="50" relative="1" as="geometry">
            <mxPoint x="284.9999999999927" y="158.5" as="sourcePoint" />
            <mxPoint x="370.0000000000073" y="158.5" as="targetPoint" />
          </mxGeometry>
        </mxCell>
        <mxCell id="Kl0J1u9g9vZQOBzPppIB-245" value="" style="endArrow=classic;html=1;rounded=0;strokeWidth=3;fontFamily=Times New Roman;fontSize=27;fontColor=#000000;exitX=1;exitY=0.5;exitDx=0;exitDy=0;entryX=0;entryY=0.5;entryDx=0;entryDy=0;movable=1;resizable=1;rotatable=1;deletable=1;editable=1;connectable=1;" parent="Kl0J1u9g9vZQOBzPppIB-190" source="Kl0J1u9g9vZQOBzPppIB-213" target="Kl0J1u9g9vZQOBzPppIB-215" edge="1">
          <mxGeometry width="50" height="50" relative="1" as="geometry">
            <mxPoint x="224.99999999999272" y="183.5" as="sourcePoint" />
            <mxPoint x="310.0000000000073" y="407.5" as="targetPoint" />
          </mxGeometry>
        </mxCell>
        <mxCell id="Kl0J1u9g9vZQOBzPppIB-246" value="" style="endArrow=classic;html=1;rounded=0;strokeWidth=3;fontFamily=Times New Roman;fontSize=27;fontColor=#000000;exitX=1;exitY=0.5;exitDx=0;exitDy=0;entryX=0;entryY=0.5;entryDx=0;entryDy=0;movable=1;resizable=1;rotatable=1;deletable=1;editable=1;connectable=1;" parent="Kl0J1u9g9vZQOBzPppIB-190" source="Kl0J1u9g9vZQOBzPppIB-213" target="Kl0J1u9g9vZQOBzPppIB-216" edge="1">
          <mxGeometry width="50" height="50" relative="1" as="geometry">
            <mxPoint x="234.99999999999272" y="193.5" as="sourcePoint" />
            <mxPoint x="320.0000000000073" y="417.5" as="targetPoint" />
          </mxGeometry>
        </mxCell>
        <mxCell id="Kl0J1u9g9vZQOBzPppIB-247" value="" style="endArrow=classic;html=1;rounded=0;strokeWidth=3;fontFamily=Times New Roman;fontSize=27;fontColor=#000000;exitX=1;exitY=0.5;exitDx=0;exitDy=0;entryX=0;entryY=0.5;entryDx=0;entryDy=0;movable=1;resizable=1;rotatable=1;deletable=1;editable=1;connectable=1;" parent="Kl0J1u9g9vZQOBzPppIB-190" source="Kl0J1u9g9vZQOBzPppIB-213" target="Kl0J1u9g9vZQOBzPppIB-217" edge="1">
          <mxGeometry width="50" height="50" relative="1" as="geometry">
            <mxPoint x="224.99999999999272" y="318.5" as="sourcePoint" />
            <mxPoint x="310.0000000000073" y="183.5" as="targetPoint" />
          </mxGeometry>
        </mxCell>
        <mxCell id="Kl0J1u9g9vZQOBzPppIB-248" value="" style="endArrow=classic;html=1;rounded=0;strokeWidth=3;fontFamily=Times New Roman;fontSize=27;fontColor=#000000;entryX=0;entryY=0.5;entryDx=0;entryDy=0;exitX=1;exitY=0.5;exitDx=0;exitDy=0;movable=1;resizable=1;rotatable=1;deletable=1;editable=1;connectable=1;" parent="Kl0J1u9g9vZQOBzPppIB-190" source="Kl0J1u9g9vZQOBzPppIB-213" target="Kl0J1u9g9vZQOBzPppIB-218" edge="1">
          <mxGeometry width="50" height="50" relative="1" as="geometry">
            <mxPoint x="210" y="305" as="sourcePoint" />
            <mxPoint x="310.0000000000073" y="318.5" as="targetPoint" />
          </mxGeometry>
        </mxCell>
        <mxCell id="Kl0J1u9g9vZQOBzPppIB-249" value="" style="endArrow=classic;html=1;rounded=0;strokeWidth=3;fontFamily=Times New Roman;fontSize=27;fontColor=#000000;exitX=1;exitY=0.5;exitDx=0;exitDy=0;entryX=0;entryY=0.5;entryDx=0;entryDy=0;movable=1;resizable=1;rotatable=1;deletable=1;editable=1;connectable=1;" parent="Kl0J1u9g9vZQOBzPppIB-190" source="Kl0J1u9g9vZQOBzPppIB-213" target="Kl0J1u9g9vZQOBzPppIB-218" edge="1">
          <mxGeometry width="50" height="50" relative="1" as="geometry">
            <mxPoint x="219.99999999999272" y="337.02" as="sourcePoint" />
            <mxPoint x="305.0000000000073" y="337.02" as="targetPoint" />
          </mxGeometry>
        </mxCell>
        <mxCell id="Kl0J1u9g9vZQOBzPppIB-250" value="" style="endArrow=classic;html=1;rounded=0;strokeWidth=3;fontFamily=Times New Roman;fontSize=27;fontColor=#000000;exitX=1;exitY=0.5;exitDx=0;exitDy=0;entryX=0;entryY=0.5;entryDx=0;entryDy=0;movable=1;resizable=1;rotatable=1;deletable=1;editable=1;connectable=1;" parent="Kl0J1u9g9vZQOBzPppIB-190" source="Kl0J1u9g9vZQOBzPppIB-214" target="Kl0J1u9g9vZQOBzPppIB-215" edge="1">
          <mxGeometry width="50" height="50" relative="1" as="geometry">
            <mxPoint x="244.99999999999272" y="338.5" as="sourcePoint" />
            <mxPoint x="330.0000000000073" y="338.5" as="targetPoint" />
          </mxGeometry>
        </mxCell>
        <mxCell id="Kl0J1u9g9vZQOBzPppIB-251" value="" style="endArrow=classic;html=1;rounded=0;strokeWidth=3;fontFamily=Times New Roman;fontSize=27;fontColor=#000000;exitX=1;exitY=0.5;exitDx=0;exitDy=0;entryX=0;entryY=0.5;entryDx=0;entryDy=0;movable=1;resizable=1;rotatable=1;deletable=1;editable=1;connectable=1;" parent="Kl0J1u9g9vZQOBzPppIB-190" source="Kl0J1u9g9vZQOBzPppIB-214" target="Kl0J1u9g9vZQOBzPppIB-216" edge="1">
          <mxGeometry width="50" height="50" relative="1" as="geometry">
            <mxPoint x="254.99999999999272" y="348.5" as="sourcePoint" />
            <mxPoint x="340.0000000000073" y="348.5" as="targetPoint" />
          </mxGeometry>
        </mxCell>
        <mxCell id="Kl0J1u9g9vZQOBzPppIB-252" value="" style="endArrow=classic;html=1;rounded=0;strokeWidth=3;fontFamily=Times New Roman;fontSize=27;fontColor=#000000;exitX=1;exitY=0.5;exitDx=0;exitDy=0;entryX=0;entryY=0.5;entryDx=0;entryDy=0;movable=1;resizable=1;rotatable=1;deletable=1;editable=1;connectable=1;" parent="Kl0J1u9g9vZQOBzPppIB-190" source="Kl0J1u9g9vZQOBzPppIB-214" target="Kl0J1u9g9vZQOBzPppIB-217" edge="1">
          <mxGeometry width="50" height="50" relative="1" as="geometry">
            <mxPoint x="264.9999999999927" y="358.5" as="sourcePoint" />
            <mxPoint x="350.0000000000073" y="358.5" as="targetPoint" />
          </mxGeometry>
        </mxCell>
        <mxCell id="Kl0J1u9g9vZQOBzPppIB-253" value="" style="endArrow=classic;html=1;rounded=0;strokeWidth=3;fontFamily=Times New Roman;fontSize=27;fontColor=#000000;exitX=1;exitY=0.5;exitDx=0;exitDy=0;entryX=0;entryY=0.5;entryDx=0;entryDy=0;movable=1;resizable=1;rotatable=1;deletable=1;editable=1;connectable=1;" parent="Kl0J1u9g9vZQOBzPppIB-190" source="Kl0J1u9g9vZQOBzPppIB-214" target="Kl0J1u9g9vZQOBzPppIB-218" edge="1">
          <mxGeometry width="50" height="50" relative="1" as="geometry">
            <mxPoint x="274.9999999999927" y="368.5" as="sourcePoint" />
            <mxPoint x="360.0000000000073" y="368.5" as="targetPoint" />
          </mxGeometry>
        </mxCell>
        <mxCell id="Kl0J1u9g9vZQOBzPppIB-254" value="" style="endArrow=classic;html=1;rounded=0;strokeWidth=3;fontFamily=Times New Roman;fontSize=27;fontColor=#000000;exitX=1;exitY=0.5;exitDx=0;exitDy=0;entryX=0;entryY=0.5;entryDx=0;entryDy=0;movable=1;resizable=1;rotatable=1;deletable=1;editable=1;connectable=1;" parent="Kl0J1u9g9vZQOBzPppIB-190" source="Kl0J1u9g9vZQOBzPppIB-215" target="Kl0J1u9g9vZQOBzPppIB-219" edge="1">
          <mxGeometry width="50" height="50" relative="1" as="geometry">
            <mxPoint x="284.9999999999927" y="378.5" as="sourcePoint" />
            <mxPoint x="370.0000000000073" y="378.5" as="targetPoint" />
          </mxGeometry>
        </mxCell>
        <mxCell id="Kl0J1u9g9vZQOBzPppIB-255" value="" style="endArrow=classic;html=1;rounded=0;strokeWidth=3;fontFamily=Times New Roman;fontSize=27;fontColor=#000000;exitX=1;exitY=0.5;exitDx=0;exitDy=0;entryX=0;entryY=0.5;entryDx=0;entryDy=0;movable=1;resizable=1;rotatable=1;deletable=1;editable=1;connectable=1;" parent="Kl0J1u9g9vZQOBzPppIB-190" source="Kl0J1u9g9vZQOBzPppIB-215" target="Kl0J1u9g9vZQOBzPppIB-220" edge="1">
          <mxGeometry width="50" height="50" relative="1" as="geometry">
            <mxPoint x="364.9999999999927" y="98.5" as="sourcePoint" />
            <mxPoint x="439.9999999999841" y="152.5" as="targetPoint" />
          </mxGeometry>
        </mxCell>
        <mxCell id="Kl0J1u9g9vZQOBzPppIB-256" value="" style="endArrow=classic;html=1;rounded=0;strokeWidth=3;fontFamily=Times New Roman;fontSize=27;fontColor=#000000;exitX=1;exitY=0.5;exitDx=0;exitDy=0;entryX=0;entryY=0.5;entryDx=0;entryDy=0;movable=1;resizable=1;rotatable=1;deletable=1;editable=1;connectable=1;" parent="Kl0J1u9g9vZQOBzPppIB-190" source="Kl0J1u9g9vZQOBzPppIB-215" target="Kl0J1u9g9vZQOBzPppIB-221" edge="1">
          <mxGeometry width="50" height="50" relative="1" as="geometry">
            <mxPoint x="374.9999999999927" y="108.5" as="sourcePoint" />
            <mxPoint x="449.9999999999841" y="162.5" as="targetPoint" />
          </mxGeometry>
        </mxCell>
        <mxCell id="Kl0J1u9g9vZQOBzPppIB-257" value="" style="endArrow=classic;html=1;rounded=0;strokeWidth=3;fontFamily=Times New Roman;fontSize=27;fontColor=#000000;exitX=1;exitY=0.5;exitDx=0;exitDy=0;entryX=0;entryY=0.5;entryDx=0;entryDy=0;movable=1;resizable=1;rotatable=1;deletable=1;editable=1;connectable=1;" parent="Kl0J1u9g9vZQOBzPppIB-190" source="Kl0J1u9g9vZQOBzPppIB-216" target="Kl0J1u9g9vZQOBzPppIB-219" edge="1">
          <mxGeometry width="50" height="50" relative="1" as="geometry">
            <mxPoint x="384.9999999999927" y="118.5" as="sourcePoint" />
            <mxPoint x="459.9999999999841" y="172.5" as="targetPoint" />
          </mxGeometry>
        </mxCell>
        <mxCell id="Kl0J1u9g9vZQOBzPppIB-258" value="" style="endArrow=classic;html=1;rounded=0;strokeWidth=3;fontFamily=Times New Roman;fontSize=27;fontColor=#000000;exitX=1;exitY=0.5;exitDx=0;exitDy=0;entryX=0;entryY=0.5;entryDx=0;entryDy=0;movable=1;resizable=1;rotatable=1;deletable=1;editable=1;connectable=1;" parent="Kl0J1u9g9vZQOBzPppIB-190" source="Kl0J1u9g9vZQOBzPppIB-216" target="Kl0J1u9g9vZQOBzPppIB-220" edge="1">
          <mxGeometry width="50" height="50" relative="1" as="geometry">
            <mxPoint x="394.9999999999927" y="128.5" as="sourcePoint" />
            <mxPoint x="469.9999999999841" y="182.5" as="targetPoint" />
          </mxGeometry>
        </mxCell>
        <mxCell id="Kl0J1u9g9vZQOBzPppIB-259" value="" style="endArrow=classic;html=1;rounded=0;strokeWidth=3;fontFamily=Times New Roman;fontSize=27;fontColor=#000000;exitX=1;exitY=0.5;exitDx=0;exitDy=0;entryX=0;entryY=0.5;entryDx=0;entryDy=0;movable=1;resizable=1;rotatable=1;deletable=1;editable=1;connectable=1;" parent="Kl0J1u9g9vZQOBzPppIB-190" source="Kl0J1u9g9vZQOBzPppIB-216" target="Kl0J1u9g9vZQOBzPppIB-221" edge="1">
          <mxGeometry width="50" height="50" relative="1" as="geometry">
            <mxPoint x="404.9999999999927" y="138.5" as="sourcePoint" />
            <mxPoint x="479.9999999999841" y="192.5" as="targetPoint" />
          </mxGeometry>
        </mxCell>
        <mxCell id="Kl0J1u9g9vZQOBzPppIB-260" value="" style="endArrow=classic;html=1;rounded=0;strokeWidth=3;fontFamily=Times New Roman;fontSize=27;fontColor=#000000;exitX=1;exitY=0.5;exitDx=0;exitDy=0;entryX=0;entryY=0.5;entryDx=0;entryDy=0;movable=1;resizable=1;rotatable=1;deletable=1;editable=1;connectable=1;" parent="Kl0J1u9g9vZQOBzPppIB-190" source="Kl0J1u9g9vZQOBzPppIB-217" target="Kl0J1u9g9vZQOBzPppIB-219" edge="1">
          <mxGeometry width="50" height="50" relative="1" as="geometry">
            <mxPoint x="414.9999999999927" y="148.5" as="sourcePoint" />
            <mxPoint x="489.9999999999841" y="202.5" as="targetPoint" />
          </mxGeometry>
        </mxCell>
        <mxCell id="Kl0J1u9g9vZQOBzPppIB-261" value="" style="endArrow=classic;html=1;rounded=0;strokeWidth=3;fontFamily=Times New Roman;fontSize=27;fontColor=#000000;exitX=1;exitY=0.5;exitDx=0;exitDy=0;entryX=0;entryY=0.5;entryDx=0;entryDy=0;movable=1;resizable=1;rotatable=1;deletable=1;editable=1;connectable=1;" parent="Kl0J1u9g9vZQOBzPppIB-190" source="Kl0J1u9g9vZQOBzPppIB-217" target="Kl0J1u9g9vZQOBzPppIB-220" edge="1">
          <mxGeometry width="50" height="50" relative="1" as="geometry">
            <mxPoint x="364.9999999999927" y="318.5" as="sourcePoint" />
            <mxPoint x="439.9999999999841" y="152.5" as="targetPoint" />
          </mxGeometry>
        </mxCell>
        <mxCell id="Kl0J1u9g9vZQOBzPppIB-262" value="" style="endArrow=classic;html=1;rounded=0;strokeWidth=3;fontFamily=Times New Roman;fontSize=27;fontColor=#000000;exitX=1;exitY=0.5;exitDx=0;exitDy=0;entryX=0;entryY=0.5;entryDx=0;entryDy=0;movable=1;resizable=1;rotatable=1;deletable=1;editable=1;connectable=1;" parent="Kl0J1u9g9vZQOBzPppIB-190" source="Kl0J1u9g9vZQOBzPppIB-217" target="Kl0J1u9g9vZQOBzPppIB-221" edge="1">
          <mxGeometry width="50" height="50" relative="1" as="geometry">
            <mxPoint x="374.9999999999927" y="328.5" as="sourcePoint" />
            <mxPoint x="449.9999999999841" y="162.5" as="targetPoint" />
          </mxGeometry>
        </mxCell>
        <mxCell id="Kl0J1u9g9vZQOBzPppIB-263" value="" style="endArrow=classic;html=1;rounded=0;strokeWidth=3;fontFamily=Times New Roman;fontSize=27;fontColor=#000000;exitX=1;exitY=0.5;exitDx=0;exitDy=0;entryX=0;entryY=0.5;entryDx=0;entryDy=0;movable=1;resizable=1;rotatable=1;deletable=1;editable=1;connectable=1;" parent="Kl0J1u9g9vZQOBzPppIB-190" source="Kl0J1u9g9vZQOBzPppIB-218" target="Kl0J1u9g9vZQOBzPppIB-219" edge="1">
          <mxGeometry width="50" height="50" relative="1" as="geometry">
            <mxPoint x="364.9999999999927" y="318.5" as="sourcePoint" />
            <mxPoint x="439.9999999999841" y="347.5" as="targetPoint" />
          </mxGeometry>
        </mxCell>
        <mxCell id="Kl0J1u9g9vZQOBzPppIB-264" value="" style="endArrow=classic;html=1;rounded=0;strokeWidth=3;fontFamily=Times New Roman;fontSize=27;fontColor=#000000;exitX=1;exitY=0.5;exitDx=0;exitDy=0;entryX=0;entryY=0.5;entryDx=0;entryDy=0;movable=1;resizable=1;rotatable=1;deletable=1;editable=1;connectable=1;" parent="Kl0J1u9g9vZQOBzPppIB-190" source="Kl0J1u9g9vZQOBzPppIB-218" target="Kl0J1u9g9vZQOBzPppIB-220" edge="1">
          <mxGeometry width="50" height="50" relative="1" as="geometry">
            <mxPoint x="364.9999999999927" y="407.5" as="sourcePoint" />
            <mxPoint x="439.9999999999841" y="152.5" as="targetPoint" />
          </mxGeometry>
        </mxCell>
        <mxCell id="Kl0J1u9g9vZQOBzPppIB-265" value="" style="endArrow=classic;html=1;rounded=0;strokeWidth=3;fontFamily=Times New Roman;fontSize=27;fontColor=#000000;exitX=1;exitY=0.5;exitDx=0;exitDy=0;entryX=0;entryY=0.5;entryDx=0;entryDy=0;movable=1;resizable=1;rotatable=1;deletable=1;editable=1;connectable=1;" parent="Kl0J1u9g9vZQOBzPppIB-190" source="Kl0J1u9g9vZQOBzPppIB-218" target="Kl0J1u9g9vZQOBzPppIB-221" edge="1">
          <mxGeometry width="50" height="50" relative="1" as="geometry">
            <mxPoint x="364.9999999999927" y="407.5" as="sourcePoint" />
            <mxPoint x="439.9999999999841" y="237.5" as="targetPoint" />
          </mxGeometry>
        </mxCell>
        <mxCell id="Kl0J1u9g9vZQOBzPppIB-266" value="" style="endArrow=none;dashed=1;html=1;dashPattern=1 3;strokeWidth=2;rounded=0;fontFamily=Times New Roman;fontSize=27;fontColor=#000000;movable=1;resizable=1;rotatable=1;deletable=1;editable=1;connectable=1;" parent="Kl0J1u9g9vZQOBzPppIB-190" edge="1">
          <mxGeometry width="50" height="50" relative="1" as="geometry">
            <mxPoint x="380" y="446" as="sourcePoint" />
            <mxPoint x="380" y="46" as="targetPoint" />
          </mxGeometry>
        </mxCell>
        <mxCell id="Kl0J1u9g9vZQOBzPppIB-267" value="" style="endArrow=none;dashed=1;html=1;dashPattern=1 3;strokeWidth=2;rounded=0;fontFamily=Times New Roman;fontSize=27;fontColor=#000000;movable=1;resizable=1;rotatable=1;deletable=1;editable=1;connectable=1;" parent="Kl0J1u9g9vZQOBzPppIB-190" edge="1">
          <mxGeometry width="50" height="50" relative="1" as="geometry">
            <mxPoint x="420" y="438" as="sourcePoint" />
            <mxPoint x="420" y="38" as="targetPoint" />
          </mxGeometry>
        </mxCell>
        <mxCell id="Kl0J1u9g9vZQOBzPppIB-268" value="" style="shape=waypoint;sketch=0;fillStyle=solid;size=6;pointerEvents=1;points=[];fillColor=none;resizable=1;rotatable=1;perimeter=centerPerimeter;snapToPoint=1;shadow=1;glass=0;strokeWidth=1;fontFamily=Times New Roman;fontSize=27;fontColor=#000000;movable=1;deletable=1;editable=1;connectable=1;container=0;" parent="Kl0J1u9g9vZQOBzPppIB-190" vertex="1">
          <mxGeometry x="167.5" y="212" width="40" height="40" as="geometry" />
        </mxCell>
        <mxCell id="Kl0J1u9g9vZQOBzPppIB-269" value="" style="shape=waypoint;sketch=0;fillStyle=solid;size=6;pointerEvents=1;points=[];fillColor=none;resizable=1;rotatable=1;perimeter=centerPerimeter;snapToPoint=1;shadow=1;glass=0;strokeWidth=1;fontFamily=Times New Roman;fontSize=27;fontColor=#000000;movable=1;deletable=1;editable=1;connectable=1;container=0;" parent="Kl0J1u9g9vZQOBzPppIB-190" vertex="1">
          <mxGeometry x="167.5" y="222" width="40" height="40" as="geometry" />
        </mxCell>
        <mxCell id="Kl0J1u9g9vZQOBzPppIB-270" value="" style="shape=waypoint;sketch=0;fillStyle=solid;size=6;pointerEvents=1;points=[];fillColor=none;resizable=1;rotatable=1;perimeter=centerPerimeter;snapToPoint=1;shadow=1;glass=0;strokeWidth=1;fontFamily=Times New Roman;fontSize=27;fontColor=#000000;movable=1;deletable=1;editable=1;connectable=1;container=0;" parent="Kl0J1u9g9vZQOBzPppIB-190" vertex="1">
          <mxGeometry x="167.5" y="234" width="40" height="40" as="geometry" />
        </mxCell>
        <mxCell id="Kl0J1u9g9vZQOBzPppIB-271" value="" style="shape=waypoint;sketch=0;fillStyle=solid;size=6;pointerEvents=1;points=[];fillColor=none;resizable=1;rotatable=1;perimeter=centerPerimeter;snapToPoint=1;shadow=1;glass=0;strokeWidth=1;fontFamily=Times New Roman;fontSize=27;fontColor=#000000;movable=1;deletable=1;editable=1;connectable=1;container=0;" parent="Kl0J1u9g9vZQOBzPppIB-190" vertex="1">
          <mxGeometry x="307.5" y="211" width="40" height="40" as="geometry" />
        </mxCell>
        <mxCell id="Kl0J1u9g9vZQOBzPppIB-272" value="" style="shape=waypoint;sketch=0;fillStyle=solid;size=6;pointerEvents=1;points=[];fillColor=none;resizable=1;rotatable=1;perimeter=centerPerimeter;snapToPoint=1;shadow=1;glass=0;strokeWidth=1;fontFamily=Times New Roman;fontSize=27;fontColor=#000000;movable=1;deletable=1;editable=1;connectable=1;container=0;" parent="Kl0J1u9g9vZQOBzPppIB-190" vertex="1">
          <mxGeometry x="307.5" y="221" width="40" height="40" as="geometry" />
        </mxCell>
        <mxCell id="Kl0J1u9g9vZQOBzPppIB-273" value="" style="shape=waypoint;sketch=0;fillStyle=solid;size=6;pointerEvents=1;points=[];fillColor=none;resizable=1;rotatable=1;perimeter=centerPerimeter;snapToPoint=1;shadow=1;glass=0;strokeWidth=1;fontFamily=Times New Roman;fontSize=27;fontColor=#000000;movable=1;deletable=1;editable=1;connectable=1;container=0;" parent="Kl0J1u9g9vZQOBzPppIB-190" vertex="1">
          <mxGeometry x="307.5" y="233" width="40" height="40" as="geometry" />
        </mxCell>
        <mxCell id="Kl0J1u9g9vZQOBzPppIB-274" style="edgeStyle=orthogonalEdgeStyle;rounded=0;orthogonalLoop=1;jettySize=auto;html=1;entryX=1;entryY=0.25;entryDx=0;entryDy=0;strokeWidth=3;exitX=1;exitY=0.5;exitDx=0;exitDy=0;" parent="1" edge="1" source="Kl0J1u9g9vZQOBzPppIB-191">
          <mxGeometry relative="1" as="geometry">
            <mxPoint x="2420" y="800.75" as="targetPoint" />
            <mxPoint x="2450" y="381" as="sourcePoint" />
            <Array as="points">
              <mxPoint x="2500" y="411" />
              <mxPoint x="2500" y="801" />
            </Array>
          </mxGeometry>
        </mxCell>
        <mxCell id="Kl0J1u9g9vZQOBzPppIB-275" value="&lt;div style=&quot;text-align: center;&quot;&gt;&lt;span style=&quot;-webkit-text-stroke-color: currentcolor; font-size: 30px;&quot;&gt;&lt;font face=&quot;Times New Roman&quot;&gt;&lt;i&gt;Q-value&lt;/i&gt;&lt;/font&gt;&lt;/span&gt;&lt;/div&gt;" style="text;whiteSpace=wrap;html=1;rotation=-90;" parent="1" vertex="1">
          <mxGeometry x="2420" y="540" width="110" height="60" as="geometry" />
        </mxCell>
        <mxCell id="Kl0J1u9g9vZQOBzPppIB-285" style="edgeStyle=orthogonalEdgeStyle;rounded=0;orthogonalLoop=1;jettySize=auto;html=1;strokeWidth=3;" parent="1" target="Kl0J1u9g9vZQOBzPppIB-284" edge="1">
          <mxGeometry relative="1" as="geometry">
            <mxPoint x="2920" y="365" as="sourcePoint" />
          </mxGeometry>
        </mxCell>
        <mxCell id="Kl0J1u9g9vZQOBzPppIB-276" value="&lt;font face=&quot;Times New Roman&quot; style=&quot;font-size: 35px;&quot;&gt;&lt;i&gt;Environment&lt;/i&gt;&lt;/font&gt;" style="rounded=1;whiteSpace=wrap;html=1;movable=1;resizable=1;rotatable=1;deletable=1;editable=1;locked=0;connectable=1;" parent="1" vertex="1">
          <mxGeometry x="2700" y="315" width="220" height="100" as="geometry" />
        </mxCell>
        <mxCell id="Kl0J1u9g9vZQOBzPppIB-277" style="edgeStyle=orthogonalEdgeStyle;rounded=0;orthogonalLoop=1;jettySize=auto;html=1;exitX=1;exitY=0.5;exitDx=0;exitDy=0;entryX=0;entryY=0.5;entryDx=0;entryDy=0;strokeWidth=3;" parent="1" source="Kl0J1u9g9vZQOBzPppIB-105" target="Kl0J1u9g9vZQOBzPppIB-276" edge="1">
          <mxGeometry relative="1" as="geometry">
            <Array as="points">
              <mxPoint x="2580" y="911" />
              <mxPoint x="2580" y="365" />
            </Array>
          </mxGeometry>
        </mxCell>
        <mxCell id="Kl0J1u9g9vZQOBzPppIB-278" value="&lt;i style=&quot;border-color: var(--border-color); font-family: &amp;quot;Times New Roman&amp;quot;; font-size: 30px; text-align: center; -webkit-text-stroke-color: currentcolor !important;&quot;&gt;action&lt;/i&gt;" style="text;whiteSpace=wrap;html=1;" parent="1" vertex="1">
          <mxGeometry x="2600" y="315" width="110" height="60" as="geometry" />
        </mxCell>
        <mxCell id="Kl0J1u9g9vZQOBzPppIB-279" value="&lt;div style=&quot;text-align: center;&quot;&gt;&lt;font face=&quot;Times New Roman&quot;&gt;&lt;span style=&quot;font-size: 30px;&quot;&gt;&lt;i&gt;&lt;b&gt;a&lt;/b&gt;&lt;/i&gt;&lt;/span&gt;&lt;/font&gt;&lt;/div&gt;" style="text;whiteSpace=wrap;html=1;" parent="1" vertex="1">
          <mxGeometry x="2630" y="365" width="30" height="60" as="geometry" />
        </mxCell>
        <mxCell id="Kl0J1u9g9vZQOBzPppIB-448" style="edgeStyle=orthogonalEdgeStyle;rounded=0;orthogonalLoop=1;jettySize=auto;html=1;strokeWidth=3;entryX=0;entryY=0.75;entryDx=0;entryDy=0;" parent="1" source="Kl0J1u9g9vZQOBzPppIB-284" target="Kl0J1u9g9vZQOBzPppIB-191" edge="1">
          <mxGeometry relative="1" as="geometry">
            <mxPoint x="3109.2299999999996" y="665" as="targetPoint" />
            <Array as="points">
              <mxPoint x="3079" y="650" />
              <mxPoint x="1880" y="650" />
              <mxPoint x="1880" y="520" />
            </Array>
          </mxGeometry>
        </mxCell>
        <mxCell id="Kl0J1u9g9vZQOBzPppIB-458" style="edgeStyle=orthogonalEdgeStyle;rounded=0;orthogonalLoop=1;jettySize=auto;html=1;strokeWidth=3;" parent="1" source="Kl0J1u9g9vZQOBzPppIB-284" target="Kl0J1u9g9vZQOBzPppIB-203" edge="1">
          <mxGeometry relative="1" as="geometry">
            <Array as="points">
              <mxPoint x="3079" y="125" />
              <mxPoint x="2166" y="125" />
            </Array>
            <mxPoint x="2180" y="160" as="targetPoint" />
          </mxGeometry>
        </mxCell>
        <mxCell id="Kl0J1u9g9vZQOBzPppIB-284" value="" style="sketch=0;outlineConnect=0;fontColor=#232F3E;gradientColor=none;fillColor=#3F8624;strokeColor=none;dashed=0;verticalLabelPosition=bottom;verticalAlign=top;align=center;html=1;fontSize=12;fontStyle=0;aspect=fixed;pointerEvents=1;shape=mxgraph.aws4.iot_analytics_data_store;" parent="1" vertex="1">
          <mxGeometry x="3040" y="308.34" width="78.46" height="113.33" as="geometry" />
        </mxCell>
        <mxCell id="Kl0J1u9g9vZQOBzPppIB-286" value="&lt;div style=&quot;text-align: center;&quot;&gt;&lt;font face=&quot;Times New Roman&quot;&gt;&lt;span style=&quot;font-size: 30px;&quot;&gt;&lt;i&gt;Replay Buffer&lt;/i&gt;&lt;/span&gt;&lt;/font&gt;&lt;/div&gt;" style="text;whiteSpace=wrap;html=1;" parent="1" vertex="1">
          <mxGeometry x="2895" y="428" width="170" height="20" as="geometry" />
        </mxCell>
        <mxCell id="Kl0J1u9g9vZQOBzPppIB-288" value="&lt;div style=&quot;text-align: center;&quot;&gt;&lt;font face=&quot;Times New Roman&quot;&gt;&lt;span style=&quot;font-size: 30px;&quot;&gt;&lt;b&gt;&lt;i&gt;R&lt;/i&gt;&lt;/b&gt;&lt;/span&gt;&lt;/font&gt;&lt;/div&gt;" style="text;whiteSpace=wrap;html=1;" parent="1" vertex="1">
          <mxGeometry x="3130" y="368" width="30" height="60" as="geometry" />
        </mxCell>
        <mxCell id="Kl0J1u9g9vZQOBzPppIB-438" value="" style="endArrow=classic;html=1;rounded=0;exitX=1;exitY=0;exitDx=0;exitDy=0;entryX=0;entryY=0;entryDx=0;entryDy=0;strokeWidth=3;" parent="1" source="Kl0J1u9g9vZQOBzPppIB-45" target="Kl0J1u9g9vZQOBzPppIB-420" edge="1">
          <mxGeometry width="50" height="50" relative="1" as="geometry">
            <mxPoint x="690" y="960" as="sourcePoint" />
            <mxPoint x="740" y="910" as="targetPoint" />
          </mxGeometry>
        </mxCell>
        <mxCell id="Kl0J1u9g9vZQOBzPppIB-439" value="" style="endArrow=classic;html=1;rounded=0;exitX=1;exitY=1;exitDx=0;exitDy=0;entryX=0;entryY=1;entryDx=0;entryDy=0;strokeWidth=3;" parent="1" source="Kl0J1u9g9vZQOBzPppIB-45" target="Kl0J1u9g9vZQOBzPppIB-420" edge="1">
          <mxGeometry width="50" height="50" relative="1" as="geometry">
            <mxPoint x="740" y="1090" as="sourcePoint" />
            <mxPoint x="790" y="1040" as="targetPoint" />
          </mxGeometry>
        </mxCell>
        <mxCell id="Kl0J1u9g9vZQOBzPppIB-441" value="" style="group" parent="1" vertex="1" connectable="0">
          <mxGeometry x="930" y="670" width="561.57" height="430" as="geometry" />
        </mxCell>
        <mxCell id="Kl0J1u9g9vZQOBzPppIB-420" value="Environment" style="swimlane;childLayout=stackLayout;horizontal=1;startSize=60;horizontalStack=0;rounded=1;fontSize=35;fontStyle=2;strokeWidth=2;resizeParent=0;resizeLast=1;shadow=0;dashed=0;align=center;glass=0;sketch=0;fontFamily=Times New Roman;fillColor=#f5f5f5;strokeColor=#000000;gradientColor=#b3b3b3;container=0;" parent="Kl0J1u9g9vZQOBzPppIB-441" vertex="1">
          <mxGeometry x="1.57000000000005" width="560" height="430" as="geometry" />
        </mxCell>
        <mxCell id="Kl0J1u9g9vZQOBzPppIB-357" value="" style="ellipse;whiteSpace=wrap;html=1;rounded=1;shadow=0;comic=0;labelBackgroundColor=none;strokeColor=#82b366;strokeWidth=2;fillColor=#d5e8d4;fontFamily=Helvetica;fontSize=22;verticalAlign=middle;gradientDirection=north;direction=south;gradientColor=#97d077;container=0;" parent="Kl0J1u9g9vZQOBzPppIB-441" vertex="1">
          <mxGeometry x="398.67843373493986" y="162.7037037037037" width="122.89156626506023" height="179.40740740740742" as="geometry" />
        </mxCell>
        <mxCell id="Kl0J1u9g9vZQOBzPppIB-358" value="" style="fontColor=#0066CC;verticalAlign=top;verticalLabelPosition=bottom;labelPosition=center;align=center;html=1;fillColor=#FFFFFF;strokeColor=#000000;gradientColor=none;gradientDirection=north;strokeWidth=2;shape=mxgraph.networks.radio_tower;rounded=1;shadow=0;comic=0;labelBackgroundColor=none;container=0;" parent="Kl0J1u9g9vZQOBzPppIB-441" vertex="1">
          <mxGeometry x="11.57000000000005" y="213.96296296296293" width="36.86746987951807" height="64.07407407407406" as="geometry" />
        </mxCell>
        <mxCell id="Kl0J1u9g9vZQOBzPppIB-359" value="" style="rounded=1;whiteSpace=wrap;html=1;fillColor=#f8cecc;strokeColor=#b85450;container=0;" parent="Kl0J1u9g9vZQOBzPppIB-441" vertex="1">
          <mxGeometry x="128.31698795180728" y="73" width="129.03614457831324" height="89.70370370370371" as="geometry" />
        </mxCell>
        <mxCell id="Kl0J1u9g9vZQOBzPppIB-360" value="" style="whiteSpace=wrap;html=1;aspect=fixed;fillColor=#f8cecc;strokeColor=#b85450;gradientColor=#ea6b66;container=0;" parent="Kl0J1u9g9vZQOBzPppIB-441" vertex="1">
          <mxGeometry x="134.46156626506024" y="79.40740740740739" width="18.17377885927948" height="18.17377885927948" as="geometry" />
        </mxCell>
        <mxCell id="Kl0J1u9g9vZQOBzPppIB-361" value="" style="whiteSpace=wrap;html=1;aspect=fixed;fillColor=#f8cecc;strokeColor=#b85450;gradientColor=#ea6b66;container=0;" parent="Kl0J1u9g9vZQOBzPppIB-441" vertex="1">
          <mxGeometry x="159.03987951807233" y="79.40740740740739" width="18.17377885927948" height="18.17377885927948" as="geometry" />
        </mxCell>
        <mxCell id="Kl0J1u9g9vZQOBzPppIB-362" value="" style="whiteSpace=wrap;html=1;aspect=fixed;fillColor=#f8cecc;strokeColor=#b85450;gradientColor=#ea6b66;container=0;" parent="Kl0J1u9g9vZQOBzPppIB-441" vertex="1">
          <mxGeometry x="183.6181927710844" y="79.40740740740739" width="18.17377885927948" height="18.17377885927948" as="geometry" />
        </mxCell>
        <mxCell id="Kl0J1u9g9vZQOBzPppIB-363" value="" style="whiteSpace=wrap;html=1;aspect=fixed;fillColor=#f8cecc;strokeColor=#b85450;gradientColor=#ea6b66;container=0;" parent="Kl0J1u9g9vZQOBzPppIB-441" vertex="1">
          <mxGeometry x="208.1965060240965" y="79.40740740740739" width="18.17377885927948" height="18.17377885927948" as="geometry" />
        </mxCell>
        <mxCell id="Kl0J1u9g9vZQOBzPppIB-364" value="" style="whiteSpace=wrap;html=1;aspect=fixed;fillColor=#f8cecc;strokeColor=#b85450;gradientColor=#ea6b66;container=0;" parent="Kl0J1u9g9vZQOBzPppIB-441" vertex="1">
          <mxGeometry x="134.46156626506024" y="108.24074074074076" width="18.17377885927948" height="18.17377885927948" as="geometry" />
        </mxCell>
        <mxCell id="Kl0J1u9g9vZQOBzPppIB-365" value="" style="whiteSpace=wrap;html=1;aspect=fixed;fillColor=#f8cecc;strokeColor=#b85450;gradientColor=#ea6b66;container=0;" parent="Kl0J1u9g9vZQOBzPppIB-441" vertex="1">
          <mxGeometry x="159.03987951807233" y="108.24074074074076" width="18.17377885927948" height="18.17377885927948" as="geometry" />
        </mxCell>
        <mxCell id="Kl0J1u9g9vZQOBzPppIB-366" value="" style="whiteSpace=wrap;html=1;aspect=fixed;fillColor=#f8cecc;strokeColor=#b85450;gradientColor=#ea6b66;container=0;" parent="Kl0J1u9g9vZQOBzPppIB-441" vertex="1">
          <mxGeometry x="183.6181927710844" y="108.24074074074076" width="18.17377885927948" height="18.17377885927948" as="geometry" />
        </mxCell>
        <mxCell id="Kl0J1u9g9vZQOBzPppIB-367" value="" style="whiteSpace=wrap;html=1;aspect=fixed;fillColor=#f8cecc;strokeColor=#b85450;gradientColor=#ea6b66;container=0;" parent="Kl0J1u9g9vZQOBzPppIB-441" vertex="1">
          <mxGeometry x="208.1965060240965" y="108.24074074074076" width="18.17377885927948" height="18.17377885927948" as="geometry" />
        </mxCell>
        <mxCell id="Kl0J1u9g9vZQOBzPppIB-368" value="" style="whiteSpace=wrap;html=1;aspect=fixed;fillColor=#f8cecc;strokeColor=#b85450;gradientColor=#ea6b66;container=0;" parent="Kl0J1u9g9vZQOBzPppIB-441" vertex="1">
          <mxGeometry x="232.77481927710858" y="79.40740740740739" width="18.17377885927948" height="18.17377885927948" as="geometry" />
        </mxCell>
        <mxCell id="Kl0J1u9g9vZQOBzPppIB-369" value="" style="whiteSpace=wrap;html=1;aspect=fixed;fillColor=#f8cecc;strokeColor=#b85450;gradientColor=#ea6b66;container=0;" parent="Kl0J1u9g9vZQOBzPppIB-441" vertex="1">
          <mxGeometry x="232.77481927710858" y="108.24074074074076" width="18.17377885927948" height="18.17377885927948" as="geometry" />
        </mxCell>
        <mxCell id="Kl0J1u9g9vZQOBzPppIB-370" value="" style="whiteSpace=wrap;html=1;aspect=fixed;fillColor=#f8cecc;strokeColor=#b85450;gradientColor=#ea6b66;container=0;" parent="Kl0J1u9g9vZQOBzPppIB-441" vertex="1">
          <mxGeometry x="134.46156626506024" y="137.07407407407402" width="18.17377885927948" height="18.17377885927948" as="geometry" />
        </mxCell>
        <mxCell id="Kl0J1u9g9vZQOBzPppIB-371" value="" style="whiteSpace=wrap;html=1;aspect=fixed;fillColor=#f8cecc;strokeColor=#b85450;gradientColor=#ea6b66;container=0;" parent="Kl0J1u9g9vZQOBzPppIB-441" vertex="1">
          <mxGeometry x="159.03987951807233" y="137.07407407407402" width="18.17377885927948" height="18.17377885927948" as="geometry" />
        </mxCell>
        <mxCell id="Kl0J1u9g9vZQOBzPppIB-372" value="" style="whiteSpace=wrap;html=1;aspect=fixed;fillColor=#f8cecc;strokeColor=#b85450;gradientColor=#ea6b66;container=0;" parent="Kl0J1u9g9vZQOBzPppIB-441" vertex="1">
          <mxGeometry x="183.6181927710844" y="137.07407407407402" width="18.17377885927948" height="18.17377885927948" as="geometry" />
        </mxCell>
        <mxCell id="Kl0J1u9g9vZQOBzPppIB-373" value="" style="whiteSpace=wrap;html=1;aspect=fixed;fillColor=#f8cecc;strokeColor=#b85450;gradientColor=#ea6b66;container=0;" parent="Kl0J1u9g9vZQOBzPppIB-441" vertex="1">
          <mxGeometry x="208.1965060240965" y="137.07407407407402" width="18.17377885927948" height="18.17377885927948" as="geometry" />
        </mxCell>
        <mxCell id="Kl0J1u9g9vZQOBzPppIB-374" value="" style="whiteSpace=wrap;html=1;aspect=fixed;fillColor=#f8cecc;strokeColor=#b85450;gradientColor=#ea6b66;container=0;" parent="Kl0J1u9g9vZQOBzPppIB-441" vertex="1">
          <mxGeometry x="232.77481927710858" y="137.07407407407402" width="18.17377885927948" height="18.17377885927948" as="geometry" />
        </mxCell>
        <mxCell id="Kl0J1u9g9vZQOBzPppIB-394" value="" style="sketch=0;pointerEvents=1;shadow=0;dashed=0;html=1;strokeColor=none;fillColor=#505050;labelPosition=center;verticalLabelPosition=bottom;verticalAlign=top;outlineConnect=0;align=center;shape=mxgraph.office.devices.cell_phone_iphone_standalone;glass=0;strokeWidth=8;fontFamily=Times New Roman;fontSize=27;container=0;" parent="Kl0J1u9g9vZQOBzPppIB-441" vertex="1">
          <mxGeometry x="447.835060240964" y="188.33333333333337" width="18.433734939759034" height="25.62962962962963" as="geometry" />
        </mxCell>
        <mxCell id="Kl0J1u9g9vZQOBzPppIB-395" value="" style="sketch=0;pointerEvents=1;shadow=0;dashed=0;html=1;strokeColor=none;fillColor=#505050;labelPosition=center;verticalLabelPosition=bottom;verticalAlign=top;outlineConnect=0;align=center;shape=mxgraph.office.devices.cell_phone_iphone_standalone;glass=0;strokeWidth=8;fontFamily=Times New Roman;fontSize=27;container=0;" parent="Kl0J1u9g9vZQOBzPppIB-441" vertex="1">
          <mxGeometry x="466.2687951807228" y="236.3888888888889" width="18.433734939759034" height="25.62962962962963" as="geometry" />
        </mxCell>
        <mxCell id="Kl0J1u9g9vZQOBzPppIB-396" value="" style="sketch=0;pointerEvents=1;shadow=0;dashed=0;html=1;strokeColor=none;fillColor=#505050;labelPosition=center;verticalLabelPosition=bottom;verticalAlign=top;outlineConnect=0;align=center;shape=mxgraph.office.devices.cell_phone_iphone_standalone;glass=0;strokeWidth=8;fontFamily=Times New Roman;fontSize=27;container=0;" parent="Kl0J1u9g9vZQOBzPppIB-441" vertex="1">
          <mxGeometry x="447.835060240964" y="284.44444444444434" width="18.433734939759034" height="25.62962962962963" as="geometry" />
        </mxCell>
        <mxCell id="Kl0J1u9g9vZQOBzPppIB-397" value="User 1" style="text;html=1;align=center;verticalAlign=middle;resizable=0;points=[];autosize=1;strokeColor=none;fillColor=none;fontSize=18;fontFamily=Times New Roman;shadow=1;glass=0;sketch=0;strokeWidth=8;container=0;" parent="Kl0J1u9g9vZQOBzPppIB-441" vertex="1">
          <mxGeometry x="466.26421686747005" y="188.33333333333337" width="70" height="30" as="geometry" />
        </mxCell>
        <mxCell id="Kl0J1u9g9vZQOBzPppIB-398" value="User &lt;i&gt;k&lt;/i&gt;" style="text;html=1;align=center;verticalAlign=middle;resizable=0;points=[];autosize=1;strokeColor=none;fillColor=none;fontSize=18;fontFamily=Times New Roman;shadow=1;glass=0;sketch=0;strokeWidth=8;container=0;" parent="Kl0J1u9g9vZQOBzPppIB-441" vertex="1">
          <mxGeometry x="481.56795180722895" y="234.20000000000005" width="70" height="30" as="geometry" />
        </mxCell>
        <mxCell id="Kl0J1u9g9vZQOBzPppIB-399" value="User &lt;i&gt;K&lt;/i&gt;" style="text;html=1;align=center;verticalAlign=middle;resizable=0;points=[];autosize=1;strokeColor=none;fillColor=none;fontSize=18;fontFamily=Times New Roman;shadow=1;glass=0;sketch=0;strokeWidth=8;container=0;" parent="Kl0J1u9g9vZQOBzPppIB-441" vertex="1">
          <mxGeometry x="466.26421686747005" y="282.2618518518518" width="70" height="30" as="geometry" />
        </mxCell>
        <mxCell id="Kl0J1u9g9vZQOBzPppIB-400" value="" style="shape=waypoint;sketch=0;fillStyle=solid;size=6;pointerEvents=1;points=[];fillColor=none;resizable=0;rotatable=0;perimeter=centerPerimeter;snapToPoint=1;shadow=1;glass=0;strokeWidth=0;fontFamily=Times New Roman;fontSize=18;container=0;" parent="Kl0J1u9g9vZQOBzPppIB-441" vertex="1">
          <mxGeometry x="447.835060240964" y="207.55555555555554" width="40" height="40" as="geometry" />
        </mxCell>
        <mxCell id="Kl0J1u9g9vZQOBzPppIB-401" value="" style="shape=waypoint;sketch=0;fillStyle=solid;size=6;pointerEvents=1;points=[];fillColor=none;resizable=0;rotatable=0;perimeter=centerPerimeter;snapToPoint=1;shadow=1;glass=0;strokeWidth=0;fontFamily=Times New Roman;fontSize=18;container=0;" parent="Kl0J1u9g9vZQOBzPppIB-441" vertex="1">
          <mxGeometry x="453.9796385542169" y="213.96296296296293" width="40" height="40" as="geometry" />
        </mxCell>
        <mxCell id="Kl0J1u9g9vZQOBzPppIB-402" value="" style="shape=waypoint;sketch=0;fillStyle=solid;size=6;pointerEvents=1;points=[];fillColor=none;resizable=0;rotatable=0;perimeter=centerPerimeter;snapToPoint=1;shadow=1;glass=0;strokeWidth=0;fontFamily=Times New Roman;fontSize=18;container=0;" parent="Kl0J1u9g9vZQOBzPppIB-441" vertex="1">
          <mxGeometry x="450.90734939759056" y="210.75925925925924" width="40" height="40" as="geometry" />
        </mxCell>
        <mxCell id="Kl0J1u9g9vZQOBzPppIB-403" value="" style="shape=waypoint;sketch=0;fillStyle=solid;size=6;pointerEvents=1;points=[];fillColor=none;resizable=0;rotatable=0;perimeter=centerPerimeter;snapToPoint=1;shadow=1;glass=0;strokeWidth=0;fontFamily=Times New Roman;fontSize=18;container=0;" parent="Kl0J1u9g9vZQOBzPppIB-441" vertex="1">
          <mxGeometry x="453.9796385542169" y="258.8148148148148" width="40" height="40" as="geometry" />
        </mxCell>
        <mxCell id="Kl0J1u9g9vZQOBzPppIB-404" value="" style="shape=waypoint;sketch=0;fillStyle=solid;size=6;pointerEvents=1;points=[];fillColor=none;resizable=0;rotatable=0;perimeter=centerPerimeter;snapToPoint=1;shadow=1;glass=0;strokeWidth=0;fontFamily=Times New Roman;fontSize=18;container=0;" parent="Kl0J1u9g9vZQOBzPppIB-441" vertex="1">
          <mxGeometry x="452.13626506024104" y="262.6592592592592" width="40" height="40" as="geometry" />
        </mxCell>
        <mxCell id="Kl0J1u9g9vZQOBzPppIB-405" value="" style="shape=waypoint;sketch=0;fillStyle=solid;size=6;pointerEvents=1;points=[];fillColor=none;resizable=0;rotatable=0;perimeter=centerPerimeter;snapToPoint=1;shadow=1;glass=0;strokeWidth=0;fontFamily=Times New Roman;fontSize=18;container=0;" parent="Kl0J1u9g9vZQOBzPppIB-441" vertex="1">
          <mxGeometry x="455.82301204819294" y="254.97037037037035" width="40" height="40" as="geometry" />
        </mxCell>
        <mxCell id="Kl0J1u9g9vZQOBzPppIB-406" value="" style="shape=waypoint;sketch=0;fillStyle=solid;size=6;pointerEvents=1;points=[];fillColor=none;resizable=0;rotatable=0;perimeter=centerPerimeter;snapToPoint=1;shadow=1;glass=0;strokeWidth=1;fontFamily=Times New Roman;fontSize=18;container=0;" parent="Kl0J1u9g9vZQOBzPppIB-441" vertex="1">
          <mxGeometry x="177.47361445783133" y="207.55555555555554" width="40" height="40" as="geometry" />
        </mxCell>
        <mxCell id="Kl0J1u9g9vZQOBzPppIB-407" value="" style="shape=waypoint;sketch=0;fillStyle=solid;size=6;pointerEvents=1;points=[];fillColor=none;resizable=0;rotatable=0;perimeter=centerPerimeter;snapToPoint=1;shadow=1;glass=0;strokeWidth=1;fontFamily=Times New Roman;fontSize=18;container=0;" parent="Kl0J1u9g9vZQOBzPppIB-441" vertex="1">
          <mxGeometry x="177.47361445783133" y="233.18518518518522" width="40" height="40" as="geometry" />
        </mxCell>
        <mxCell id="Kl0J1u9g9vZQOBzPppIB-408" value="" style="shape=waypoint;sketch=0;fillStyle=solid;size=6;pointerEvents=1;points=[];fillColor=none;resizable=0;rotatable=0;perimeter=centerPerimeter;snapToPoint=1;shadow=1;glass=0;strokeWidth=1;fontFamily=Times New Roman;fontSize=18;container=0;" parent="Kl0J1u9g9vZQOBzPppIB-441" vertex="1">
          <mxGeometry x="177.47361445783133" y="252.4074074074074" width="40" height="40" as="geometry" />
        </mxCell>
        <mxCell id="Kl0J1u9g9vZQOBzPppIB-409" value="" style="ellipse;shape=doubleEllipse;whiteSpace=wrap;html=1;shadow=1;glass=0;sketch=0;strokeWidth=1;fontFamily=Times New Roman;fontSize=18;rotation=30;fillColor=#ffe6cc;strokeColor=#d79b00;container=0;" parent="Kl0J1u9g9vZQOBzPppIB-441" vertex="1">
          <mxGeometry x="48.43746987951806" y="284.44444444444434" width="129.03614457831324" height="12.814814814814815" as="geometry" />
        </mxCell>
        <mxCell id="Kl0J1u9g9vZQOBzPppIB-410" value="" style="ellipse;shape=doubleEllipse;whiteSpace=wrap;html=1;shadow=1;glass=0;sketch=0;strokeWidth=1;fontFamily=Times New Roman;fontSize=18;rotation=330;fillColor=#f8cecc;strokeColor=#b85450;container=0;" parent="Kl0J1u9g9vZQOBzPppIB-441" vertex="1">
          <mxGeometry x="48.43746987951806" y="201.14814814814815" width="129.03614457831324" height="12.814814814814815" as="geometry" />
        </mxCell>
        <mxCell id="Kl0J1u9g9vZQOBzPppIB-411" value="&lt;font style=&quot;font-size: 18px;&quot;&gt;&lt;b&gt;&lt;i&gt;G&lt;/i&gt;&lt;/b&gt;&lt;sub&gt;&lt;i style=&quot;font-size: 18px;&quot;&gt;L&lt;/i&gt;&lt;/sub&gt;&lt;/font&gt;" style="text;html=1;align=center;verticalAlign=middle;resizable=0;points=[];autosize=1;strokeColor=none;fillColor=none;fontSize=24;fontFamily=Times New Roman;rotation=30;container=0;" parent="Kl0J1u9g9vZQOBzPppIB-441" vertex="1">
          <mxGeometry x="109.03867469879515" y="252.6548148148148" width="50" height="50" as="geometry" />
        </mxCell>
        <mxCell id="Kl0J1u9g9vZQOBzPppIB-412" value="&lt;font style=&quot;font-size: 18px;&quot;&gt;BS-RIS Link&lt;/font&gt;" style="text;html=1;align=center;verticalAlign=middle;resizable=0;points=[];autosize=1;strokeColor=none;fillColor=none;fontSize=18;fontFamily=Times New Roman;rotation=330;container=0;" parent="Kl0J1u9g9vZQOBzPppIB-441" vertex="1">
          <mxGeometry x="42.472048192771126" y="175.7559259259259" width="120" height="30" as="geometry" />
        </mxCell>
        <mxCell id="Kl0J1u9g9vZQOBzPppIB-413" value="" style="endArrow=classic;html=1;rounded=0;strokeWidth=3;fontFamily=Times New Roman;fontSize=24;" parent="Kl0J1u9g9vZQOBzPppIB-441" target="Kl0J1u9g9vZQOBzPppIB-395" edge="1">
          <mxGeometry width="50" height="50" relative="1" as="geometry">
            <mxPoint x="202.05192771084342" y="175.51851851851848" as="sourcePoint" />
            <mxPoint x="367.9555421686747" y="252.4074074074074" as="targetPoint" />
          </mxGeometry>
        </mxCell>
        <mxCell id="Kl0J1u9g9vZQOBzPppIB-414" value="" style="endArrow=classic;html=1;rounded=0;strokeWidth=3;fontFamily=Times New Roman;fontSize=24;" parent="Kl0J1u9g9vZQOBzPppIB-441" target="Kl0J1u9g9vZQOBzPppIB-395" edge="1">
          <mxGeometry width="50" height="50" relative="1" as="geometry">
            <mxPoint x="202.05192771084342" y="322.8888888888889" as="sourcePoint" />
            <mxPoint x="367.9555421686747" y="252.4074074074074" as="targetPoint" />
          </mxGeometry>
        </mxCell>
        <mxCell id="Kl0J1u9g9vZQOBzPppIB-415" value="&lt;font style=&quot;font-size: 18px;&quot;&gt;RIS-User Link&lt;/font&gt;" style="text;html=1;align=center;verticalAlign=middle;resizable=0;points=[];autosize=1;strokeColor=none;fillColor=none;fontSize=24;fontFamily=Times New Roman;shadow=1;glass=0;sketch=0;strokeWidth=1;rotation=14;container=0;" parent="Kl0J1u9g9vZQOBzPppIB-441" vertex="1">
          <mxGeometry x="270.95228915662653" y="170.76333333333332" width="130" height="40" as="geometry" />
        </mxCell>
        <mxCell id="Kl0J1u9g9vZQOBzPppIB-416" value="&lt;font style=&quot;font-size: 21px;&quot;&gt;&lt;b&gt;&lt;i&gt;h&lt;/i&gt;&lt;/b&gt;&lt;sub&gt;&lt;i style=&quot;font-size: 21px;&quot;&gt;kL&lt;/i&gt;&lt;/sub&gt;&lt;/font&gt;" style="text;html=1;align=center;verticalAlign=middle;resizable=0;points=[];autosize=1;strokeColor=none;fillColor=none;fontSize=24;fontFamily=Times New Roman;rotation=344;container=0;" parent="Kl0J1u9g9vZQOBzPppIB-441" vertex="1">
          <mxGeometry x="299.64060240963875" y="284.4422222222222" width="60" height="50" as="geometry" />
        </mxCell>
        <mxCell id="Kl0J1u9g9vZQOBzPppIB-417" value="" style="endArrow=classic;html=1;rounded=0;strokeWidth=3;fontFamily=Times New Roman;fontSize=35;fillColor=#e51400;strokeColor=#B20000;startArrow=none;" parent="Kl0J1u9g9vZQOBzPppIB-441" source="Kl0J1u9g9vZQOBzPppIB-356" target="Kl0J1u9g9vZQOBzPppIB-395" edge="1">
          <mxGeometry width="50" height="50" relative="1" as="geometry">
            <mxPoint x="58.26879518072292" y="249.2037037037037" as="sourcePoint" />
            <mxPoint x="365.4977108433735" y="255.6111111111111" as="targetPoint" />
          </mxGeometry>
        </mxCell>
        <mxCell id="Kl0J1u9g9vZQOBzPppIB-418" value="" style="shape=image;html=1;verticalAlign=top;verticalLabelPosition=bottom;labelBackgroundColor=#ffffff;imageAspect=0;aspect=fixed;image=https://cdn2.iconfinder.com/data/icons/onebit/PNG/onebit_33.png;shadow=1;glass=0;sketch=0;strokeWidth=1;fontFamily=Times New Roman;fontSize=25;container=0;" parent="Kl0J1u9g9vZQOBzPppIB-441" vertex="1">
          <mxGeometry x="202.05192771084342" y="233.18518518518522" width="30.289631432132467" height="30.289631432132467" as="geometry" />
        </mxCell>
        <mxCell id="Kl0J1u9g9vZQOBzPppIB-419" value="" style="endArrow=none;html=1;rounded=0;strokeWidth=3;fontFamily=Times New Roman;fontSize=35;fillColor=#e51400;strokeColor=#B20000;" parent="Kl0J1u9g9vZQOBzPppIB-441" target="Kl0J1u9g9vZQOBzPppIB-418" edge="1">
          <mxGeometry width="50" height="50" relative="1" as="geometry">
            <mxPoint x="58.26879518072292" y="249.2037037037037" as="sourcePoint" />
            <mxPoint x="460.12421686746995" y="249.2037037037038" as="targetPoint" />
          </mxGeometry>
        </mxCell>
        <mxCell id="Kl0J1u9g9vZQOBzPppIB-421" value="" style="group" parent="Kl0J1u9g9vZQOBzPppIB-441" vertex="1" connectable="0">
          <mxGeometry x="128.31698795180728" y="329.2962962962963" width="129.03614457831324" height="89.70370370370371" as="geometry" />
        </mxCell>
        <mxCell id="Kl0J1u9g9vZQOBzPppIB-375" value="" style="rounded=1;whiteSpace=wrap;html=1;fillColor=#fad7ac;strokeColor=#b46504;container=0;" parent="Kl0J1u9g9vZQOBzPppIB-421" vertex="1">
          <mxGeometry width="129.03614457831324" height="89.70370370370371" as="geometry" />
        </mxCell>
        <mxCell id="Kl0J1u9g9vZQOBzPppIB-376" value="" style="whiteSpace=wrap;html=1;aspect=fixed;fillColor=#fff2cc;strokeColor=#d6b656;gradientColor=#ffd966;container=0;" parent="Kl0J1u9g9vZQOBzPppIB-421" vertex="1">
          <mxGeometry x="6.144578313253011" y="6.407407407407407" width="18.173778859279476" height="18.173778859279476" as="geometry" />
        </mxCell>
        <mxCell id="Kl0J1u9g9vZQOBzPppIB-377" value="" style="whiteSpace=wrap;html=1;aspect=fixed;fillColor=#fff2cc;strokeColor=#d6b656;gradientColor=#ffd966;container=0;" parent="Kl0J1u9g9vZQOBzPppIB-421" vertex="1">
          <mxGeometry x="30.72289156626506" y="6.407407407407407" width="18.173778859279476" height="18.173778859279476" as="geometry" />
        </mxCell>
        <mxCell id="Kl0J1u9g9vZQOBzPppIB-378" value="" style="whiteSpace=wrap;html=1;aspect=fixed;fillColor=#fff2cc;strokeColor=#d6b656;gradientColor=#ffd966;container=0;" parent="Kl0J1u9g9vZQOBzPppIB-421" vertex="1">
          <mxGeometry x="55.3012048192771" y="6.407407407407407" width="18.173778859279476" height="18.173778859279476" as="geometry" />
        </mxCell>
        <mxCell id="Kl0J1u9g9vZQOBzPppIB-379" value="" style="whiteSpace=wrap;html=1;aspect=fixed;fillColor=#fff2cc;strokeColor=#d6b656;gradientColor=#ffd966;container=0;" parent="Kl0J1u9g9vZQOBzPppIB-421" vertex="1">
          <mxGeometry x="79.87951807228914" y="6.407407407407407" width="18.173778859279476" height="18.173778859279476" as="geometry" />
        </mxCell>
        <mxCell id="Kl0J1u9g9vZQOBzPppIB-380" value="" style="whiteSpace=wrap;html=1;aspect=fixed;fillColor=#fff2cc;strokeColor=#d6b656;gradientColor=#ffd966;container=0;" parent="Kl0J1u9g9vZQOBzPppIB-421" vertex="1">
          <mxGeometry x="6.144578313253011" y="35.24074074074074" width="18.173778859279476" height="18.173778859279476" as="geometry" />
        </mxCell>
        <mxCell id="Kl0J1u9g9vZQOBzPppIB-381" value="" style="whiteSpace=wrap;html=1;aspect=fixed;fillColor=#fff2cc;strokeColor=#d6b656;gradientColor=#ffd966;container=0;" parent="Kl0J1u9g9vZQOBzPppIB-421" vertex="1">
          <mxGeometry x="30.72289156626506" y="35.24074074074074" width="18.173778859279476" height="18.173778859279476" as="geometry" />
        </mxCell>
        <mxCell id="Kl0J1u9g9vZQOBzPppIB-382" value="" style="whiteSpace=wrap;html=1;aspect=fixed;fillColor=#fff2cc;strokeColor=#d6b656;gradientColor=#ffd966;container=0;" parent="Kl0J1u9g9vZQOBzPppIB-421" vertex="1">
          <mxGeometry x="55.3012048192771" y="35.24074074074074" width="18.173778859279476" height="18.173778859279476" as="geometry" />
        </mxCell>
        <mxCell id="Kl0J1u9g9vZQOBzPppIB-383" value="" style="whiteSpace=wrap;html=1;aspect=fixed;fillColor=#fff2cc;strokeColor=#d6b656;gradientColor=#ffd966;container=0;" parent="Kl0J1u9g9vZQOBzPppIB-421" vertex="1">
          <mxGeometry x="79.87951807228914" y="35.24074074074074" width="18.173778859279476" height="18.173778859279476" as="geometry" />
        </mxCell>
        <mxCell id="Kl0J1u9g9vZQOBzPppIB-384" value="" style="whiteSpace=wrap;html=1;aspect=fixed;fillColor=#fff2cc;strokeColor=#d6b656;gradientColor=#ffd966;container=0;" parent="Kl0J1u9g9vZQOBzPppIB-421" vertex="1">
          <mxGeometry x="104.45783132530119" y="6.407407407407407" width="18.173778859279476" height="18.173778859279476" as="geometry" />
        </mxCell>
        <mxCell id="Kl0J1u9g9vZQOBzPppIB-385" value="" style="whiteSpace=wrap;html=1;aspect=fixed;fillColor=#fff2cc;strokeColor=#d6b656;gradientColor=#ffd966;container=0;" parent="Kl0J1u9g9vZQOBzPppIB-421" vertex="1">
          <mxGeometry x="104.45783132530119" y="35.24074074074074" width="18.173778859279476" height="18.173778859279476" as="geometry" />
        </mxCell>
        <mxCell id="Kl0J1u9g9vZQOBzPppIB-386" value="" style="whiteSpace=wrap;html=1;aspect=fixed;fillColor=#fff2cc;strokeColor=#d6b656;gradientColor=#ffd966;container=0;" parent="Kl0J1u9g9vZQOBzPppIB-421" vertex="1">
          <mxGeometry x="6.144578313253011" y="64.07407407407408" width="18.173778859279476" height="18.173778859279476" as="geometry" />
        </mxCell>
        <mxCell id="Kl0J1u9g9vZQOBzPppIB-387" value="" style="whiteSpace=wrap;html=1;aspect=fixed;fillColor=#fff2cc;strokeColor=#d6b656;gradientColor=#ffd966;container=0;" parent="Kl0J1u9g9vZQOBzPppIB-421" vertex="1">
          <mxGeometry x="30.72289156626506" y="64.07407407407408" width="18.173778859279476" height="18.173778859279476" as="geometry" />
        </mxCell>
        <mxCell id="Kl0J1u9g9vZQOBzPppIB-388" value="" style="whiteSpace=wrap;html=1;aspect=fixed;fillColor=#fff2cc;strokeColor=#d6b656;gradientColor=#ffd966;container=0;" parent="Kl0J1u9g9vZQOBzPppIB-421" vertex="1">
          <mxGeometry x="55.3012048192771" y="64.07407407407408" width="18.173778859279476" height="18.173778859279476" as="geometry" />
        </mxCell>
        <mxCell id="Kl0J1u9g9vZQOBzPppIB-389" value="" style="whiteSpace=wrap;html=1;aspect=fixed;fillColor=#fff2cc;strokeColor=#d6b656;gradientColor=#ffd966;container=0;" parent="Kl0J1u9g9vZQOBzPppIB-421" vertex="1">
          <mxGeometry x="79.87951807228914" y="64.07407407407408" width="18.173778859279476" height="18.173778859279476" as="geometry" />
        </mxCell>
        <mxCell id="Kl0J1u9g9vZQOBzPppIB-390" value="" style="whiteSpace=wrap;html=1;aspect=fixed;fillColor=#fff2cc;strokeColor=#d6b656;gradientColor=#ffd966;container=0;" parent="Kl0J1u9g9vZQOBzPppIB-421" vertex="1">
          <mxGeometry x="104.45783132530119" y="64.07407407407408" width="18.173778859279476" height="18.173778859279476" as="geometry" />
        </mxCell>
        <mxCell id="Kl0J1u9g9vZQOBzPppIB-434" value="" style="endArrow=classic;html=1;rounded=0;strokeWidth=3;fontFamily=Times New Roman;fontSize=35;fillColor=#e51400;strokeColor=#B20000;startArrow=none;" parent="Kl0J1u9g9vZQOBzPppIB-441" source="Kl0J1u9g9vZQOBzPppIB-418" target="Kl0J1u9g9vZQOBzPppIB-356" edge="1">
          <mxGeometry width="50" height="50" relative="1" as="geometry">
            <mxPoint x="232.57000000000005" y="248" as="sourcePoint" />
            <mxPoint x="466.57000000000005" y="249" as="targetPoint" />
          </mxGeometry>
        </mxCell>
        <mxCell id="Kl0J1u9g9vZQOBzPppIB-356" value="&lt;font style=&quot;font-size: 18px;&quot;&gt;BS-User Link&lt;/font&gt;" style="text;html=1;align=center;verticalAlign=middle;resizable=0;points=[];autosize=1;strokeColor=none;fillColor=none;fontSize=24;fontFamily=Times New Roman;shadow=1;glass=0;sketch=0;strokeWidth=1;rotation=0;fontColor=#FF0000;container=0;" parent="Kl0J1u9g9vZQOBzPppIB-441" vertex="1">
          <mxGeometry x="257.35481927710873" y="228.3277777777779" width="120" height="40" as="geometry" />
        </mxCell>
        <mxCell id="Kl0J1u9g9vZQOBzPppIB-446" style="edgeStyle=orthogonalEdgeStyle;rounded=0;orthogonalLoop=1;jettySize=auto;html=1;exitX=0;exitY=0.5;exitDx=0;exitDy=0;entryX=0;entryY=0.5;entryDx=0;entryDy=0;strokeWidth=3;" parent="1" source="Kl0J1u9g9vZQOBzPppIB-443" target="Kl0J1u9g9vZQOBzPppIB-105" edge="1">
          <mxGeometry relative="1" as="geometry" />
        </mxCell>
        <mxCell id="Kl0J1u9g9vZQOBzPppIB-443" value="&lt;span style=&quot;font-size: 35px;&quot;&gt;&lt;i style=&quot;font-family: &amp;quot;Times New Roman&amp;quot;;&quot;&gt;S=&lt;/i&gt;&lt;font face=&quot;Times New Roman&quot;&gt;{&lt;b&gt;R&lt;/b&gt;}&lt;/font&gt;&lt;/span&gt;" style="rounded=1;whiteSpace=wrap;html=1;movable=1;resizable=1;rotatable=1;deletable=1;editable=1;locked=0;connectable=1;rotation=-90;" parent="1" vertex="1">
          <mxGeometry x="1707.5" y="380" width="156.5" height="62" as="geometry" />
        </mxCell>
        <mxCell id="Kl0J1u9g9vZQOBzPppIB-444" value="&lt;i style=&quot;border-color: var(--border-color); font-family: &amp;quot;Times New Roman&amp;quot;; text-align: center; -webkit-text-stroke-color: currentcolor !important;&quot;&gt;&lt;font style=&quot;font-size: 30px;&quot;&gt;Actor Network&lt;/font&gt;&lt;/i&gt;" style="text;whiteSpace=wrap;html=1;" parent="1" vertex="1">
          <mxGeometry x="1920" y="645" width="210" height="70" as="geometry" />
        </mxCell>
        <mxCell id="Kl0J1u9g9vZQOBzPppIB-450" value="" style="group" parent="1" vertex="1" connectable="0">
          <mxGeometry x="717" y="180" width="110" height="40" as="geometry" />
        </mxCell>
        <mxCell id="Kl0J1u9g9vZQOBzPppIB-95" value="" style="shape=waypoint;sketch=0;fillStyle=solid;size=6;pointerEvents=1;points=[];fillColor=none;resizable=0;rotatable=0;perimeter=centerPerimeter;snapToPoint=1;shadow=1;glass=0;strokeWidth=1;fontFamily=Times New Roman;fontSize=18;container=0;rotation=-90;" parent="Kl0J1u9g9vZQOBzPppIB-450" vertex="1">
          <mxGeometry width="40" height="40" as="geometry" />
        </mxCell>
        <mxCell id="Kl0J1u9g9vZQOBzPppIB-96" value="" style="shape=waypoint;sketch=0;fillStyle=solid;size=6;pointerEvents=1;points=[];fillColor=none;resizable=0;rotatable=0;perimeter=centerPerimeter;snapToPoint=1;shadow=1;glass=0;strokeWidth=1;fontFamily=Times New Roman;fontSize=18;container=0;rotation=-90;" parent="Kl0J1u9g9vZQOBzPppIB-450" vertex="1">
          <mxGeometry x="37" width="40" height="40" as="geometry" />
        </mxCell>
        <mxCell id="Kl0J1u9g9vZQOBzPppIB-97" value="" style="shape=waypoint;sketch=0;fillStyle=solid;size=6;pointerEvents=1;points=[];fillColor=none;resizable=0;rotatable=0;perimeter=centerPerimeter;snapToPoint=1;shadow=1;glass=0;strokeWidth=1;fontFamily=Times New Roman;fontSize=18;container=0;rotation=-90;" parent="Kl0J1u9g9vZQOBzPppIB-450" vertex="1">
          <mxGeometry x="70" width="40" height="40" as="geometry" />
        </mxCell>
        <mxCell id="Kl0J1u9g9vZQOBzPppIB-452" value="&lt;i style=&quot;-webkit-text-stroke-width: 0px; border-color: var(--border-color); caret-color: rgb(0, 0, 0); color: rgb(0, 0, 0); font-variant-caps: normal; font-weight: 400; letter-spacing: normal; text-indent: 0px; text-transform: none; word-spacing: 0px; text-decoration: none; font-family: &amp;quot;Times New Roman&amp;quot;; font-size: 30px; text-align: center; -webkit-text-stroke-color: currentcolor !important;&quot;&gt;S,a,r,S&lt;sup&gt;&#39;&lt;/sup&gt;&lt;/i&gt;" style="text;whiteSpace=wrap;html=1;" parent="1" vertex="1">
          <mxGeometry x="2939.5" y="315" width="110" height="60" as="geometry" />
        </mxCell>
        <mxCell id="Kl0J1u9g9vZQOBzPppIB-455" value="&lt;i style=&quot;-webkit-text-stroke-width: 0px; border-color: var(--border-color); caret-color: rgb(0, 0, 0); color: rgb(0, 0, 0); font-family: Helvetica; font-size: 12px; font-variant-caps: normal; font-weight: 400; letter-spacing: normal; text-indent: 0px; text-transform: none; word-spacing: 0px; text-decoration: none; text-align: center; -webkit-text-stroke-color: currentcolor !important;&quot;&gt;&lt;b style=&quot;-webkit-text-stroke-width: 0px !important; -webkit-text-stroke-color: currentcolor !important; border-color: var(--border-color);&quot;&gt;&lt;font style=&quot;-webkit-text-stroke-width: 0px !important; -webkit-text-stroke-color: currentcolor !important; border-color: var(--border-color); font-size: 42px;&quot; face=&quot;Times New Roman&quot;&gt;DDPG&lt;/font&gt;&lt;/b&gt;&lt;/i&gt;" style="text;whiteSpace=wrap;html=1;" parent="1" vertex="1">
          <mxGeometry x="1850" y="55" width="120" height="70" as="geometry" />
        </mxCell>
        <mxCell id="Kl0J1u9g9vZQOBzPppIB-445" value="&lt;i style=&quot;-webkit-text-stroke-width: 0px; border-color: var(--border-color); caret-color: rgb(0, 0, 0); color: rgb(0, 0, 0); font-variant-caps: normal; font-weight: 400; letter-spacing: normal; text-indent: 0px; text-transform: none; word-spacing: 0px; text-decoration: none; font-family: &amp;quot;Times New Roman&amp;quot;; text-align: center; -webkit-text-stroke-color: currentcolor !important;&quot;&gt;&lt;font style=&quot;font-size: 30px;&quot;&gt;Critic Network&lt;/font&gt;&lt;/i&gt;" style="text;whiteSpace=wrap;html=1;" parent="1" vertex="1">
          <mxGeometry x="1930" y="145" width="190" height="70" as="geometry" />
        </mxCell>
        <mxCell id="Kl0J1u9g9vZQOBzPppIB-461" value="" style="endArrow=classic;html=1;rounded=0;entryX=0.5;entryY=0;entryDx=0;entryDy=0;strokeWidth=3;" parent="1" target="Kl0J1u9g9vZQOBzPppIB-443" edge="1">
          <mxGeometry width="50" height="50" relative="1" as="geometry">
            <mxPoint x="3100" y="421.67" as="sourcePoint" />
            <mxPoint x="3100" y="702" as="targetPoint" />
            <Array as="points">
              <mxPoint x="3100" y="1170" />
              <mxPoint x="1710" y="1170" />
              <mxPoint x="1700" y="411" />
            </Array>
          </mxGeometry>
        </mxCell>
        <mxCell id="Kl0J1u9g9vZQOBzPppIB-2" value="&lt;font face=&quot;Times New Roman&quot;&gt;&lt;span style=&quot;font-size: 40px;&quot;&gt;&lt;b&gt;&lt;i&gt;DNN&lt;/i&gt;&lt;/b&gt;&lt;/span&gt;&lt;/font&gt;" style="rounded=0;whiteSpace=wrap;html=1;movable=1;resizable=1;rotatable=1;deletable=1;editable=1;locked=0;connectable=1;" parent="1" vertex="1">
          <mxGeometry x="110" y="140" width="160" height="120" as="geometry" />
        </mxCell>
        <mxCell id="Kl0J1u9g9vZQOBzPppIB-5" value="&lt;font face=&quot;Times New Roman&quot; style=&quot;font-size: 30px;&quot;&gt;&lt;i&gt;action&lt;/i&gt;&lt;/font&gt;" style="text;html=1;align=center;verticalAlign=middle;resizable=1;points=[];autosize=1;strokeColor=none;fillColor=none;movable=1;rotatable=1;deletable=1;editable=1;locked=0;connectable=1;" parent="1" vertex="1">
          <mxGeometry x="270" y="155" width="100" height="50" as="geometry" />
        </mxCell>
        <mxCell id="Kl0J1u9g9vZQOBzPppIB-7" style="edgeStyle=orthogonalEdgeStyle;rounded=0;orthogonalLoop=1;jettySize=auto;html=1;entryX=0.5;entryY=0;entryDx=0;entryDy=0;exitX=0.5;exitY=0;exitDx=0;exitDy=0;movable=1;resizable=1;rotatable=1;deletable=1;editable=1;locked=0;connectable=1;strokeWidth=2;" parent="1" source="Kl0J1u9g9vZQOBzPppIB-6" target="Kl0J1u9g9vZQOBzPppIB-2" edge="1">
          <mxGeometry relative="1" as="geometry">
            <mxPoint x="505" y="80" as="targetPoint" />
            <Array as="points">
              <mxPoint x="505" y="80" />
              <mxPoint x="190" y="80" />
            </Array>
          </mxGeometry>
        </mxCell>
        <mxCell id="Kl0J1u9g9vZQOBzPppIB-9" style="edgeStyle=orthogonalEdgeStyle;rounded=0;orthogonalLoop=1;jettySize=auto;html=1;exitX=0.5;exitY=1;exitDx=0;exitDy=0;entryX=0;entryY=0.5;entryDx=0;entryDy=0;movable=1;resizable=1;rotatable=1;deletable=1;editable=1;locked=0;connectable=1;strokeWidth=2;" parent="1" source="Kl0J1u9g9vZQOBzPppIB-6" target="Kl0J1u9g9vZQOBzPppIB-2" edge="1">
          <mxGeometry relative="1" as="geometry">
            <mxPoint x="505" y="370" as="targetPoint" />
            <Array as="points">
              <mxPoint x="505" y="320" />
              <mxPoint x="80" y="320" />
              <mxPoint x="80" y="200" />
            </Array>
          </mxGeometry>
        </mxCell>
        <mxCell id="Kl0J1u9g9vZQOBzPppIB-6" value="&lt;font face=&quot;Times New Roman&quot; style=&quot;font-size: 35px;&quot;&gt;&lt;i&gt;Environment&lt;/i&gt;&lt;/font&gt;" style="rounded=1;whiteSpace=wrap;html=1;movable=1;resizable=1;rotatable=1;deletable=1;editable=1;locked=0;connectable=1;" parent="1" vertex="1">
          <mxGeometry x="390" y="170" width="230" height="60" as="geometry" />
        </mxCell>
        <mxCell id="Kl0J1u9g9vZQOBzPppIB-3" style="edgeStyle=orthogonalEdgeStyle;rounded=0;orthogonalLoop=1;jettySize=auto;html=1;exitX=1;exitY=0.5;exitDx=0;exitDy=0;entryX=0;entryY=0.5;entryDx=0;entryDy=0;movable=1;resizable=1;rotatable=1;deletable=1;editable=1;locked=0;connectable=1;strokeWidth=2;" parent="1" source="Kl0J1u9g9vZQOBzPppIB-2" target="Kl0J1u9g9vZQOBzPppIB-6" edge="1">
          <mxGeometry relative="1" as="geometry">
            <mxPoint x="390" y="210" as="targetPoint" />
          </mxGeometry>
        </mxCell>
        <mxCell id="Kl0J1u9g9vZQOBzPppIB-8" value="&lt;i style=&quot;border-color: var(--border-color); font-size: 30px; -webkit-text-stroke-color: currentcolor !important;&quot;&gt;&lt;font face=&quot;Times New Roman&quot;&gt;Reward&lt;/font&gt;&lt;/i&gt;" style="text;html=1;align=center;verticalAlign=middle;resizable=1;points=[];autosize=1;strokeColor=none;fillColor=none;movable=1;rotatable=1;deletable=1;editable=1;locked=0;connectable=1;" parent="1" vertex="1">
          <mxGeometry x="290" y="85" width="120" height="50" as="geometry" />
        </mxCell>
        <mxCell id="Kl0J1u9g9vZQOBzPppIB-10" value="&lt;font style=&quot;font-size: 30px;&quot;&gt;&lt;i&gt;&lt;font face=&quot;Times New Roman&quot;&gt;Observed&lt;/font&gt; &lt;font face=&quot;Times New Roman&quot;&gt;state&lt;/font&gt;&lt;/i&gt;&lt;/font&gt;" style="text;html=1;align=center;verticalAlign=middle;resizable=1;points=[];autosize=1;strokeColor=none;fillColor=none;movable=1;rotatable=1;deletable=1;editable=1;locked=0;connectable=1;" parent="1" vertex="1">
          <mxGeometry x="209" y="275" width="200" height="50" as="geometry" />
        </mxCell>
        <mxCell id="Kl0J1u9g9vZQOBzPppIB-12" value="" style="endArrow=none;dashed=1;html=1;rounded=0;strokeWidth=3;movable=1;resizable=1;rotatable=1;deletable=1;editable=1;locked=0;connectable=1;" parent="1" edge="1">
          <mxGeometry width="50" height="50" relative="1" as="geometry">
            <mxPoint x="18" y="360" as="sourcePoint" />
            <mxPoint x="648" y="360" as="targetPoint" />
          </mxGeometry>
        </mxCell>
        <mxCell id="Kl0J1u9g9vZQOBzPppIB-13" value="" style="endArrow=none;dashed=1;html=1;rounded=0;strokeWidth=3;movable=1;resizable=1;rotatable=1;deletable=1;editable=1;locked=0;connectable=1;" parent="1" edge="1">
          <mxGeometry width="50" height="50" relative="1" as="geometry">
            <mxPoint x="18" y="40" as="sourcePoint" />
            <mxPoint x="648" y="40" as="targetPoint" />
          </mxGeometry>
        </mxCell>
        <mxCell id="Kl0J1u9g9vZQOBzPppIB-14" value="" style="endArrow=none;dashed=1;html=1;rounded=0;strokeWidth=3;movable=1;resizable=1;rotatable=1;deletable=1;editable=1;locked=0;connectable=1;" parent="1" edge="1">
          <mxGeometry width="50" height="50" relative="1" as="geometry">
            <mxPoint x="640" y="360" as="sourcePoint" />
            <mxPoint x="640" y="42" as="targetPoint" />
          </mxGeometry>
        </mxCell>
        <mxCell id="Kl0J1u9g9vZQOBzPppIB-15" value="" style="endArrow=none;dashed=1;html=1;rounded=0;strokeWidth=3;movable=1;resizable=1;rotatable=1;deletable=1;editable=1;locked=0;connectable=1;" parent="1" edge="1">
          <mxGeometry width="50" height="50" relative="1" as="geometry">
            <mxPoint x="20" y="359" as="sourcePoint" />
            <mxPoint x="20" y="41" as="targetPoint" />
          </mxGeometry>
        </mxCell>
        <mxCell id="Kl0J1u9g9vZQOBzPppIB-16" value="&lt;i style=&quot;-webkit-text-stroke-width: 0px; border-color: var(--border-color); caret-color: rgb(0, 0, 0); color: rgb(0, 0, 0); font-variant-caps: normal; letter-spacing: normal; text-align: center; text-indent: 0px; text-transform: none; word-spacing: 0px; text-decoration: none; -webkit-text-stroke-color: currentcolor !important;&quot;&gt;&lt;b&gt;&lt;font face=&quot;Times New Roman&quot; style=&quot;font-size: 42px;&quot;&gt;DRL&lt;/font&gt;&lt;/b&gt;&lt;/i&gt;" style="text;whiteSpace=wrap;html=1;movable=1;resizable=1;rotatable=1;deletable=1;editable=1;locked=0;connectable=1;" parent="1" vertex="1">
          <mxGeometry x="59" y="60" width="140" height="60" as="geometry" />
        </mxCell>
        <mxCell id="Kl0J1u9g9vZQOBzPppIB-463" value="" style="group" parent="1" vertex="1" connectable="0">
          <mxGeometry x="20" y="760" width="630" height="415" as="geometry" />
        </mxCell>
        <mxCell id="Kl0J1u9g9vZQOBzPppIB-40" value="" style="group;movable=1;resizable=1;rotatable=1;deletable=1;editable=1;locked=0;connectable=1;" parent="Kl0J1u9g9vZQOBzPppIB-463" vertex="1" connectable="0">
          <mxGeometry width="630" height="320" as="geometry" />
        </mxCell>
        <mxCell id="Kl0J1u9g9vZQOBzPppIB-49" value="" style="endArrow=none;dashed=1;html=1;rounded=0;strokeWidth=3;movable=1;resizable=1;rotatable=1;deletable=1;editable=1;locked=0;connectable=1;" parent="Kl0J1u9g9vZQOBzPppIB-40" edge="1">
          <mxGeometry width="50" height="50" relative="1" as="geometry">
            <mxPoint y="320" as="sourcePoint" />
            <mxPoint x="630" y="320" as="targetPoint" />
          </mxGeometry>
        </mxCell>
        <mxCell id="Kl0J1u9g9vZQOBzPppIB-50" value="" style="endArrow=none;dashed=1;html=1;rounded=0;strokeWidth=3;movable=1;resizable=1;rotatable=1;deletable=1;editable=1;locked=0;connectable=1;" parent="Kl0J1u9g9vZQOBzPppIB-40" edge="1">
          <mxGeometry width="50" height="50" relative="1" as="geometry">
            <mxPoint as="sourcePoint" />
            <mxPoint x="630" as="targetPoint" />
          </mxGeometry>
        </mxCell>
        <mxCell id="Kl0J1u9g9vZQOBzPppIB-51" value="" style="endArrow=none;dashed=1;html=1;rounded=0;strokeWidth=3;movable=1;resizable=1;rotatable=1;deletable=1;editable=1;locked=0;connectable=1;" parent="Kl0J1u9g9vZQOBzPppIB-40" edge="1">
          <mxGeometry width="50" height="50" relative="1" as="geometry">
            <mxPoint x="622" y="320" as="sourcePoint" />
            <mxPoint x="622" y="2" as="targetPoint" />
          </mxGeometry>
        </mxCell>
        <mxCell id="Kl0J1u9g9vZQOBzPppIB-52" value="" style="endArrow=none;dashed=1;html=1;rounded=0;strokeWidth=3;movable=1;resizable=1;rotatable=1;deletable=1;editable=1;locked=0;connectable=1;" parent="Kl0J1u9g9vZQOBzPppIB-40" edge="1">
          <mxGeometry width="50" height="50" relative="1" as="geometry">
            <mxPoint x="2" y="319" as="sourcePoint" />
            <mxPoint x="2" y="1" as="targetPoint" />
          </mxGeometry>
        </mxCell>
        <mxCell id="Kl0J1u9g9vZQOBzPppIB-423" value="" style="group" parent="Kl0J1u9g9vZQOBzPppIB-40" vertex="1" connectable="0">
          <mxGeometry x="42" y="20" width="561" height="265" as="geometry" />
        </mxCell>
        <mxCell id="Kl0J1u9g9vZQOBzPppIB-41" value="&lt;font face=&quot;Times New Roman&quot;&gt;&lt;span style=&quot;font-size: 40px;&quot;&gt;&lt;b&gt;&lt;i&gt;DNN&lt;/i&gt;&lt;/b&gt;&lt;/span&gt;&lt;/font&gt;" style="rounded=0;whiteSpace=wrap;html=1;movable=1;resizable=1;rotatable=1;deletable=1;editable=1;locked=0;connectable=1;" parent="Kl0J1u9g9vZQOBzPppIB-423" vertex="1">
          <mxGeometry x="51" y="80" width="160" height="120" as="geometry" />
        </mxCell>
        <mxCell id="Kl0J1u9g9vZQOBzPppIB-42" value="&lt;font face=&quot;Times New Roman&quot; style=&quot;font-size: 30px;&quot;&gt;&lt;i&gt;action&lt;/i&gt;&lt;/font&gt;" style="text;html=1;align=center;verticalAlign=middle;resizable=1;points=[];autosize=1;strokeColor=none;fillColor=none;movable=1;rotatable=1;deletable=1;editable=1;locked=0;connectable=1;" parent="Kl0J1u9g9vZQOBzPppIB-423" vertex="1">
          <mxGeometry x="211" y="95" width="100" height="50" as="geometry" />
        </mxCell>
        <mxCell id="Kl0J1u9g9vZQOBzPppIB-43" style="edgeStyle=orthogonalEdgeStyle;rounded=0;orthogonalLoop=1;jettySize=auto;html=1;entryX=0.5;entryY=0;entryDx=0;entryDy=0;exitX=0.5;exitY=0;exitDx=0;exitDy=0;movable=1;resizable=1;rotatable=1;deletable=1;editable=1;locked=0;connectable=1;strokeWidth=2;" parent="Kl0J1u9g9vZQOBzPppIB-423" source="Kl0J1u9g9vZQOBzPppIB-45" target="Kl0J1u9g9vZQOBzPppIB-41" edge="1">
          <mxGeometry relative="1" as="geometry">
            <mxPoint x="446" y="20" as="targetPoint" />
            <Array as="points">
              <mxPoint x="446" y="20" />
              <mxPoint x="131" y="20" />
            </Array>
          </mxGeometry>
        </mxCell>
        <mxCell id="Kl0J1u9g9vZQOBzPppIB-44" style="edgeStyle=orthogonalEdgeStyle;rounded=0;orthogonalLoop=1;jettySize=auto;html=1;exitX=0.5;exitY=1;exitDx=0;exitDy=0;entryX=0;entryY=0.5;entryDx=0;entryDy=0;movable=1;resizable=1;rotatable=1;deletable=1;editable=1;locked=0;connectable=1;strokeWidth=2;" parent="Kl0J1u9g9vZQOBzPppIB-423" source="Kl0J1u9g9vZQOBzPppIB-45" target="Kl0J1u9g9vZQOBzPppIB-41" edge="1">
          <mxGeometry relative="1" as="geometry">
            <mxPoint x="446" y="310" as="targetPoint" />
            <Array as="points">
              <mxPoint x="446" y="260" />
              <mxPoint x="21" y="260" />
              <mxPoint x="21" y="140" />
            </Array>
          </mxGeometry>
        </mxCell>
        <mxCell id="Kl0J1u9g9vZQOBzPppIB-45" value="&lt;font face=&quot;Times New Roman&quot; style=&quot;font-size: 35px;&quot;&gt;&lt;i&gt;Environment&lt;/i&gt;&lt;/font&gt;" style="rounded=1;whiteSpace=wrap;html=1;movable=1;resizable=1;rotatable=1;deletable=1;editable=1;locked=0;connectable=1;" parent="Kl0J1u9g9vZQOBzPppIB-423" vertex="1">
          <mxGeometry x="331" y="110" width="230" height="60" as="geometry" />
        </mxCell>
        <mxCell id="Kl0J1u9g9vZQOBzPppIB-46" style="edgeStyle=orthogonalEdgeStyle;rounded=0;orthogonalLoop=1;jettySize=auto;html=1;exitX=1;exitY=0.5;exitDx=0;exitDy=0;entryX=0;entryY=0.5;entryDx=0;entryDy=0;movable=1;resizable=1;rotatable=1;deletable=1;editable=1;locked=0;connectable=1;strokeWidth=2;" parent="Kl0J1u9g9vZQOBzPppIB-423" source="Kl0J1u9g9vZQOBzPppIB-41" target="Kl0J1u9g9vZQOBzPppIB-45" edge="1">
          <mxGeometry relative="1" as="geometry">
            <mxPoint x="331" y="150" as="targetPoint" />
          </mxGeometry>
        </mxCell>
        <mxCell id="Kl0J1u9g9vZQOBzPppIB-47" value="&lt;i style=&quot;border-color: var(--border-color); font-size: 30px; -webkit-text-stroke-color: currentcolor !important;&quot;&gt;&lt;font style=&quot;border-color: var(--border-color); -webkit-text-stroke-color: currentcolor !important;&quot; face=&quot;Times New Roman&quot;&gt;Reward&lt;/font&gt;&lt;/i&gt;" style="text;html=1;align=center;verticalAlign=middle;resizable=1;points=[];autosize=1;strokeColor=none;fillColor=none;movable=1;rotatable=1;deletable=1;editable=1;locked=0;connectable=1;" parent="Kl0J1u9g9vZQOBzPppIB-423" vertex="1">
          <mxGeometry x="231" y="25" width="120" height="50" as="geometry" />
        </mxCell>
        <mxCell id="Kl0J1u9g9vZQOBzPppIB-48" value="&lt;i style=&quot;border-color: var(--border-color); font-size: 30px; -webkit-text-stroke-color: currentcolor !important;&quot;&gt;&lt;font style=&quot;border-color: var(--border-color); -webkit-text-stroke-color: currentcolor !important;&quot; face=&quot;Times New Roman&quot;&gt;Observed&lt;/font&gt;&amp;nbsp;&lt;font style=&quot;border-color: var(--border-color); -webkit-text-stroke-color: currentcolor !important;&quot; face=&quot;Times New Roman&quot;&gt;state&lt;/font&gt;&lt;/i&gt;" style="text;html=1;align=center;verticalAlign=middle;resizable=1;points=[];autosize=1;strokeColor=none;fillColor=none;movable=1;rotatable=1;deletable=1;editable=1;locked=0;connectable=1;" parent="Kl0J1u9g9vZQOBzPppIB-423" vertex="1">
          <mxGeometry x="150" y="215" width="200" height="50" as="geometry" />
        </mxCell>
        <mxCell id="Kl0J1u9g9vZQOBzPppIB-53" value="&lt;i style=&quot;-webkit-text-stroke-width: 0px; border-color: var(--border-color); caret-color: rgb(0, 0, 0); color: rgb(0, 0, 0); font-variant-caps: normal; letter-spacing: normal; text-align: center; text-indent: 0px; text-transform: none; word-spacing: 0px; text-decoration: none; -webkit-text-stroke-color: currentcolor !important;&quot;&gt;&lt;b&gt;&lt;font face=&quot;Times New Roman&quot; style=&quot;font-size: 42px;&quot;&gt;DRL&lt;/font&gt;&lt;/b&gt;&lt;/i&gt;" style="text;whiteSpace=wrap;html=1;movable=1;resizable=1;rotatable=1;deletable=1;editable=1;locked=0;connectable=1;" parent="Kl0J1u9g9vZQOBzPppIB-423" vertex="1">
          <mxGeometry width="140" height="60" as="geometry" />
        </mxCell>
        <mxCell id="Kl0J1u9g9vZQOBzPppIB-102" value="&lt;font face=&quot;Times New Roman&quot;&gt;&lt;b style=&quot;border-color: var(--border-color); font-size: 42px; -webkit-text-stroke-color: currentcolor !important;&quot;&gt;RIS&lt;/b&gt;&lt;b style=&quot;border-color: var(--border-color); -webkit-text-stroke-color: currentcolor !important; font-size: 35px;&quot;&gt;&lt;i&gt;L&lt;/i&gt;&lt;/b&gt;&lt;/font&gt;" style="text;html=1;align=center;verticalAlign=middle;resizable=0;points=[];autosize=1;strokeColor=none;fillColor=none;" parent="Kl0J1u9g9vZQOBzPppIB-463" vertex="1">
          <mxGeometry x="247" y="355" width="110" height="60" as="geometry" />
        </mxCell>
        <mxCell id="Kl0J1u9g9vZQOBzPppIB-68" value="&lt;font face=&quot;Times New Roman&quot;&gt;&lt;b style=&quot;-webkit-text-stroke-width: 0px; border-color: var(--border-color); caret-color: rgb(0, 0, 0); color: rgb(0, 0, 0); font-size: 42px; font-style: normal; font-variant-caps: normal; letter-spacing: normal; text-align: center; text-indent: 0px; text-transform: none; word-spacing: 0px; text-decoration: none; -webkit-text-stroke-color: currentcolor !important;&quot;&gt;RIS&lt;/b&gt;&lt;b style=&quot;-webkit-text-stroke-width: 0px; border-color: var(--border-color); caret-color: rgb(0, 0, 0); color: rgb(0, 0, 0); font-style: normal; font-variant-caps: normal; letter-spacing: normal; text-align: center; text-indent: 0px; text-transform: none; word-spacing: 0px; text-decoration: none; font-size: 35px; -webkit-text-stroke-color: currentcolor !important;&quot;&gt;2&lt;/b&gt;&lt;/font&gt;" style="text;whiteSpace=wrap;html=1;" parent="1" vertex="1">
          <mxGeometry x="1160" y="380" width="120" height="80" as="geometry" />
        </mxCell>
        <mxCell id="Kl0J1u9g9vZQOBzPppIB-25" value="&lt;font face=&quot;Times New Roman&quot;&gt;&lt;span style=&quot;font-size: 40px;&quot;&gt;&lt;b&gt;&lt;i&gt;DNN&lt;/i&gt;&lt;/b&gt;&lt;/span&gt;&lt;/font&gt;" style="rounded=0;whiteSpace=wrap;html=1;movable=1;resizable=1;rotatable=1;deletable=1;editable=1;locked=0;connectable=1;" parent="1" vertex="1">
          <mxGeometry x="972" y="140" width="160" height="120" as="geometry" />
        </mxCell>
        <mxCell id="Kl0J1u9g9vZQOBzPppIB-26" value="&lt;font face=&quot;Times New Roman&quot; style=&quot;font-size: 30px;&quot;&gt;&lt;i&gt;action&lt;/i&gt;&lt;/font&gt;" style="text;html=1;align=center;verticalAlign=middle;resizable=1;points=[];autosize=1;strokeColor=none;fillColor=none;movable=1;rotatable=1;deletable=1;editable=1;locked=0;connectable=1;" parent="1" vertex="1">
          <mxGeometry x="1130" y="155" width="102" height="50" as="geometry" />
        </mxCell>
        <mxCell id="Kl0J1u9g9vZQOBzPppIB-27" style="edgeStyle=orthogonalEdgeStyle;rounded=0;orthogonalLoop=1;jettySize=auto;html=1;entryX=0.5;entryY=0;entryDx=0;entryDy=0;exitX=0.5;exitY=0;exitDx=0;exitDy=0;movable=1;resizable=1;rotatable=1;deletable=1;editable=1;locked=0;connectable=1;strokeWidth=2;" parent="1" source="Kl0J1u9g9vZQOBzPppIB-29" target="Kl0J1u9g9vZQOBzPppIB-25" edge="1">
          <mxGeometry relative="1" as="geometry">
            <mxPoint x="1367" y="80" as="targetPoint" />
            <Array as="points">
              <mxPoint x="1367" y="80" />
              <mxPoint x="1052" y="80" />
            </Array>
          </mxGeometry>
        </mxCell>
        <mxCell id="Kl0J1u9g9vZQOBzPppIB-28" style="edgeStyle=orthogonalEdgeStyle;rounded=0;orthogonalLoop=1;jettySize=auto;html=1;exitX=0.5;exitY=1;exitDx=0;exitDy=0;entryX=0;entryY=0.5;entryDx=0;entryDy=0;movable=1;resizable=1;rotatable=1;deletable=1;editable=1;locked=0;connectable=1;strokeWidth=2;" parent="1" source="Kl0J1u9g9vZQOBzPppIB-29" target="Kl0J1u9g9vZQOBzPppIB-25" edge="1">
          <mxGeometry relative="1" as="geometry">
            <mxPoint x="1367" y="370" as="targetPoint" />
            <Array as="points">
              <mxPoint x="1367" y="320" />
              <mxPoint x="942" y="320" />
              <mxPoint x="942" y="200" />
            </Array>
          </mxGeometry>
        </mxCell>
        <mxCell id="Kl0J1u9g9vZQOBzPppIB-29" value="&lt;font face=&quot;Times New Roman&quot; style=&quot;font-size: 35px;&quot;&gt;&lt;i&gt;Environment&lt;/i&gt;&lt;/font&gt;" style="rounded=1;whiteSpace=wrap;html=1;movable=1;resizable=1;rotatable=1;deletable=1;editable=1;locked=0;connectable=1;" parent="1" vertex="1">
          <mxGeometry x="1252" y="170" width="230" height="60" as="geometry" />
        </mxCell>
        <mxCell id="Kl0J1u9g9vZQOBzPppIB-30" style="edgeStyle=orthogonalEdgeStyle;rounded=0;orthogonalLoop=1;jettySize=auto;html=1;exitX=1;exitY=0.5;exitDx=0;exitDy=0;entryX=0;entryY=0.5;entryDx=0;entryDy=0;movable=1;resizable=1;rotatable=1;deletable=1;editable=1;locked=0;connectable=1;strokeWidth=2;" parent="1" source="Kl0J1u9g9vZQOBzPppIB-25" target="Kl0J1u9g9vZQOBzPppIB-29" edge="1">
          <mxGeometry relative="1" as="geometry">
            <mxPoint x="1252" y="210" as="targetPoint" />
          </mxGeometry>
        </mxCell>
        <mxCell id="Kl0J1u9g9vZQOBzPppIB-31" value="&lt;i style=&quot;border-color: var(--border-color); font-size: 30px; -webkit-text-stroke-color: currentcolor !important;&quot;&gt;&lt;font style=&quot;border-color: var(--border-color); -webkit-text-stroke-color: currentcolor !important;&quot; face=&quot;Times New Roman&quot;&gt;Reward&lt;/font&gt;&lt;/i&gt;" style="text;html=1;align=center;verticalAlign=middle;resizable=1;points=[];autosize=1;strokeColor=none;fillColor=none;movable=1;rotatable=1;deletable=1;editable=1;locked=0;connectable=1;" parent="1" vertex="1">
          <mxGeometry x="1151" y="85" width="120" height="50" as="geometry" />
        </mxCell>
        <mxCell id="Kl0J1u9g9vZQOBzPppIB-32" value="&lt;i style=&quot;border-color: var(--border-color); font-size: 30px; -webkit-text-stroke-color: currentcolor !important;&quot;&gt;&lt;font style=&quot;border-color: var(--border-color); -webkit-text-stroke-color: currentcolor !important;&quot; face=&quot;Times New Roman&quot;&gt;Observed&lt;/font&gt;&amp;nbsp;&lt;font style=&quot;border-color: var(--border-color); -webkit-text-stroke-color: currentcolor !important;&quot; face=&quot;Times New Roman&quot;&gt;state&lt;/font&gt;&lt;/i&gt;" style="text;html=1;align=center;verticalAlign=middle;resizable=1;points=[];autosize=1;strokeColor=none;fillColor=none;movable=1;rotatable=1;deletable=1;editable=1;locked=0;connectable=1;" parent="1" vertex="1">
          <mxGeometry x="1071" y="275" width="200" height="50" as="geometry" />
        </mxCell>
        <mxCell id="Kl0J1u9g9vZQOBzPppIB-33" value="" style="endArrow=none;dashed=1;html=1;rounded=0;strokeWidth=3;movable=1;resizable=1;rotatable=1;deletable=1;editable=1;locked=0;connectable=1;" parent="1" edge="1">
          <mxGeometry width="50" height="50" relative="1" as="geometry">
            <mxPoint x="880" y="360" as="sourcePoint" />
            <mxPoint x="1510" y="360" as="targetPoint" />
          </mxGeometry>
        </mxCell>
        <mxCell id="Kl0J1u9g9vZQOBzPppIB-34" value="" style="endArrow=none;dashed=1;html=1;rounded=0;strokeWidth=3;movable=1;resizable=1;rotatable=1;deletable=1;editable=1;locked=0;connectable=1;" parent="1" edge="1">
          <mxGeometry width="50" height="50" relative="1" as="geometry">
            <mxPoint x="880" y="40" as="sourcePoint" />
            <mxPoint x="1510" y="40" as="targetPoint" />
          </mxGeometry>
        </mxCell>
        <mxCell id="Kl0J1u9g9vZQOBzPppIB-35" value="" style="endArrow=none;dashed=1;html=1;rounded=0;strokeWidth=3;movable=1;resizable=1;rotatable=1;deletable=1;editable=1;locked=0;connectable=1;" parent="1" edge="1">
          <mxGeometry width="50" height="50" relative="1" as="geometry">
            <mxPoint x="1502" y="360" as="sourcePoint" />
            <mxPoint x="1502" y="42" as="targetPoint" />
          </mxGeometry>
        </mxCell>
        <mxCell id="Kl0J1u9g9vZQOBzPppIB-36" value="" style="endArrow=none;dashed=1;html=1;rounded=0;strokeWidth=3;movable=1;resizable=1;rotatable=1;deletable=1;editable=1;locked=0;connectable=1;" parent="1" edge="1">
          <mxGeometry width="50" height="50" relative="1" as="geometry">
            <mxPoint x="882" y="359" as="sourcePoint" />
            <mxPoint x="882" y="41" as="targetPoint" />
          </mxGeometry>
        </mxCell>
        <mxCell id="Kl0J1u9g9vZQOBzPppIB-37" value="&lt;i style=&quot;-webkit-text-stroke-width: 0px; border-color: var(--border-color); caret-color: rgb(0, 0, 0); color: rgb(0, 0, 0); font-variant-caps: normal; letter-spacing: normal; text-align: center; text-indent: 0px; text-transform: none; word-spacing: 0px; text-decoration: none; -webkit-text-stroke-color: currentcolor !important;&quot;&gt;&lt;b&gt;&lt;font face=&quot;Times New Roman&quot; style=&quot;font-size: 42px;&quot;&gt;DRL&lt;/font&gt;&lt;/b&gt;&lt;/i&gt;" style="text;whiteSpace=wrap;html=1;movable=1;resizable=1;rotatable=1;deletable=1;editable=1;locked=0;connectable=1;" parent="1" vertex="1">
          <mxGeometry x="921" y="60" width="140" height="60" as="geometry" />
        </mxCell>
        <mxCell id="Kl0J1u9g9vZQOBzPppIB-467" value="" style="endArrow=classic;html=1;rounded=0;entryX=0;entryY=0;entryDx=0;entryDy=0;strokeWidth=3;" parent="1" target="Kl0J1u9g9vZQOBzPppIB-465" edge="1">
          <mxGeometry width="50" height="50" relative="1" as="geometry">
            <mxPoint x="1510" y="40" as="sourcePoint" />
            <mxPoint x="1590" y="360" as="targetPoint" />
          </mxGeometry>
        </mxCell>
        <mxCell id="Kl0J1u9g9vZQOBzPppIB-468" value="" style="endArrow=classic;html=1;rounded=0;entryX=0;entryY=1;entryDx=0;entryDy=0;strokeWidth=3;" parent="1" target="Kl0J1u9g9vZQOBzPppIB-465" edge="1">
          <mxGeometry width="50" height="50" relative="1" as="geometry">
            <mxPoint x="1500" y="360" as="sourcePoint" />
            <mxPoint x="1570" y="480" as="targetPoint" />
          </mxGeometry>
        </mxCell>
        <mxCell id="Kl0J1u9g9vZQOBzPppIB-469" value="&lt;i style=&quot;-webkit-text-stroke-width: 0px; border-color: var(--border-color); caret-color: rgb(0, 0, 0); color: rgb(0, 0, 0); font-variant-caps: normal; font-weight: 400; letter-spacing: normal; text-indent: 0px; text-transform: none; word-spacing: 0px; text-decoration: none; font-family: &amp;quot;Times New Roman&amp;quot;; font-size: 30px; text-align: center; -webkit-text-stroke-color: currentcolor !important;&quot;&gt;Observed State S&lt;/i&gt;&lt;span style=&quot;-webkit-text-stroke-width: 0px; border-color: var(--border-color); caret-color: rgb(0, 0, 0); color: rgb(0, 0, 0); font-variant-caps: normal; font-weight: 400; letter-spacing: normal; text-indent: 0px; text-transform: none; word-spacing: 0px; text-decoration: none; font-family: &amp;quot;Times New Roman&amp;quot;; font-size: 30px; text-align: center; -webkit-text-stroke-color: currentcolor !important;&quot;&gt;(&lt;i&gt;sum rate&lt;/i&gt;)&lt;/span&gt;" style="text;whiteSpace=wrap;html=1;" parent="1" vertex="1">
          <mxGeometry x="2630" y="1115" width="350" height="60" as="geometry" />
        </mxCell>
        <mxCell id="n3QeE8RcqJXUwVZuSg8x-1" value="" style="endArrow=classic;html=1;rounded=0;exitX=0.5;exitY=1;exitDx=0;exitDy=0;entryX=0;entryY=0.5;entryDx=0;entryDy=0;strokeWidth=3;" edge="1" parent="1" source="Kl0J1u9g9vZQOBzPppIB-443" target="Kl0J1u9g9vZQOBzPppIB-191">
          <mxGeometry width="50" height="50" relative="1" as="geometry">
            <mxPoint x="2470" y="760" as="sourcePoint" />
            <mxPoint x="2520" y="710" as="targetPoint" />
          </mxGeometry>
        </mxCell>
      </root>
    </mxGraphModel>
  </diagram>
</mxfile>
